<mxfile host="Electron" agent="Mozilla/5.0 (Windows NT 10.0; Win64; x64) AppleWebKit/537.36 (KHTML, like Gecko) draw.io/28.2.5 Chrome/138.0.7204.251 Electron/37.6.1 Safari/537.36" version="28.2.5">
  <diagram name="Page-1" id="mQHjmsfGYK04iLIvXYxn">
    <mxGraphModel dx="986" dy="744" grid="1" gridSize="10" guides="1" tooltips="1" connect="1" arrows="1" fold="1" page="1" pageScale="1" pageWidth="850" pageHeight="1100" math="0" shadow="0">
      <root>
        <mxCell id="0" />
        <mxCell id="1" parent="0" />
        <mxCell id="QYXpbwsZUJlx9HDoSFY5-1" value="High Level Architecture&amp;nbsp;" style="rounded=0;whiteSpace=wrap;html=1;strokeColor=none;fontSize=21;fontStyle=1" vertex="1" parent="1">
          <mxGeometry width="370" height="40" as="geometry" />
        </mxCell>
        <mxCell id="QYXpbwsZUJlx9HDoSFY5-2" value="" style="rounded=0;whiteSpace=wrap;html=1;strokeColor=light-dark(#01699d, #ededed);fillStyle=auto;shadow=0;fillColor=none;dashed=1;" vertex="1" parent="1">
          <mxGeometry x="15.68" y="120" width="120" height="440" as="geometry" />
        </mxCell>
        <mxCell id="QYXpbwsZUJlx9HDoSFY5-4" value="" style="rounded=0;whiteSpace=wrap;html=1;strokeColor=light-dark(#01699d, #ededed);fillStyle=auto;shadow=0;fillColor=none;dashed=1;" vertex="1" parent="1">
          <mxGeometry x="172.5" y="120" width="510" height="440" as="geometry" />
        </mxCell>
        <mxCell id="QYXpbwsZUJlx9HDoSFY5-5" value="Source" style="rounded=1;whiteSpace=wrap;html=1;fontSize=20;strokeColor=none;" vertex="1" parent="1">
          <mxGeometry x="40.68" y="90" width="95" height="60" as="geometry" />
        </mxCell>
        <mxCell id="QYXpbwsZUJlx9HDoSFY5-6" value="Data Wharehouse&lt;div&gt;&lt;br&gt;&lt;/div&gt;" style="rounded=1;whiteSpace=wrap;html=1;fontSize=18;strokeColor=none;" vertex="1" parent="1">
          <mxGeometry x="342.5" y="120" width="147.5" height="20" as="geometry" />
        </mxCell>
        <mxCell id="QYXpbwsZUJlx9HDoSFY5-7" value="" style="rounded=0;whiteSpace=wrap;html=1;strokeColor=light-dark(#01699d, #ededed);fillStyle=auto;shadow=0;fillColor=none;dashed=1;" vertex="1" parent="1">
          <mxGeometry x="715" y="118" width="120" height="442" as="geometry" />
        </mxCell>
        <mxCell id="QYXpbwsZUJlx9HDoSFY5-8" value="Consume&amp;nbsp;" style="rounded=1;whiteSpace=wrap;html=1;fontSize=18;strokeColor=none;" vertex="1" parent="1">
          <mxGeometry x="727.5" y="90" width="95" height="60" as="geometry" />
        </mxCell>
        <mxCell id="QYXpbwsZUJlx9HDoSFY5-9" value="Bronze Layer" style="rounded=0;whiteSpace=wrap;html=1;fillColor=#ffe6cc;strokeColor=#d79b00;" vertex="1" parent="1">
          <mxGeometry x="200" y="150" width="120" height="30" as="geometry" />
        </mxCell>
        <mxCell id="QYXpbwsZUJlx9HDoSFY5-10" value="" style="rounded=0;whiteSpace=wrap;html=1;fillColor=none;strokeColor=#d79b00;" vertex="1" parent="1">
          <mxGeometry x="200" y="190" width="120" height="350" as="geometry" />
        </mxCell>
        <mxCell id="QYXpbwsZUJlx9HDoSFY5-11" value="Silver Layer" style="rounded=0;whiteSpace=wrap;html=1;fillColor=#f5f5f5;strokeColor=#666666;fontColor=#333333;" vertex="1" parent="1">
          <mxGeometry x="370" y="150" width="120" height="30" as="geometry" />
        </mxCell>
        <mxCell id="QYXpbwsZUJlx9HDoSFY5-12" value="" style="rounded=0;whiteSpace=wrap;html=1;fillColor=none;strokeColor=#666666;fontColor=#333333;" vertex="1" parent="1">
          <mxGeometry x="370" y="190" width="120" height="350" as="geometry" />
        </mxCell>
        <mxCell id="QYXpbwsZUJlx9HDoSFY5-13" value="Gold&amp;nbsp; Layer" style="rounded=0;whiteSpace=wrap;html=1;fillColor=#FFFFCC;strokeColor=#36393d;" vertex="1" parent="1">
          <mxGeometry x="540" y="150" width="120" height="30" as="geometry" />
        </mxCell>
        <mxCell id="QYXpbwsZUJlx9HDoSFY5-14" value="" style="rounded=0;whiteSpace=wrap;html=1;fillColor=none;strokeColor=#d6b656;" vertex="1" parent="1">
          <mxGeometry x="540" y="190" width="120" height="340" as="geometry" />
        </mxCell>
        <mxCell id="QYXpbwsZUJlx9HDoSFY5-15" value="CRM" style="image;aspect=fixed;html=1;points=[];align=center;fontSize=12;image=img/lib/azure2/general/Folder_Blank.svg;fontStyle=1" vertex="1" parent="1">
          <mxGeometry x="44.87" y="190" width="61.61" height="50" as="geometry" />
        </mxCell>
        <mxCell id="QYXpbwsZUJlx9HDoSFY5-17" value="" style="verticalLabelPosition=bottom;html=1;verticalAlign=top;align=center;strokeColor=none;fillColor=#00BEF2;shape=mxgraph.azure.cloud_services_configuration_file;pointerEvents=1;" vertex="1" parent="1">
          <mxGeometry x="91.5" y="220" width="27.5" height="30" as="geometry" />
        </mxCell>
        <mxCell id="QYXpbwsZUJlx9HDoSFY5-18" value="ERP" style="image;aspect=fixed;html=1;points=[];align=center;fontSize=12;image=img/lib/azure2/general/Folder_Blank.svg;fontStyle=1" vertex="1" parent="1">
          <mxGeometry x="49.8" y="280" width="56.68" height="46" as="geometry" />
        </mxCell>
        <mxCell id="QYXpbwsZUJlx9HDoSFY5-19" value="" style="verticalLabelPosition=bottom;html=1;verticalAlign=top;align=center;strokeColor=none;fillColor=#00BEF2;shape=mxgraph.azure.cloud_services_configuration_file;pointerEvents=1;" vertex="1" parent="1">
          <mxGeometry x="91.5" y="310" width="27.5" height="30" as="geometry" />
        </mxCell>
        <mxCell id="QYXpbwsZUJlx9HDoSFY5-20" value="" style="endArrow=none;html=1;rounded=0;" edge="1" parent="1">
          <mxGeometry width="50" height="50" relative="1" as="geometry">
            <mxPoint x="19.17" y="360" as="sourcePoint" />
            <mxPoint x="132.17000000000002" y="360" as="targetPoint" />
            <Array as="points">
              <mxPoint x="52.17" y="360" />
            </Array>
          </mxGeometry>
        </mxCell>
        <mxCell id="QYXpbwsZUJlx9HDoSFY5-21" value="&lt;font style=&quot;&quot;&gt;&lt;b style=&quot;&quot;&gt;&lt;font style=&quot;font-size: 10px;&quot;&gt;Object File&amp;nbsp; &amp;nbsp; &amp;nbsp; &amp;nbsp; &amp;nbsp; &amp;nbsp; &amp;nbsp; &amp;nbsp;&lt;/font&gt;&lt;/b&gt;&lt;/font&gt;&lt;div&gt;&lt;font style=&quot;&quot;&gt;&lt;font style=&quot;&quot; size=&quot;1&quot;&gt;CSV File&lt;/font&gt;&lt;/font&gt;&lt;div&gt;&lt;font style=&quot;font-size: 10px;&quot;&gt;&lt;b style=&quot;&quot;&gt;&lt;br&gt;&lt;/b&gt;&lt;/font&gt;&lt;/div&gt;&lt;div&gt;&lt;font style=&quot;font-size: 10px;&quot;&gt;&lt;b style=&quot;&quot;&gt;Interface&amp;nbsp; &amp;nbsp; &amp;nbsp; &amp;nbsp; &amp;nbsp; &amp;nbsp; &amp;nbsp; &amp;nbsp;&amp;nbsp;&lt;/b&gt;&lt;/font&gt;&lt;/div&gt;&lt;div&gt;&lt;font style=&quot;font-size: 8px;&quot;&gt;File In Folder&lt;/font&gt;&lt;/div&gt;&lt;div&gt;&lt;br&gt;&lt;/div&gt;&lt;/div&gt;" style="text;html=1;align=center;verticalAlign=middle;whiteSpace=wrap;rounded=0;" vertex="1" parent="1">
          <mxGeometry x="21.18" y="375" width="109" height="85" as="geometry" />
        </mxCell>
        <mxCell id="QYXpbwsZUJlx9HDoSFY5-25" value="" style="html=1;verticalLabelPosition=bottom;align=center;labelBackgroundColor=#ffffff;verticalAlign=top;strokeWidth=2;strokeColor=#d79b00;shadow=0;dashed=0;shape=mxgraph.ios7.icons.data;fillColor=#ffe6cc;" vertex="1" parent="1">
          <mxGeometry x="230" y="200" width="50" height="60" as="geometry" />
        </mxCell>
        <mxCell id="QYXpbwsZUJlx9HDoSFY5-28" value="" style="html=1;verticalLabelPosition=bottom;align=center;labelBackgroundColor=#ffffff;verticalAlign=top;strokeWidth=2;strokeColor=#36393d;shadow=0;dashed=0;shape=mxgraph.ios7.icons.data;fillColor=#FFFFCC;" vertex="1" parent="1">
          <mxGeometry x="570" y="200" width="50" height="60" as="geometry" />
        </mxCell>
        <mxCell id="QYXpbwsZUJlx9HDoSFY5-29" value="" style="html=1;verticalLabelPosition=bottom;align=center;labelBackgroundColor=#ffffff;verticalAlign=top;strokeWidth=2;strokeColor=#666666;shadow=0;dashed=0;shape=mxgraph.ios7.icons.data;fillColor=#f5f5f5;fontColor=#333333;" vertex="1" parent="1">
          <mxGeometry x="397" y="200" width="53" height="60" as="geometry" />
        </mxCell>
        <mxCell id="QYXpbwsZUJlx9HDoSFY5-34" value="" style="shape=flexArrow;endArrow=classic;html=1;rounded=0;fillColor=#cce5ff;strokeColor=#36393d;" edge="1" parent="1">
          <mxGeometry width="50" height="50" relative="1" as="geometry">
            <mxPoint x="326.82" y="314" as="sourcePoint" />
            <mxPoint x="365" y="314.40999999999997" as="targetPoint" />
            <Array as="points">
              <mxPoint x="336.82" y="314" />
            </Array>
          </mxGeometry>
        </mxCell>
        <mxCell id="QYXpbwsZUJlx9HDoSFY5-41" value="Raw Data" style="text;html=1;align=center;verticalAlign=middle;whiteSpace=wrap;rounded=0;fontSize=13;" vertex="1" parent="1">
          <mxGeometry x="225" y="260" width="60" height="30" as="geometry" />
        </mxCell>
        <mxCell id="QYXpbwsZUJlx9HDoSFY5-44" value="Business Ready Data" style="text;html=1;align=center;verticalAlign=middle;whiteSpace=wrap;rounded=0;fontSize=13;" vertex="1" parent="1">
          <mxGeometry x="543.75" y="260" width="112.5" height="30" as="geometry" />
        </mxCell>
        <mxCell id="QYXpbwsZUJlx9HDoSFY5-45" value="Cleaned , standardized&amp;nbsp; Data" style="text;html=1;align=center;verticalAlign=middle;whiteSpace=wrap;rounded=0;fontSize=13;" vertex="1" parent="1">
          <mxGeometry x="365" y="260" width="130" height="30" as="geometry" />
        </mxCell>
        <mxCell id="QYXpbwsZUJlx9HDoSFY5-46" value="" style="endArrow=none;html=1;rounded=0;fillColor=#ffcc99;strokeColor=#36393d;" edge="1" parent="1">
          <mxGeometry width="50" height="50" relative="1" as="geometry">
            <mxPoint x="203.5" y="290" as="sourcePoint" />
            <mxPoint x="316.5" y="290" as="targetPoint" />
            <Array as="points">
              <mxPoint x="236.5" y="290" />
            </Array>
          </mxGeometry>
        </mxCell>
        <mxCell id="QYXpbwsZUJlx9HDoSFY5-47" value="" style="endArrow=none;html=1;rounded=0;fillColor=#ffff88;strokeColor=#36393d;" edge="1" parent="1">
          <mxGeometry width="50" height="50" relative="1" as="geometry">
            <mxPoint x="543.25" y="290" as="sourcePoint" />
            <mxPoint x="656.25" y="290" as="targetPoint" />
            <Array as="points">
              <mxPoint x="576.25" y="290" />
              <mxPoint x="606.25" y="290" />
            </Array>
          </mxGeometry>
        </mxCell>
        <mxCell id="QYXpbwsZUJlx9HDoSFY5-48" value="" style="endArrow=none;html=1;rounded=0;fillColor=#eeeeee;strokeColor=#36393d;" edge="1" parent="1">
          <mxGeometry width="50" height="50" relative="1" as="geometry">
            <mxPoint x="373.5" y="290" as="sourcePoint" />
            <mxPoint x="486.5" y="290" as="targetPoint" />
            <Array as="points">
              <mxPoint x="406.5" y="290" />
            </Array>
          </mxGeometry>
        </mxCell>
        <mxCell id="QYXpbwsZUJlx9HDoSFY5-49" value="&lt;font style=&quot;&quot;&gt;&lt;b style=&quot;&quot;&gt;&lt;font style=&quot;font-size: 10px;&quot;&gt;Object File&lt;/font&gt;&lt;font size=&quot;1&quot;&gt;: Table&lt;/font&gt;&lt;/b&gt;&lt;/font&gt;&lt;div&gt;&lt;font style=&quot;font-size: 10px;&quot;&gt;&lt;b style=&quot;&quot;&gt;&lt;br&gt;&lt;/b&gt;&lt;/font&gt;&lt;/div&gt;&lt;div&gt;&lt;font style=&quot;font-size: 10px;&quot;&gt;&lt;b style=&quot;&quot;&gt;Load&amp;nbsp; &amp;nbsp; &amp;nbsp; &amp;nbsp; &amp;nbsp; &amp;nbsp; &amp;nbsp; &amp;nbsp; &amp;nbsp; &amp;nbsp;&lt;/b&gt;&lt;/font&gt;&lt;/div&gt;&lt;div&gt;&lt;span style=&quot;font-size: 10px;&quot;&gt;&lt;b&gt;. &lt;/b&gt;Batch Processing&amp;nbsp;&lt;/span&gt;&lt;/div&gt;&lt;div&gt;&lt;span style=&quot;font-size: 10px;&quot;&gt;. Full Load&amp;nbsp; &amp;nbsp; &amp;nbsp; &amp;nbsp; &amp;nbsp; &amp;nbsp; &amp;nbsp;&lt;/span&gt;&lt;/div&gt;&lt;div&gt;&lt;span style=&quot;font-size: 10px;&quot;&gt;. Truncate &amp;amp; Insert&lt;/span&gt;&lt;/div&gt;&lt;div&gt;&lt;br&gt;&lt;/div&gt;&lt;div&gt;&lt;br&gt;&lt;/div&gt;&lt;div&gt;No &lt;b&gt;Transformations&lt;/b&gt;&lt;/div&gt;&lt;div&gt;&lt;br&gt;&lt;/div&gt;&lt;div&gt;&lt;b&gt;Data Model&lt;/b&gt; : No one&amp;nbsp;&lt;/div&gt;&lt;div&gt;&lt;br&gt;&lt;/div&gt;" style="text;html=1;align=center;verticalAlign=middle;whiteSpace=wrap;rounded=0;" vertex="1" parent="1">
          <mxGeometry x="200" y="310" width="119.5" height="200" as="geometry" />
        </mxCell>
        <mxCell id="QYXpbwsZUJlx9HDoSFY5-50" value="&lt;font style=&quot;&quot;&gt;&lt;b style=&quot;&quot;&gt;&lt;font style=&quot;font-size: 10px;&quot;&gt;Object File&lt;/font&gt;&lt;font size=&quot;1&quot;&gt;: Tables&amp;nbsp; &amp;nbsp; &amp;nbsp; &amp;nbsp;&lt;/font&gt;&lt;/b&gt;&lt;/font&gt;&lt;div&gt;&lt;font style=&quot;font-size: 10px;&quot;&gt;&lt;b style=&quot;&quot;&gt;&lt;br&gt;&lt;/b&gt;&lt;/font&gt;&lt;/div&gt;&lt;div&gt;&lt;font style=&quot;font-size: 10px;&quot;&gt;&lt;b style=&quot;&quot;&gt;Load&amp;nbsp; &amp;nbsp; &amp;nbsp; &amp;nbsp; &amp;nbsp; &amp;nbsp; &amp;nbsp; &amp;nbsp; &amp;nbsp; &amp;nbsp; &amp;nbsp; &amp;nbsp; &amp;nbsp; &amp;nbsp; &amp;nbsp;&amp;nbsp;&lt;/b&gt;&lt;/font&gt;&lt;/div&gt;&lt;div&gt;&lt;span style=&quot;font-size: 10px;&quot;&gt;&lt;b&gt;. &lt;/b&gt;Batch Processing&amp;nbsp; &amp;nbsp; &amp;nbsp; &amp;nbsp; &amp;nbsp;&lt;/span&gt;&lt;/div&gt;&lt;div&gt;&lt;span style=&quot;font-size: 10px;&quot;&gt;. Full Load&amp;nbsp; &amp;nbsp; &amp;nbsp; &amp;nbsp; &amp;nbsp; &amp;nbsp; &amp;nbsp; &amp;nbsp; &amp;nbsp; &amp;nbsp; &amp;nbsp; &amp;nbsp;&lt;/span&gt;&lt;/div&gt;&lt;div&gt;&lt;span style=&quot;font-size: 10px;&quot;&gt;. Truncate &amp;amp; Insert&amp;nbsp; &amp;nbsp; &amp;nbsp; &amp;nbsp; &amp;nbsp;&lt;/span&gt;&lt;/div&gt;&lt;div&gt;&lt;span style=&quot;background-color: transparent; color: light-dark(rgb(0, 0, 0), rgb(255, 255, 255));&quot;&gt;&amp;nbsp;&lt;/span&gt;&lt;b style=&quot;background-color: transparent; color: light-dark(rgb(0, 0, 0), rgb(255, 255, 255));&quot;&gt;Transformations&amp;nbsp; &amp;nbsp; &amp;nbsp;&amp;nbsp;&lt;/b&gt;&lt;/div&gt;&lt;div&gt;&lt;b style=&quot;background-color: transparent; color: light-dark(rgb(0, 0, 0), rgb(255, 255, 255));&quot;&gt;. &lt;/b&gt;&lt;span style=&quot;background-color: transparent; color: light-dark(rgb(0, 0, 0), rgb(255, 255, 255));&quot;&gt;Data Cleaning&amp;nbsp; &amp;nbsp; &amp;nbsp; &amp;nbsp; &amp;nbsp;&lt;/span&gt;&lt;/div&gt;&lt;div&gt;&lt;span style=&quot;background-color: transparent; color: light-dark(rgb(0, 0, 0), rgb(255, 255, 255));&quot;&gt;.Data standardizing&amp;nbsp; &amp;nbsp;&lt;/span&gt;&lt;/div&gt;&lt;div&gt;&lt;span style=&quot;background-color: transparent; color: light-dark(rgb(0, 0, 0), rgb(255, 255, 255));&quot;&gt;. Data Normalization&amp;nbsp;&lt;/span&gt;&lt;/div&gt;&lt;div&gt;&lt;span style=&quot;background-color: transparent; color: light-dark(rgb(0, 0, 0), rgb(255, 255, 255));&quot;&gt;. Data Derived&amp;nbsp; &amp;nbsp; &amp;nbsp; &amp;nbsp; &amp;nbsp; &amp;nbsp;&lt;/span&gt;&lt;/div&gt;&lt;div&gt;&lt;span style=&quot;background-color: transparent; color: light-dark(rgb(0, 0, 0), rgb(255, 255, 255));&quot;&gt;. Data Enrichment&amp;nbsp; &amp;nbsp; &amp;nbsp;&lt;/span&gt;&lt;/div&gt;&lt;div&gt;&lt;br&gt;&lt;/div&gt;&lt;div&gt;&lt;b&gt;Data Model&lt;/b&gt; : No one&amp;nbsp;&lt;/div&gt;&lt;div&gt;&lt;br&gt;&lt;/div&gt;" style="text;html=1;align=center;verticalAlign=middle;whiteSpace=wrap;rounded=0;" vertex="1" parent="1">
          <mxGeometry x="370" y="310" width="119.5" height="215" as="geometry" />
        </mxCell>
        <mxCell id="QYXpbwsZUJlx9HDoSFY5-51" value="&lt;div style=&quot;&quot;&gt;&lt;b style=&quot;background-color: transparent; color: light-dark(rgb(0, 0, 0), rgb(255, 255, 255));&quot;&gt;&lt;font style=&quot;font-size: 10px;&quot;&gt;Object File&lt;/font&gt;&lt;font size=&quot;1&quot;&gt;: Views&amp;nbsp; &amp;nbsp; &amp;nbsp; &amp;nbsp;&lt;/font&gt;&lt;/b&gt;&lt;/div&gt;&lt;div style=&quot;&quot;&gt;&amp;nbsp; &amp;nbsp; &amp;nbsp; &amp;nbsp; &amp;nbsp; &amp;nbsp; &amp;nbsp; &amp;nbsp; &amp;nbsp; &amp;nbsp; &amp;nbsp; &amp;nbsp; &amp;nbsp; &amp;nbsp; &amp;nbsp; &amp;nbsp; &amp;nbsp; &amp;nbsp;&amp;nbsp;&lt;/div&gt;&lt;div style=&quot;&quot;&gt;&lt;font style=&quot;font-size: 10px;&quot;&gt;&lt;b style=&quot;&quot;&gt;&amp;nbsp; &amp;nbsp; No Load&amp;nbsp; &amp;nbsp; &amp;nbsp; &amp;nbsp; &amp;nbsp; &amp;nbsp; &amp;nbsp; &amp;nbsp; &amp;nbsp; &amp;nbsp; &amp;nbsp; &amp;nbsp; &amp;nbsp; &amp;nbsp; &amp;nbsp; &amp;nbsp; &amp;nbsp; &amp;nbsp; &amp;nbsp; &amp;nbsp; &amp;nbsp;&lt;/b&gt;&lt;/font&gt;&lt;b style=&quot;background-color: transparent; color: light-dark(rgb(0, 0, 0), rgb(255, 255, 255));&quot;&gt;Transformations&amp;nbsp;&amp;nbsp;&lt;/b&gt;&lt;/div&gt;&lt;div style=&quot;&quot;&gt;&lt;b style=&quot;background-color: transparent; color: light-dark(rgb(0, 0, 0), rgb(255, 255, 255));&quot;&gt;. &lt;/b&gt;&lt;span style=&quot;background-color: transparent; color: light-dark(rgb(0, 0, 0), rgb(255, 255, 255));&quot;&gt;Data Integration&lt;/span&gt;&lt;/div&gt;&lt;div style=&quot;&quot;&gt;&lt;b style=&quot;background-color: transparent; color: light-dark(rgb(0, 0, 0), rgb(255, 255, 255));&quot;&gt;. &lt;/b&gt;&lt;span style=&quot;background-color: transparent; color: light-dark(rgb(0, 0, 0), rgb(255, 255, 255));&quot;&gt;Data Aggregation&lt;/span&gt;&lt;/div&gt;&lt;div style=&quot;&quot;&gt;&lt;b style=&quot;background-color: transparent; color: light-dark(rgb(0, 0, 0), rgb(255, 255, 255));&quot;&gt;.&lt;/b&gt;&lt;span style=&quot;background-color: transparent; color: light-dark(rgb(0, 0, 0), rgb(255, 255, 255));&quot;&gt;&amp;nbsp;Business Logics&lt;/span&gt;&lt;/div&gt;&lt;div style=&quot;&quot;&gt;&lt;b style=&quot;background-color: transparent; color: light-dark(rgb(0, 0, 0), rgb(255, 255, 255));&quot;&gt;&amp;nbsp; &amp;nbsp; &amp;nbsp; &amp;nbsp; &amp;nbsp; &amp;nbsp; &amp;nbsp; &amp;nbsp;&amp;nbsp;&lt;/b&gt;&lt;/div&gt;&lt;div style=&quot;&quot;&gt;&lt;br&gt;&lt;/div&gt;&lt;div style=&quot;&quot;&gt;&lt;b&gt;Data Model&lt;/b&gt;&amp;nbsp;&lt;/div&gt;&lt;div style=&quot;&quot;&gt;. Start Schemas&lt;/div&gt;&lt;div style=&quot;&quot;&gt;. Aggregatin objects&lt;/div&gt;&lt;div style=&quot;&quot;&gt;. Flat Tables&amp;nbsp;&amp;nbsp;&lt;/div&gt;&lt;div&gt;&lt;br&gt;&lt;/div&gt;" style="text;html=1;align=center;verticalAlign=middle;whiteSpace=wrap;rounded=0;" vertex="1" parent="1">
          <mxGeometry x="543.75" y="300" width="119.5" height="240" as="geometry" />
        </mxCell>
        <mxCell id="QYXpbwsZUJlx9HDoSFY5-53" value="" style="shape=flexArrow;endArrow=classic;html=1;rounded=0;fillColor=#cce5ff;strokeColor=#36393d;" edge="1" parent="1">
          <mxGeometry width="50" height="50" relative="1" as="geometry">
            <mxPoint x="495" y="320" as="sourcePoint" />
            <mxPoint x="533.1800000000001" y="320.40999999999997" as="targetPoint" />
            <Array as="points">
              <mxPoint x="505" y="320" />
            </Array>
          </mxGeometry>
        </mxCell>
        <mxCell id="QYXpbwsZUJlx9HDoSFY5-54" value="" style="shape=flexArrow;endArrow=classic;html=1;rounded=0;fillColor=#cce5ff;strokeColor=#36393d;" edge="1" parent="1">
          <mxGeometry width="50" height="50" relative="1" as="geometry">
            <mxPoint x="135.68" y="310" as="sourcePoint" />
            <mxPoint x="173.86" y="310.40999999999997" as="targetPoint" />
            <Array as="points">
              <mxPoint x="145.68" y="310" />
            </Array>
          </mxGeometry>
        </mxCell>
        <mxCell id="QYXpbwsZUJlx9HDoSFY5-55" value="" style="shape=flexArrow;endArrow=classic;html=1;rounded=0;fillColor=#cce5ff;strokeColor=#36393d;" edge="1" parent="1">
          <mxGeometry width="50" height="50" relative="1" as="geometry">
            <mxPoint x="682.5" y="320" as="sourcePoint" />
            <mxPoint x="720.6800000000001" y="320.40999999999997" as="targetPoint" />
            <Array as="points">
              <mxPoint x="692.5" y="320" />
            </Array>
          </mxGeometry>
        </mxCell>
        <mxCell id="QYXpbwsZUJlx9HDoSFY5-60" value="" style="image;aspect=fixed;html=1;points=[];align=center;fontSize=12;image=img/lib/azure2/analytics/Power_BI_Embedded.svg;" vertex="1" parent="1">
          <mxGeometry x="748" y="180" width="32" height="42.67" as="geometry" />
        </mxCell>
        <mxCell id="QYXpbwsZUJlx9HDoSFY5-61" value="" style="shape=image;verticalLabelPosition=bottom;labelBackgroundColor=default;verticalAlign=top;aspect=fixed;imageAspect=0;image=data:image/png,iVBORw0KGgoAAAANSUhEUgAAAgAAAAIACAYAAAD0eNT6AAAQAElEQVR4AeydB4AU1f3Hv29374BrNGkKFsBoFLAjFv5iSTQxEUVRsHewRI0tRI1GERSxBHuiYgFBICBqIlE5evHuaNJ75+hwcH3b/N9bPITj9m7LzOyU7zHvdnbmvd/7/T5vufnuKzMe8IcESIAESIAESMB1BCgAXNfkDJgESIAESIAEAAoAfgpIgARIgARIwIUEKABc2OgMmQRIgARIwN0EVPQUAIoCEwmQAAmQAAm4jAAFgMsanOGSAAmQAAm4ncCB+CkADnDgbxIgARIgARJwFQEKAFc1N4MlARIgARJwO4Gq+CkAqkjwlQRIgARIgARcRIACwEWNzVBJgARIgATcTuCX+CkAfmHBPRIgARIgARJwDQEKANc0NQMlARIgARJwO4FD46cAOJQG90mABEiABEjAJQQoAFzS0AyTBEiABEjA7QQOj58C4HAefEcCJEACJEACriBAAeCKZmaQJEACJEACbidQPX4KgOpE+J4ESIAESIAEXECAAsAFjcwQSYAESIAE3E7gyPgpAI5kwiMkQAIkQAIk4HgCFACOb2IGSAIkQAIk4HYCNcVPAVATFR4jARIgARIgAYcToABweAMzPBIgARIgAbcTqDl+CoCaufAoCZAACZAACTiaAAWAo5uXwZEACZAACbidQLT4KQCikeFxEiABEiABEnAwAQoABzcuQyMBEiABEnA7gejxUwBEZ8MzJEACJEACJOBYAhQAjm1aBkYCJEACJOB2ArXFTwFQGx2eIwESIAESIAGHEqAAcGjDMiwSIAESIAG3E6g9fgqA2vnwLAmQAAmQAAk4kgAFgCOblUGRAAmQAAm4nUBd8VMA1EWI50mABEiABEjAgQQoABzYqAyJBEiABEjA7QTqjp8CoG5GzEECJEACJEACjiNAAeC4JmVAJEACJEACbicQS/wUALFQYh4SIAESIAEScBgBCgCHNSjDIQESIAEScDuB2OKnAIiNE3ORAAmQAAmQgKMIUAA4qjkZDAmQAAmQgNsJxBo/BUCspJiPBEiABEiABBxEgALAQY3JUEiABEiABNxOIPb4KQBiZ8WcJEACJEACJOAYAhQAjmlKBkICJEACJOB2AvHETwEQDy3mJQESIAESIAGHEKAAcEhDMgwSIAESIAG3E4gvfgqA+HgxNwmQAAmQAAk4ggAFgCOakUGQAAmQAAm4nUC88VMAxEuM+UmABEiABEjAAQQoABzQiAyBBEiABEjA7QTij58CIH5mLEECJEACJEACtidAAWD7JmQAJEACJEACbieQSPwUAIlQYxkSIAESIAESsDkBCgCbNyDdJwESIAEScDuBxOKnAEiMG0uRAAmQAAmQgK0JUADYuvnoPAmQAAmQgNsJJBo/BYAkV1pa2qqkpORG+fqmTN/JtEqmPTL5ZdKYSsmglAz4/4CfAX4G4v4MqGuIupaoa8p38jozRCZ1rWklLz0p31wrAIqLi5uVlZU9Ij/Qc2UrFAohPpevf5LptzK1l6mxTGkycSMBEiABEiCBRAioa4i6lqhrym/ldeYhmdS1plBeewrkNehhdS1KxPAvZRLfc50AkMCPleDf8ng8GzRNe0OiO1MmbiRAAiRAAiRgJoGz5TXoH+paJK9Jb8prUxszK1d1uUYASNBpEvDD8nWJDPxBmRrIxI0ESIAESIAEUklAXYv+JK9NK6QQ+Lt8rR+PM8nkdYUAkF0sp8qL/3wJ9h8SVpZM3EiABEiABEjASgSUEHhOXqsK5DXrFDMcc7wAkDB7yy6WfAnzVJm4kQAJkAAJkICVCXRQ1yx57bq+bieTy+FoASABPii/9Q+XiDJk4kYCJEACJEACdiCQKa9dX5SUlDxmpLOOFQByLOV+CfAtCc+xMcrYuJEACZAACTiTgJA/r8ovsn+OFl6yxx15cZTAeksw6uIvX7iRAAmQAAmQgD0JyC+ySgQYMhzgOAFQXFx8qgT2oWxqx8UmY+JGAiRAAiTgLgIeeU0bKq9t1SYGJg/BURdJCamex+MZJbFwzF9C4EYCJEACJOAIApny2vaFvMal6xmNowSA7Pp/UsLhbH8JgRsJkAAJkICjCHQsLS09OClQj8gcIwDkxf9YCeSvMnEjARIgARIgAccREEI8I691rfUKzDECQHaNqG//6kYKerGhHRIgARIgARKwEoGMcDj8BKCPS44QAMXFxc0kjjtl4kYCJEACJEACjiUgewHu+fmal3SMjhAAXq/3ZkmC3/4lBG4kQAIkQAKOJtBAXvN66RGhIwSA7P5XAkAPHrRBAiRAAiRAApYmIK95t+jhoO0FQGlpaSsJgo/0lRC4kQAJkAAJOJ1AJL6zS0pKWkb2kvhlewEgldAlScTPoiRAAiRAAiRgNwLC4/F0S9ZpT7IGUl1eCHFuqn1g/SRAAiRAAiRgBoGqOsLhcJeq/URfbS8AZOAny8SNBEiABEiABFxDQH75PSnZYJ0gANolC4HlSYAESIAESMD6BA7zsP1h7xJ44wQB0CiBuFmEBEiABEiABOxMoHGyzjtBAGQlC4HlSYAESIAESMDqBKr5l13tfdxvnSAAdH06UtwEWYAESIAESIAEzCeQ9LXPCQLAfOyskQRIgARIgARMJaB/ZRQA+jOlRRIgARIgARKwPAEKAMs3ER0kARIgARJwOwEj4qcAMIIqbZIACZAACZCAxQlQAFi8gegeCZAACZCA2wkYEz8FgDFcaZUESIAESIAELE2AAsDSzUPnSIAESIAE3E7AqPgpAIwiS7skQAIkQAIkYGECFAAWbhy6RgIkQAIk4HYCxsVPAWAcW1omARIgARIgAcsSoACwbNPQMRIgARIgAbcTMDJ+CgAj6dI2CZAACZAACViUAAWARRuGbpEACZAACbidgLHxUwAYy5fWSYAESIAESMCSBCgALNksdIoESIAESMDtBIyOnwLAaMK0TwIkQAIkQAIWJEABYMFGoUskQAIkQAJuJ2B8/BQAxjNmDSRAAiRAAiRgOQIUAJZrEjpEAiRAAiTgdgJmxE8BYAZl1kECJEACJEACFiNAAWCxBqE7JEACJEACbidgTvwUAOZwZi0kQAIkQAIkYCkCFACWag46QwIkQAIk4HYCZsVPAWAWadZDAiSAYFjDgs0V+Gj2Pjz1zU70/qQQF7+5EWcOWodfv7g2ktS+OqbOqTwqryqjytod4apVq/Dyyy+je/fu6Ny5cySp/UGDBmH16tVJh1fdfocOHcAUnYFqAz35J92AJhugADAZOKsjAbcRCIQ0fL+sFPeP3oaz5IX+uo+24KXvd2H0vP0o2FCOTXsD2F8RhsqnktpXx9Q5lUflVWXOfmUdHpA2flheGslrJ45+vx/9+/fHtddei+HDh2PNmjUoKyuLJLU/bNiwyLkBAwYgEAjEHVo0+3EbclkB1QZ68NcXm3nWKADMY82aSMBVBPaUhfD6pD0477X1kYu/EgGlfi1hBiWVGr6TQuK+UdsiNt+YvAd7ZR0JGzSpoLo49+3bF6NGjUI4HI5aaygUwsiRI9GnT5+4RECs9qNWzBMRAonyjxS26S8KAJs2HN0mAasSKPWH8crE3eg2ZCPenb4XReXRL3qJxqBsvjNtLy6Sdbyauxtlss5EbRldTnXv5+fnx1yNyjt48OCY88drP2bDLs0YL3+9MZlpjwLATNqsiwQcTkB1z1/x7ib8a2aRKRdldeF/f0YRVJ0TV5Rajq4akx8zZkzcfqneAtU1XVfBRO3XZdft52Plb3dOFAB2b0H6TwIWIFAZ1ND/f7uguue37gua7lGhrLPvF9vw+JfbUR7Qv8ch0YDGjh1ba7d/NLuqO1qVjXa+6rjKU9uwQlU+vsZHIFb+8VmNJbe5eSgAzOXN2kjAcQS27Q/i2g8349O8fSmPbfzCEtwwtBA7is0XITUFP3v27JoOx3Rs1qxZdeZLxn6dxl2eIRb+dkdEAWD3FqT/JJBCAhv2BHDTp4VYvt2fQi8Or3rptkr0HLoF63bHP5v+cEvJv9u6dWvCRgoLC+ssm4z9Oo27PEMs/PVGZLY9CgCziae6Pi0EUbIE3u0j4Fs/EGnL+yJ9YQ+kzfsN0udcKFPXA/vqmDyn8qi8qgxk2VS7z/qtQ2CtvMD2/GgLlAiwjlcHPNlSFESvj5UIsI4wOeBZ7L+FELFnZk7dCQjhfP4UALp/bCxoUAvAs3cKfKv7RS7uacvugnfjm/Ds/BqieAFQWQgRKgY02W0q80b21bHiBZE8Kq8qkzbvt9LGX6WtqTJv6r9dWZC0a1zaLrv97xy+FWqpn1WD3l0awi2fbUUq5iRUMWnVqlXVbtyvsZSNJU/cFbNAhID5bCPVmvqLAsBU3OZWJoJF8G5+H2kL/iAv3P3khXsKRLgsYSdEuFTamCxt/SVi07vlnxDBfQnbY0F7ElAT/u4asRWbi6wvAtX8hL6jtsEfTPz+A8m00vnnn59w8QsuuKDOssnYr9O4yzPEwt/uiCgA7N6CNfkfKoN30ztIW3gNvFs/MeQirS783sKPZR1XS5HxHhAqr8kTHnMgATXb30pj/nUhXrK1Ei99v7uubIacV3f+83q9cdtWZXr06FFnuUTt12nY5Rli5a8nplTYogBIBXUD6/TsnYq0xb3h3TbMnIuyvPB7t34aqdOzd5qBkdG0FQiou/l9MXe/FVyJy4dhBfswaaX59wlo3749rr/++rh8VZl79+6Ndu3aqd1aU6L2azXKk4iVv91RUQDYvQWr/A9XwrfxjUj3vPBvrzpq2qvwb5N1Pwnv2ueBcIVp9bIi8wio9fUDU/RNWo8o//7tLqgbB+lhKx4bTz75JM4999yYi3Tp0gWPP/54zPnjtR+zYZdmjJe/PphSY8WTmmpZq54EhH8H0pbdDc/2UXqaTciWd/cE6cu9EIFdCZVnIesSeGvqXluM+0cjqG4WpO4aGO28UcfT0tLw/vvv48Ybb4TqWo5Wjzp38803R/L6fL5o2Y44Hqv9IwrywGEEEuV/mBGbvaEAsFmDHeFuxWakrbgfomzVEadSdUCUrYRv2T0QFRtT5QLr1ZmAuvf+5wX26/qvjuGTvH0peYCQukg/9dRTGDduHG699VaorvuMjAyopPZvu+22yLl+/fohnot/VXzR7Fed52vNBPTiX7P12I+mKicFQKrI61CvqNggv23fDUgRoIM5XU2Iyq1SBPSRvlEE6Ao2RcY+ml0E9ZCfFFWvW7VqCOCz/NStXFHj+qrLfvz48VAPnVFJ7T/xxBMxjfnXBaK6/cWLF4MpOgO9+dfVPlY7TwFgtRaJ0R/h3wnfykcggkUxljA/mwjulb0TD0KkYE6C+dE6t8ZASMPIOam7aOpNdrjsyVAx6W2X9kggMQKpK0UBkDr2idesJvytehTqW3biRswpKfw74Fv1JBD2m1Mha9GdwKSVZVBDALobTpHBvWUhTFud+P0wUuQ2qyUB3QlQAOiO1HiDara/sNCYf10Ri7IV8G16s65sPG9RKbv8kAAAEABJREFUAl8tKraoZ4m79dWiksQLsyQJ6EgglaYoAFJJP4G6PXunwLNzfAIlU1vEs+Pf8BTNSK0TrD1uAsGwhllrnfdtefqaMoRkbHEDYQEScBABCgA7NWa4At5NQ+zk8WG+eje8as7NiQ6rlW+SIbCosBIllam5jW4yftdVtrgijKXbOCxVFyeeN5pAau1TAKSWf1y1e7d8ZItx/2hBCf82qLsGRjvP49YjMG9TpfWc0smjgg28fbVOKGnGpgQoAGzScCK4D96dY23ibXQ3vTtGQcUSPQfPWInA6p3OFQDqccZWYk1f3Ecg1RFTAKS6BWKs37NthOw+d8BYbKgcnu2jY4ya2VJNYN3uYKpdMKz+dbsDhtmmYRKwAwEKADu0khaw5cS/aGjVhEDImKKd53HrEFCP07WON/p6om4NrK9FWiOBeAikPi8FQOrboE4P1Ox5J3Wbq1g8+36sM25mSD2B4spQ6p0wyIOSyrBBlmmWBOxBgALABu3k2f2dDbyMz0XP7v/FV4C5U0KgzO+8FQBVIJ1wa+OqWPhqPwJW8JgCwAqtUJsPWghiX0FtOWx5TuzLAzR+A7Nl49FpEiABRxCgALB4M4rSZRDhUot7Gb97IlQCdYfA+EuyhJkEMtKFmdWZWldmOv/8mQqclR1CwBq7/B9gjXaI6oWndGHUc3Y/IYoX2D0Ex/ufXc/r2Biz6vHPn2Mbl4HFRID/A2LClLpMomx96io3uGZPxQaDa6D5ZAm0zPEla8Ky5Y9u6NzYLAudjkUIWOUXBYBVWiKKH6LSuRdJUbkxStQ8bBUCbY9Ks4oruvvRtqn5sa1atQovv/wyunfvjs6dO0eS2h80aBBWr16ddIzV7Xfo0AFM0RmoNtCTf9INaLIBCgCTgcddnX9H3EXsUkBUbrOLq671s52TBYCJsfn9fvTv3x/XXnsthg8fjjVr1qCsrCyS1P6wYcMi5wYMGIBAIP4bFEWz79oPboyBqzbQg3+M1f2czTovFADWaYuaPQk6bwJgVaBayLmxVcVo99ez2tS3ewhR/T/nuAZRz+l5Ql2c+/bti1GjRiEcjr7yJRQKYeTIkejTp09cIiBW+3rG5ERbifK3MwsKAIu3ngg794ElTo7N4h+rmN3rcHQ9ZNUTMee3S8bs+h78ukW6Ke6q7v38/PyY61J5Bw8eHHP+eO3HbNilGePlHy8mK+WnALBSa9AXErAYAZ9H4IK2GRbzKnl3/q9dBrwytuQt1W5BjcmPGTOm9kw1nFW9BapruoZThx1K1P5hRvjmCAKx8j+ioM0OUABYvME0jzndlKnA4OTYUsHTqDq7d8w2ynTK7HbvlGVK3WPHjq212z+aE6o7WpWNdr7quMpT27BCVT6+xkcgVv7xWVW5rZUoAKzVHkd648s88phDjgivc2NzSBNFwmgV3ghPoCSy74RfTTK86Cp7AMyIZfbs2QlXM2vWrDrLJmO/TuMuzxALf7sjogCwegumN7e6hwn7p9VrmXBZFjSHwIQJE3Dn7bfCs/pbcyo0oZabz8lBmteceQ1bt25NOKLCwsI6yyZjv07jLs8QC/94EVktPwWA1Vqkmj9a/eOqHXHOW62ec2OzeytpmoZ3330XTz75JMrLy+Fb9Q1EsMLuYSEj3YNbOje0RRxCmCNSbAEjBU4K4Xz+FAAp+GDFU2W4/vHxZLdV3rCDxY2tGqKas2pt9J///OeIAFBCIHK6cj+8q/8T2bXzrzu7NERjOQRgVgytWrVKuKpYysaSJ2EHXF5Qf7bWA0oBYL02OcwjLeu0w9476Y2WfbqTwnFELNu3b8ftt9+OiRMnHhGPb9loiFL73phK3fr33gsaHRGXkQfOP//8hM1fcMEFdZZNxn6dxl2eIRb+dkdEAWDxFtQyT4bmcd5kOc2bBS3jVxan7y735s+fj+uvvx5Lly6tOfBgJdJ++rDmczY4+vyVzSJDAGa6qu785/XG/0AlVaZHjx51upqo/ToNuzxDrPzjwWTFvBQAVmyVQ30SXmgNOx96xBH7WsMugODHDxb5UcvJ7rzzTuzevbtWjzxb8uBdM6HWPFY8eeu5DXHxiebfz6B9+/YRURUvk969e6Ndu3Z1FkvUfp2GXZ4hVv52x8S/wDZowXDTy23gZXwuhpteEV8B5jaEgFrv/MYbb+C5556L+fazaT8Nhdi71hB/jDDa8eh66HdZUyNMx2RTTaQ899xzY8qrMnXp0gWPP/642o0pxWs/JqMuzhQv/9hQWTOXx5pu0atDCYQbXQDN1/DQQ7be13yNEFY9ALaOwv7Ol5aW4qGHHsJHH30UXzAhP+rN7G+L+QBtGqfhn71bId2XuhndaWlpeP/993HjjTdCdS1Hg63O3XzzzZG8Pp8vWrYjjsdq/4iCPHAYgUT5H2bEZm8oAOzQYCIN4eZ1jwfaIRTlY7j5dYCI/Q8c+KM7gY0bN0J1c06dOjUx2+V7kD797xCV+xIrb0KpppleDL2pJZpnxT8Gr7d76iL91FNPYdy4cbj11luhuu4zMjKgktq/7bbbIuf69euHeC7+VX5Gs191nq81E9CLf83Wfzlq1T0KAKu2zCF+qW7awcO3oKzykIN23fU2QLhFT7t67wi/1R3ObrjhBqxdm1w3vijegvRJT0KUJH6zG6OAtm6Uhi/uOAYnNDXngT+xxqHG9VWX/fjx46EeOqOS2n/iiSdiGvOvq57q9hcvXgym6Az05l9X+1jtPAWA1Vqkmj/qUZ/qD8bQYeMwbGKg2ln7vQ216O2o4Qy7tYB6MM3999+P4uJiXVwXJdtQb8pTEHvX6GJPDyNqzH/0Xerin6aHOdoggSQJWLc4BYB12wZFRUVQM7O/++67iJfvfuPH5l3hyL4df2npLRFqeYsdXbe9z4FAAM8++yyef/55BINBfeORwwH1Jv0FPgvcKKjXWTkYJb/5W6HbX1/ItEYC+hOgANCfqS4Wt2zZgltuuQULFiw4aK+8UsPAEf6D7+22M3b+iQiLenZz2/b+Fkkhee+990bGmI0KJqN+Gt6+7VT8q3dLHNPI/PkdarLfBze2wot/aJbSCX9G8aVd+xKwsucUABZsnVWrVkUmCq1bt+4I7ybOD2LkZPsNBajhi6denYAHH3xQt+7nI+DwwBEE1GepV69eKCgoOOKcXgdatGiBTz75BJdddhku+VUm/nd/G9zftTEy043/85KZLvDg/zXGhPtap2Sdv14MaYcEUkHA+P+hqYjKxnXm5eVBLQVSt2SNFsbAkZVYuiEU7bTlji9eH8agUQdmME6bNg3qgrR69WrL+ek0h6ZPnx75LG3evNmw0E4//XSMHj0ap5xyysE6GqR58OglTTD1keMiF2cj7r2vHun70EWNMe2R4/HIxU1QX9Z50AHukIBlCFjbEQoAC7XP119/jT59+kCtz67NrUrZAdBnSKUt5gNs3hlG3yHl8B8y7Lxhw4bImuiquQ21xcpz8RNQD/BRa/sfeOCBOj9L8Vv/pUSPHj3w8ccfo2nTpr8cPGSvUQNP5OI869Hj8M9eLfH7U7OQXT/xPzk5suyV0oYaZpgpbT7UrQkayjoOqZK7JEACcRBI/H9jHJUwa90Ehg0bhqeffjrmCVrb94Zx12sV2L1fq9t4inIo3+58vQI7io70UT1xTt3t7OWXX4455hSFYatqKysrodabq7v7hcPGTBhVN0xRTwt84YUXoNaf1wUozStw6UmZePO6FpjzxPEYd09rPPXbplAT9s49vgGObZwWuZCrfCqpi7o6du5x9SN5nr68Kb6UZQpk2SHShhpmUPnqqpfnSSDVBKxev8fqDjrdP7XG/8UXX8SgQYOgvrnFE++6bWFcP6AcG3cceYGNx44RedVqhRtfKsd66WM0+yre4cOH45577qnzHvTRbPD4LwR27NiB22+/Hd98880vB3XeUzdOefPNN3HXXXclZNnrEeh0dD3ceV6jyIS9z287GpMeOhZznzwBy55pG0lqXx37/PZjInnu6NIIammfKptQpSxEAiRQIwEKgBqxmHOwao3/F198kXCFm3aEcdPL5Viy3jpzAhbLMf9eUpgogRJLYGqCmnoK3aJFi2LJzjw1EFi2bBnUrWaNZHjsscdCfVYvuuiiGjzgIRIggcMJWP8dBUCK2mjfvn24++67occ4uBoOuEFecD/7IZCiaH6pdtSUAHoNKKux2/+XXEfuqUmPt912G9RT6Y48yyO1EZgwYUJk1ci2bdtqy5bUufPOOy9y8W/btm1SdliYBEjAOgQoAFLQFmqNv5rpP2/ePN1qV5PsXhxRib5DKrB1r/kPPlGT/e59oxx/+7TysAl/8QSoekTUU+nUzWrUjWviKevGvGoI5d1334W6U2R5eblhCHr27In33nsPOTk5htVBwyTgNAJ2iIcCwORWUuuy1cNAalrjr4crq3a3QvnJwxBqdTvgzdDDZK02SiuAd7724/fPlGPKQn2GIdTtam+66SZs3bq11rrdfFJNolQT8ZQAUELACBZqsp+aUKhEWSIPqDHCJ9okARLQjwAFgH4s67QUyxr/Oo3UkqFTp04YMWIEWh/bHqHWfRHo9CVCR99pyL33SyrT8NZ4Py5+ohRDvvSjwq/vRMSlS5dCzQvIz8+vJWJ3nlLDJWqy38SJEw0D0KhRI3zwwQeReQWGVULDJOBYAvYIjALApHaKdY1/ou5ccsklUGu/GzdufNCE5muI0DH3InD6fxA8cTDCTS6F5s06eD7eHc2bLW1cJm29ivQLJqPJ6X9FaaVxt33du3dvZIWAiiteX52af/78+RFhpASSUTGeeOKJkfH+zp07G1UF7ZIACViAAAWACY0Q7xr/eF265pproNZ9N2jQoOaiIg3hRl0RbDcAgTO+R+CUoQi2eRjhZldDyzkTqHeMFAZyfFfmg0yaV+7LY+HsMyN5gm0ekWU+lmW/kzZelLYuBIQPamx46NChaNasGYz6UcskVWxqnFt1extVjx3sqgmS6uFQu3fvNszdrl27Qn1eW7dubVgdNEwCTidgl/goAAxsKXXxSnSNfyxuCSFw//33o3///lDjtbGUgfBAyzwF4Za9ETy+HwInvQt/p7EInPk9/GdPj6TIvjwWPPndSJ5wy16yzK+hyqLazxlnnBGZuX/OOedUO6Pv22+//Rbq4UibNm3S17ANrKnPkRJBaizeyMmRamLqO++8g6ysxHuJbIAzpS6qOUDq5lfdu3eH6mFRSe0PGjQIetweu7r9Dh06gCk6A735p/TDlUDlFAAJQIuliN/vj8zOVuumY8kfbx51wVcXBCUA4i2rd/4mTZrgww8/TPjmMLH6s2LFClx33XWYNGlSrEVsn0/dFvqhhx6KDO8YFUx6ejoGDhyIfv36wePhnwQjOKu/B0qoX3vttVA3v1qzZg1Uj5ZKal/1uqhzAwbIXrpAIG4XotmP25DLCujF/3Bs9nnH/+0GtJWea/xrck/dje3tt9+OXAxrOuLZqbMAABAASURBVJ+KY0qQqFnp6ptM1KEIHRxTF8SHH344MuRh1K1udXBTFxMbN25E7969MXXqVF3s1WREDd98+umnuOqqq2o6zWM6EFAX5759+2LUqFGo7TOrenpGjhwZeR5IPD09sdrXIRRHm0iUv52hUADo3HpGrPE/1MWjjjoK6tGraqz20ONW2b/yyisNH0NWy97UxMA//elPjn208KxZs3DDDTdg7dq1hjXtySefHFk10rFjR8PqoGFEbvMdz2oWlXfw4MExo1OiW5WJuQAz1kpAsYyHf3VjdnpPAaBja6nxNyPX+Ldp0wafffYZTjnlFB291t+UurCooY/zzz9ff+OHWJwqvxn36tVLl7HTQ8ymfFfdB+G+++4zVNxcccUVEaHWqlWrlMfrZAfU3wTVnvHGqHoL1NBAXeUStV+XXbefj5W/3TlRAOjUgmat8Vf3Y9fJZUPNqHXk6u5xao6CkePKTnq0sOr2/dvf/obnn38eqjvSiAYSQkTmaqhvOEYO1Rjhux1tqpUbtXX7R4tJtb8qG+181XGVJxH7VeX5WjOBWPkfWdpeRygAdGivVKzx18Ftw02oeQFKAKinxxk5s1xN5Hn88cehZler/7iGB2ZABUVFRbj33nvx5ZdfGmD9gEk1d0StJlBzNYQQBw7yt6EEZs+enbB9NQxUV+Fk7Ndl2+3nY+Fvd0YUAEm2oJq9+/TTTyMYDCZpqebida7xr7mYpY5269YtcmOZdu3aGeaXmhegZlerBywZuU7eiABUN64aylBPRTTCvrLZokWLyNyRyy67TL1lMolAMrezLiwsrNPLZOzXadzlGWLhXx2R3d5TACTYYuqbpuXW+CcYixnFjj/+eKgZzr/5zW8MrU5dRNUthBctWpRQPWEthML9K5C/aTy+Xf4Whs/rh/dm3403pvXGK5OvwStTronsq2PqnMqj8qoyqmy8lU6fPh1q/f3mzZvjLRpz/tNPPx2jR4+2/NyRmANySUYh2EuTyqYWwvn8KQAS+ISpZTfqznRqolsCxessorrOrbLGv05n48iguqBff/11qC5oFWMcRePKqu6VH8+jhUPhIFbsnI1xiwZGLu6fznkcuas+wk+F32NT0RIUlW9HRbAEIS0IlVftq2PqnMqj8qoySiSMW/QSVu78MZKvNqc1TYus7X/ggQegljbWljeZcz169MDHH3+Mpk2bJmOGZRMkkMwky1jKxpInQdddXyx+tvZDRgEQZ5u5cY1/nIhqzS6EiExCUw+aUTcQqjVzEieVSFMiSk2oU5PrajJVFtiHqWuH4a2Zt0Yu/koE+EPlNWWN6Zgqu2LnLIxdNCBic9ra4SgP7D+ibGVlJdRT9tR4vFETuJTAUkLrhRdeQFpa2hE+8IA5BJJZCXPBBRfU6WQy9us07vIMsfC3OyIKgDha0O1r/ONAVWdWdQtO1S2tblNaZ+YkMqglWKqL/dCxUn+wHJNXf4L3Zt2NWetHy4t0cRI11Fy0PFCMmetH4d1Zd2HKms/gD1VEMu7YsQO33347vvnmm8h7I36pnhY18fKuu+4ywjxtxkFA3d1PibE4ikSyqjKq9ybyppZfidqvxSRPSQKx8pdZD2523KEAiLHV1EQtrvGPEVaM2Vq2bAl1Fzo10THGIgllW7JkSeQJeuoGH6p7/oP8+/HjxrEHL8oJGY2xkLrwz94wBh/k3Y9J8/+NG2+8EYnOT4ilSrVMVA1NXXTRRbFkZx6DCbRv3z7y2Yu3mt69eyOWSbOJ2o/XH7flj5W/3blQAMTQglzjHwOkBLPUq1cv8jAj1V1vZFf1/pIivD/hL5Hu+f0VuxL0NvFi+yt2Im/vp2j7mxB86cb8tzvvvPMiqy3atm2buKMsqTsBNV/o3HPPjdluly5doJa1xlogXvux2nVrvnj5H+Bkz98ee7ptntdc428O6549e2Lo0KFQ96bXu8aMRl5c/ujROLFr6p9yd8I5WfjNIy2R0dCna5iKn7rxUk5Ojq52aSx5AkrYvv/++5HeH9W1HM2iOqeGq1Reny/2z0es9qPVy+MHCCTK/0Bpe/6mAKil3bjGvxY4BpxSjxZWt+BUy9b0Mp91lA+/eehoND4mXS+TSdtp0roefvvnVshpnvzkPPVHS00oVD0o8Vw0kg6CBuIioC7Sqp3GjRsHNZSouu7VXA2V1L5ataLO9evXD4m0YzT7cTnpwsx68bcrOtsJAK1bN1/ZxV3OLbn0nMeKL+38Af76MLR7boR24x+h9fiNTL89sC+PRc69/SowfjSwYhkQCsXUTlzjHxMmQzI1b948Mi/gLh0msOW0SMMVjx4DJQIMcTYJo5lNpDB5pBWykxAB6nbLajWFmleQhCssaiIBNa6vuuzHjx8PNSdFJbX/xBNPxDTmX5er1e0vXrwYTNEZ6M2/rvax2nlbCACt5ynpZZd0vkZe8MeVesv2hD3hHwHxqgDu1pYsBLZvBUpKAHU3vmDgwL48Fjn3/X+hDX0P2hP3S2FwFfDSc8CPM2RemQ9H/qjlY+o/qJpIdeTZ5I+ob2zq29r999+fvDGHWlCM1BI29ZSzRO9Xn9HIh4vva4l6Wdb9iNfP8uKyB1tB+RpvU5544omR8X61miLessxPAiSgJwH72rLuX0fJtPh3ZzQrvqzzi6V7sgrDAuPkBf8aeThbpsS28jJos6dBG/g3aLddB234UGD/voO2uMb/IApL7Fx55ZWRJ9a1bt06Ln+8aQLd+rRAlvyWHVfBFGRW8xMuuqc5PD756Y6x/q5duybEJUbzzEYCJOASAh4rxrmjW7eskks7vyz8aeuEhqelj/rfxqx4PzB6GLS7e0P77ANsXbc2ckvWefPmyer034466ih88sknUH+89bfuXIuJPFr4rB5NLTXmX1frNGlTD2dd06SubJHzapLYO++8g6ys1E9ojDjEXyTgcgJ2Dt9yAqD00s5XZ3jLlkqof5EpUyZjt4py4N8j4Hnobpywo9CQutq0aYPPPvuM92JPkK4a61Yz3NWwicdT+0e2zWmZOPGCxDuJEnQx6WK/6pqDYzpkRLWTnp6OgQMHQk0Sq4tBVCM8QQIkQAKHEKj9r+khGY3e1bp1q19y6blDNEA9D7WN0fVVt99cdjUMaZGDgc2z0cATe3dsdTvV33fq1AkjRoyAukFL9XN8HzsBNS9ACQB1h7to33596R6ceU1s36Rjr9m8nOf0bApfvSP/S6qlkeqGSVdddZV5zrAmEiCBGAjYO8uRf21SEE9Zt3Nbl3rLfgS0h1JQ/WFV/jGrPj5t1QjNfd7Djify5pJLLok88KVx48aJFGeZGgh069YtMvlNzXaufrrD5Q1tMe5f3e+q95mNfTj1Nw2r3kZeTz755IiA7NixY+Q9f5EACZCAXgRSLgCKLjmrnebVpsiATpPJEtuv6/kw7OiGOD4tcRGgbm+rHvaS6Cx2S4CwqBPHH3/ko4XrZXpx0kWHXzwt6n6tbp18UQ7qZXoiea644orIZD83PJUsEjB/kYDNCNjd3QN/aVIUxf7fnnWyD97ZGtAuRS5ErfZo2QPw6dGNcFycIkAIAdVV3b9/f6hu66gV8ERSBNQNPF5//XWo5YKK868vzoEvXb+hm6ScS6KwTw4BnNytYeSJiYMHDwYFZBIwWZQESKBWAikTAGWXnHeMJ+SdAIFmtXqYwpNNvB58JEVAS19smNQdvF588cWIAEih266pWggRuVC+/c5b+FVX+3/7r2q40y9vhYce/hOEsL+gqYqJryTgPAL2jyi2K5vOcaoJf2ER+q80e7xMlt5aSBGgJgfW9eVSfSN966230L17d0vH40Tnmp/kQ1oD51wsgyjH2j1zndhUjIkESMBCBFIiAEq8pUMkg9NkssV2Sr00PNE0K6qvXOMfFY0pJ5ZsU1NITKnKtEqcGJNp8FgRCZhAwAlVmC4A1C19BcS9doPXK6cBumWkH+E21/gfgcTUA2EthHV7FphapxmVrd0zH2EtbEZVrIMESMClBEwVANofz8oIC7xuV9ZPHZWNjEPuEcA1/qlvya37V8EfKk+9Izp7UBksxfbiNTpbpTkSIAF9CDjDiqkCoLTM+6zEZvlxf+ljjVsrnwd3NTpwtzau8a8RkekHt+xfbnqdZlW4qWiJWVWxHhIgARcSME0A7L+0c1MBPGB3xjfLoYCb/vgHcI2/NVpyV+lGazhigBe7y7YYYJUmSYAEkiXglPKmCQB58X9UA6LPpLMJUTUE0K/jSVzjb5H22uPgi+SecgoAi3zM6AYJOJKAKQJA63mKWkXXxzEEv/0KCAYcE46dA9lfudvO7tfq+/6KHbWe50kSIIFUEHBOnaYIgJK9mX+QyJrK5Ixt/z5gboEzYrF5FJWBUptHEN39yqDzJjdGj5ZnSIAEzCZgigCAJm42OzDD65v6g+FVsIK6CQTCFXVnsmmOgANXN9i0Keg2CRwk4KQdwwWA1q2bTwCXOgmaikWbPwcIc522YsFEAiRAAiRgPwKGC4ByX/nZEkuOTM7aSkuAtaucFZMNo0nz1Leh17G5nOZtEFtG5iIBEjCJgLOqMVwAhLXwBc5C9ks02pKFv7zhXkoI1EvLTEm9ZlRaz0cBYAZn1kECbiVguAAAxK/h1J/Nzl2Dbpcmy6nnnLml1Znn1G9e/RDfkwAJpJCA06o2XAAI4CSnQauKR2zZXLXL1xQRaJLROkU1G19t04xjjK+kWg2rVq3Cyy+/HHmqZefOnaGSesLloEGDsHr16mq5+ZYESMDOBAwXABrg2L/Q2s7tdm57R/jeNKONI+KoKQgzxY3f70f//v1x7bXXYvjw4VizZg3KysoiSe0PGzYscm7AgAEIBHgPjJrai8ecTsB58RkuACSyHJmcuZWXOTMuG0XVppFzR5iObXSqKS2hLv59+/bFqFGjEK5lZUsoFMLIkSPRp08figBTWoaVkICxBMwQALa//W/UJijnjVqisjHpRMvs9kh34Gz5er5MNM9qCzN+VPd+fn5+zFWpvIMHD445PzOSgBMIODEGMwSAE7kxJosQ8AgvTmhyhkW80c+Ntk3PhEcY/99TjfmPGTMmbsdVb4EaGoi7IAuQAAlYhoDxf2GAEstEq7cjDRrobZH2EiBwastuCZSydpFTW5gT09ixY2vt9o9GSQ0HqLLRzvM4CTiLgDOjMUMA7HcmOhlVgwz5i1uqCbRveg4apGWn2g3d6s9IawjVA6CbwVoMzZ49u5aztZ+aNWtW7Rl4lgRIwNIEDBcAAnDsWjnRrIWlG9ctznk9Ppx5zO8dE+6ZrX8Pr/CZEs/WrVsTrqewsDDhsixIAnYi4FRfDRcAYWC5U+Fprds4NTTbxXVOm+5Id8Cd89K99XF26z+Yxl8t9Uu0smTKJlony5EACehHwHABIHsAlunnrsUsHXOsxRxyrztqCOCsY8y7cBpF+pw2V8vhDOeunDWKG+2SgHEEnGvZcAHgCXtmOhWfOLWTU0OzZVwXHH8UX8keAAAQAElEQVQDGjaw77BMTv1m6HLctbZkT6dJgATsR8BwAdBAqz9XYnHeRMDMLKBtexkaN6sQSPPWw2Xt77aKO3H7cflJ90ENAcRdkAVIgAQMI+Bkw4YLADFlSlBoYqLTIIozzgE8huNzGjbD4/lVsy4445jfGV6P3hWc3fqPUKsZ9LZLeyRAAiQQjYApVzABbXg0B2x7vNtltnXd6Y5fduLdaJFtzl309GDZKvtEXNz+Dj1M0QYJkICuBJxtzBQB0KBpyX8lxt0yOWPLaQSc2dkZsTgwCp8nHdd3es4W8wEaNWiB6057Bj5PmgNbgiGRAAlYmYApAkCMWerXNPGelUHE5duV3QGfOeu04/KLmQ8SyKrXBL1Oex4Z6Q0PHrPajvLteuljVnoTq7lGf0iABAA4HYLHrAA1of1DOOG2wPUbQFx5jVnYWE8SBJpkHIPbznoVjTOOTsKKMUXVaoVbzhyEptJHY2qgVSsREOFSeHZ/D9/6gUhbeifS5l+B9DkXIr2gS3JJ2lC2lE3f+pdkHT9AhPmUUiu1vZV9MU0A5OTm79agvWVlGDH51r0nkGPdb5UxxeCiTI0atMTNZ7yEltntLBO1GvO/9axXoASKZZyiI8YQqNgI37oB8oJ/JXxrn4Vn59cQpUshgkWAFky+TmlD2VI2PTu/knX8Tdb1e/jWDQQqNiVv39UWnB+8aQJAoczMCL8oX9fLZM+tWQuIa3vZ03cXe62GA245azDOaXNVyimcfvQVuPmsQWC3f8qbwlgHwpXwbnwT6Yt7w7PrGyBcYWx9h1qXdXl2fR2p27tJfueSvhx6mvskUEXAVAEgvplbJoR4pKpyu72K+6TrcgjAbn7TX0Qm2V124j24rtPf0LB+c9ORqMl+PU97Fr87+YGIL6Y7wArNIyC/eactvQPe7SMALWRevdVrkr0D3m2fI23FAxCBXdXP8n0dBNxw2mN2kJkT877SBN43u95k6xN/6AGc3SVZMyyfYgInHtUZ95z7Ls4//nqk+xoY7k26twEuOL4X7u78Dtf5G0479RWIspVIW3YPRPna1DvzsweiZDF8S++UPq3++QhfSOAAAdMFgKo2K5jxZ/k6XyZ7bO1PAu7oYw9f6WWdBNQdAy9qewvuP++jyMW5QVpOnWXizZCR1hAXntAbD1wwFP/X9iaoOuO1wfw2IyC/+ftWPHRgfN9irgv/DvhWPip7ApyzGttYxO6wnhIBIKZMqRCeNPXkFuvPB2jRCuJvA4C0dHd8IlwUpXqAkLo4/+mCT+XQwDP4dfMLUc+XmTCB+r4s/LpFV2nrb3jwwk/Q9YQboY4lbJAF7UNAjrOnrXnKkhf/KogREbDqMUD6WnWMr+4m4ElV+Jk/zCwMh8NXyPp3yGTNrWEj4O+DgMZNrekfvdKFgNfjw4lHnYurO/wFj3QdgdvPfh2Xtr8LasLesY07Qq0kUBdylU8lta+OHduoQyTPpSfeHSnzcNfPcfWpT0pbneEVPl18oxF7EPBu/idE2SrLOytKl8O79TPL+5lqB91Sf8oEgAKcM3nOCh/C5wkB6w1OtWgJ8fKbEMe0Ua4yuYSAR3jQKudEdD726siEvZvOGIj7zvsAf/6/kXiy25eRpPbVsZvOfCmSp3Ob7pEyqqxLMDHMQwlUbIR3x6hDj1h637t9JIcCLN1C5jmXUgGgwqyfO2ctRNpFgDZPvbdEkmP+4pW3AV78LdEcdIIErEzAt3WY/POVwtn+8cIJlcFb+FG8pVyU3z2hplwAKNRqOCAzfe/5gHgTqf65/A8Qg6Qb7PZPdUuwfhKwPIHIHf72/GB5P6s76Nk9gXcMrA7Fhe8tIQAUdzFhdWVWbt7DQtPU3Vo2qGOmJjXZ79mXIB54DJzwZyp5VkYCtiUg9s4Ewibe5EcvUqFyiCLpu172HGTHTaF4rBZs5qSCbzIzQqdoAgMEUGK4fw0aADfcCvH2x+A6f8NpswIScBQBT/Ec28bj2T/Xtr7TcX0IWE4AqLDUHQOzJ+Y/I0fVjtcg+stj+t/GKqcR0Ps2iI9GQdx0B1CvnqyGGwmQAAnETkCUWW/+cqzei3L7+h5rjPHnc1cJSwqAqiZQDxDKzs17NrNJyTEi7OkuBMbIc0UyJbZlZUFceDHEMwMgPhkD0ft2ICs7MVssRQIkQAKVW+zLoMLGvtuXuqU8t7QAqCIlxiz1Z07+8evMifnXZzY57igBrTMEHtWg/Ut0OB1oefSBC7kvDVBJXdTVsQ6nAZf/AbjrAYjX34cY/hXw5LNA5/NlPq7TruLLVxIggcQIiJB9H72rJjAmFrVzS7ktMo/dAhZjxoQycwsKsibmv5GdW9AHA9+A+NfnECO+hhj3/YGk9tWxgf+ITOoT3a8D2p8EeGwXrt2ah/6SgLsIaAH7xhv229d3eq4LAV4RdcFIIyRAAiRAAvYm4D7vKQDc1+aMmARIgARIgARAAcAPAQmQAAmQgOsJuBEABYAbW50xkwAJkAAJuJ4ABYDrPwIEQAIkQAJuJ+DO+CkA3NnujJoESIAESMDlBCgAXP4BYPgkQAIk4HYCbo2fAsAWLR+GqNwKUfwTPHsmw7N9NLyb34dvXX/4Vv4ZaUtvR9rim5G+8FqkLbwGafN+I9NlSC/ogpcm/RGvTbseb0zrjX9MvxHvzb4H//yxL4bNfRL/Xtgf/1n2D0xaPRR5G8dh6fZp2LJvOUr9id9s0RY46aT1CJSXQZuaC+3tV6E9dh+0m6+B1uM30K66OLmkbChbyubbr0GbNgkoL7de/PSIBFJAgAIgBdCjVqmFgYpN8OydCu/WT+Fd8xzSltyG9LkXH7iwL+8D35q/wrfxdXn+E3h2/ReefbMhSpcjcl/vyi0HhEKoGCL0y3OU/MFyVARLUB4oRlH5Nuwp24LN+5Zh1a58LNqaKy/+X0oR8DG+WjIYn819Am/OuAWvTr0OH+Q9gC8Xv4yZ67/Ayp0/Rspq0KK6zxMkEC8BbcsmaG++Au3Wa4HXXgS+/y+wajmwvwgIBuM1d2R+ZUPZUja//w/wan9ZVw9obw2GVrj5yPw84kIC7g2ZAiCVbR8qj3yr924bBt+qx5E2/3KkL+oJ3+q/yG/478G75zuIshVAuNJ0LwOhSuwq3YjlO2Zi2trPMXbRgEjvwetTb8Dn856KHFu7Zx4qbXwrVNOhssJfCFRWQhv6HvDgHcDECUBlxS/njN5Tdf3wbaRu7eP3Ab/f6BppnwQsSYACwMxmkRdy9Y1dfYNPW3Ir0udfijT5rd676R14imbIb+3FZnqTUF1+KVo2Fi2K9AqMWvAc3pjWCx/l/wm5qz/Cuj3zEeTtRRPi6qZC6pu36ubH+NFAKJS60FXvwJejoD39Z2Dv7tT5wZpTSsDNlVMAGNz6IlgE7+4J8K15Gmnzfw81Zq/G8EXZSkB1+Rtcv9HmNU3DjpL1yN84Hl8seBZqnsGYn17A3M3/RXHlLqOrp327EVi7CnjyT8DGddbxfMXSyLwDrF9rHZ/oCQmYQIACwADIwr8T3m3Dkbb0DnnR/x28a5+HZ08uRLjUgNqsZVINHazeXYDvV76Pd2bdiWHz/oKCTV+jpHKPtRylN6YTiHzzf/ZJYL8c3ze99joq3LUT2gv9ZE8AP6d1kHLYaXeHQwGgV/ur7n15kY+M5S+8Gt5Nb0OULpPW3TtpTvUObC5aiomrPpBi4A58Pu8pLN42GUokSDDc3ERAjbMP+rs1L/5V7aBEQP+/ApXmz7mpcoGvJGAmAQqAJGmLkiXwrX8JaQt+H+nmV2P50FI4rplkPEYVD8vhDjV34Julr+OtGbdiwvJ3sL2YXa5G8baaXW34R8C6NVZz60h/Vq+ENnbEkcd5xJEE3B4UBUBCn4Aw1IXet+JPSFt2Fzw7v4IIOb97PyFUNRRSKwcWFP4PQwsejiw7VCsNlECoISsPOYCAWuqHb8baJhLx1RgOBdimtehoMgQoAOKhFyqTF/vxSFvUC6qr37O/IJ7SzFsDAXXjIXWvgX/+eG9kroA/ZOJysBr84SEDCIwdmdrZ/nGGpKkbBX3xWZylmN1+BOgxBUAMnwER2h9Zl5/20x9ld//LEBUbYyjFLPEQKCrffmCuwMw7MGPdF1DLDeMpz7wWJVBeBkyfbFHnorulTf4evGNgdD484wwCFAC1tWOoHJGb9PzUA+rOfOzmrw2WPufUHQunr/sc78y8E9PXjaAQ0Adryqxo+bMBdeOdlHmQYMUV5dDmSN8TLM5i1idADwEKgJo+BVrw567+nvBuekeO75fUlIvHDCSghMCMdSMjdx9UywhDsk0MrI6mjSKwaL5Rlo23u9DGvhtPhzU4gAAFwGGNqMG753s5xt/zQFd/YNdhZ/nGfAJl/n2RoYEP8x7Ash0zwB+bEbDDzP9oSHljoGhkHHCcISgCFACKgkpyXN+34hF41zwL9eQ9dYjJOgT2lBVi/OJBGDH/Gews3WAdx+hJ7QS2b639vJXPbiu0snf0jQSSJkABEK6Ad8uHSF9yMzz785IGSgPGEtiw9ycMzX8Yk1d/whsKGYtaH+tlZfrYSYUVO/ueCl42qpOuHiDgagHg2TtZdvffAG/hhwAfYnPgE2GD32EthB83jsWH+Q9ivRQENnDZvS4GA/aNPcCnBNq38eh5LARcKQDUbH7v2r/Dt/qvEP7tsXBiHgsSKCrfhi/m/w0Tlr/NxxJbsH3oEglYkwC9qiLgOgHg2T8HvsW94d39vyoGfLUxAQ0aFhR+hw/zHsTGosU2joSukwAJkIC5BNwjAMKVkSV9vhUPyW/9O8ylzNoMJ7C/YidGzH8qsmIgFA4aXh8rIAESsCcBev0LAVcIAFG+BmlL74jc1EcO9v8SPfccRUDTtMjthIfP6wc1PAD+kAAJkAAJRCXgeAHg2fMD0pbdDVG+NioEnnAWgcL9K/BR/kNYufNHZwXGaEiABJIkwOKHEnCuANDCB7r81zwLhMoPjZn7LiCgniUwbtHAyHJB1TPggpAZIgmQAAnERcCRAkA9vMe38pGfu/y1uIAws3MIqAmCarngvxf15yoB5zQrIyGBhAmw4OEEHCcARNkqpC25HZ79+YdHyneuJbB6VwE+m/M49lVw8qdrPwQM3FACqsdtybap+Hb5W/hkzqMYMv1mvDL5Grw06Y9JJWVD2VI21XLfpdun8QFhOrakowSAp3gufMv6ApW8haeOnxFHmNpVugmfShGwdf8qR8TDIEjACgR2l23Bf5e9iTdn3IKvl76Knwq/h/o/VhbYBz0e4KVsKFvK5oLC7/DVksGRur5d/ibU7cHjY8Dc1Qk4RgB49k6Fb+WjEOHS6jHyPQlECJT690aWCq7alRd5z18kQAKJEQiEKpG76iOoh3Qt3PqDqbflVnX/VPhDpO5Jqz9GkHdxTawRZSlHCADPjrGRu/ohXClD4kYC0Qn4QxUYt2ggFm3NjZ6JZ0iABKISUN+8P53zGPI3jUdYC0XNZ/QJSEvLxwAAEABJREFU1TuQt3GcFPVPo8S/p87qmOFIArYXAN5tw+DbMFhGFpaJGwnUTSCshWW35RD5B+yrujMzBwmQwEEC24vXYtjcJy31RM4t+5bjk4LHsKNk/UE/uRMbAdsKAE2DCEzpNMS76Z3YImUuEjiEgFohkLvqQ8xY98UhR7lLAiQQjYD65v/FgmehxuSj5UnV8eLKXRj90/NQw3w1+8CjNRGwrQAITun4EqA9VFNQPEYCsRKYvu5zTF83ItbszEcCriSgxtm/XPyyJS/+VQ1yQAS8YOp8hKq67fpqSwEQmNzhRQj8xa7Q6be1CMxYNxKzN/zbWk7RGxKwEIGpa4bJLvZ1FvKoZle2Fa/GjxuP/L9cc24etZ0ACEzu+AyEeJpNRwJ6Epiy5lPkbRyvp0naIgFHEFBL/eZs/sY2seRv+opDATG2lq0EgH9yp0cg0D/G2JiNBOIiMHn10MijheMqxMwk4HACP24Ym9LZ/vHi9QfLq83tideCe/LbRgD4p3S8Qwjtdfc0DSM1m4CaGPjdinexahfvImk2e9ZnTQL+UDmW7ZhmTedq8Wrxtkm8Y2AtfKpO2UIABKZ06iqA96TT8kX+5kYCBhFQSwS/WvIKCvevMKgGmiUB+xBYtTPflpPq1P0+Vu+aEwHNX9EJWF4AVEzv2BbQxsoQ6snEjQQMJ6DuNDZ24UA+O8Bw0qzA6gQ2FC20uotR/duw176+Rw1K5xOWFgDarFOaeEOYIGNuJhM3EjCNgLqzmFpXXBkqM61OVkQCViOwo8T6M/+jMdtZqm4MFO0sjysClhUA2pyz0oIB72jp5K9k4kYCphPYVboRXy95FZqmmV43KyQBKxAoKt9uBTcS8mFv+daEyrmpkGUFQKg08CY0XOqmxmCs1iOgHiU8a8Mo6zlGj0jABAJ+G/eA+YNlMAGRrauwpAAITunYU37r6mtrsnTeMQTUnQLX7OaEIsc0KAOJmUAoHIw5r9UyBsMBq7lkOX8sJwAqcju0kx2uH1iOFB1yLQEpRuVQwGuwc3eoaxuPgbuYAEOvi4ClBIAa9/d6xXDpdEOZuJGAZQhUBEswfskghDT7fiOyDEw6QgIkYAkClhIAweJK9VzfLpYgQydIoBqBrftXYdZ6NS+12gm+JQESsBwBOlQ3AcsIgODUTldBCD7dr+42Y44UEpi5/gts3LsohR6wahIgARLQh4AlBID2w1kN5Tgr7/SnT5vSioEE5OcU/1k+BLw/gIGQaZoEkiZAA7EQsIQACKX535DOHi0TNxKwPIF95dsxefXHlveTDpIACZBAbQRSLgACU069WANuB39IwEYEFmz5DrzVqI0ajK66igCDjY1ASgWANuesDAGPWvLHh/yAP3YiUPXkwGDYbye36SsJkAAJHCSQUgEQLPH3l9/+2x30hjskYCMCu8u2YOZ63iXQRk1GV11BgEHGSiBlAsA/rdOZ0smHZeJGArYlkLdhHHaXbbat/3ScBEjAvQRSJgCEpr0isXtl4kYCtiUQ0oL4fuU/bes/HScBpxFgPLETSIkACE7q2J0P+om9kZjT2gTW71mANbvnWttJekcCJEAC1QiYLgC0yd18mgcDq/nBtyRgawK5qz7kbYJt3YJ03hkEGEU8BEwXAAGx6z7p4CkycSMBxxBQ8wDmb5ngmHgYCAmQgPMJmCoAtMmnNxLAs87HygjdSGDW+jEIhCrdGDpjJgFLEKAT8REwVQAERfAJQBwF/pCAAwmU+vdi3pb/OjAyhkQCJOBEAqYJAO3H9jmAuB/8IQEHE5i94d/wh8odHCFDIwGrEqBf8RIwTQAEKzP+JJ1rJBM3EnAsgfJAMQo2fe3Y+BgYCZCAcwiYIgC0ycfXh6Y96BxsjIQEohPI3zhe9gJURM/AMyRAAroToMH4CZgiAAIi6x7pWkuZuJGA4wlUBEuwaGuu4+NkgCRAAvYmYLgA0OaclQZ4HrM3JnpPAvERyN/0JcJaOL5CzE0CJJAgARZLhIDhAiBUUtlLQDsuEedYhgTsSqCofDtW7pxtV/fpNwmQgAsIGC4ANIi+LuDIEEngCAIFmzkZ8AgoPEACBhCgycQIGCoAKqd2+LV063yZuJGA6whsLlqKHSXrXBc3AyYBErAHAUMFgEfz8Nu/PT4H9NIgAgu3TjTIMs2SAAkcIMDfiRIwTABos85rAGg3J+oYy5GAEwgs3JrL2wM7oSEZAwk4kIBhAiAUKO0peTWRiRsJuJZAZbAUq3b96Nr4GTgJGE2A9hMnYJgA0DTt7sTdYkkScA6BBYU/OCcYRkICJOAYAoYIAG1yp9aS0IUycSMB1xPYVLQIpf4i13MgABLQnwAtJkPAEAEQ8OBa6ZSQiRsJuJ6AuiHQih0zXc+BAEiABKxFwBABIDSth7XCpDckkFoCy3bMSK0DrJ0EHEiAISVHQHcBoM3s1Fy6dIFM3EiABH4msGnfEhRX7v75HV9IgARIIPUEdBcAgYB2tQzLKxM3EiCBnwlomoZVu/J+fscXEiCB5AnQQrIEdBcAQrD7P9lGYXlnEli7e54zA2NUJEACtiSgqwDQvuuUCU1cbEsSdJoEDCawYe9PCIYDBtdC8yTgDgKMMnkCugqAYP2wGvtPT94tWiAB5xHwhyqwZd9S5wXGiEiABGxJQFcBAPDbP/hDArUQWLN7bi1neYoESCA2AsylBwF9BYCmXaKHU7RBAk4lsF4OAzg1NsZFAiRgLwK6CQBtxknZgDgT/CEBEohKYGfJelSGyqKe5wkSIIG6CTCHPgR0EwChQNpF0iWfTNxIgASiEFB3Bdy6b2WUszxMAiRAAuYR0E0AaB6PEgDmec6aSMCmBDZxIqBNW45uW4MAvdCLgG4CAJp2tl5O0Q4JOJnApiKuBHBy+zI2ErALAf0EAHCaXYKmnySQSgLb9q+CJv+l0gfWTQJ2JUC/9SOgiwDQcn99nHSpsUzcSIAE6iCgJgHuL99RRy6eJgESIAFjCegiAELCd7qxbtI6CTiLwI7S9c4KiNGQgCkEWImeBHQRAJpXowDQs1Voy/EEdpRQADi+kRkgCVicgC4CAJrg+L/FG5ruWYvAztIN1nKI3pCADQjQRX0J6CMAgJP1dYvWSMDZBHaVbHR2gIyOBEjA8gT0EgDHWj5SOkgCFiKwr5KTAC3UHHTFFgTopN4EkhYA2rQzmkmnMmXiRgIkECMBf7Ac5YH9MeZmNhIgARLQn0DSAiAQCqglgPp7Rosk4HACReXbHR4hwyMB/QjQkv4EkhYAHs1DAaB/u9CiCwgUlW9zQZQMkQRIwKoEkhYAmkejALBq69IvSxPYX7nL0v7RORKwDgF6YgSBpAUANI0TAI1oGdp0PIEy/z7Hx8gASYAErEsgaQGgCdHUuuHRMxKwLoHyICcBWrd16JmVCNAXYwgkLQAEtIbGuEarJOBsAuWB4pQHmJaWlpQPZWVlSZVnYRIggdQRSFoAQIic1LnPmknAvgTKLLAMMDMzuRW8W7dutW8D0HObEKCbRhFIXgBogj0ARrUO7TqaQLk/9UMAOTnJ6fdZs2Y5uo0YHAk4mUDSAkAOAST3F8TJdBkbCdRCIBj213LWnFPHHpvcHN6xY8ciFAqZ4yxrcSUBBm0cgaQFgAawB8C49qFlBxMIhgMpj65t27ZJ+bB69WqMHj06KRssTAIkkBoCSQsA6XaGTNxIgATiJBCygADo2LFjnF4fmf2VV15BXl7ekSd4hASSJkADRhLQQwAY6R9tk4BjCYS01PcAnHvuuRBCJMU4EAigb9++GDFiBIcDkiLJwiRgLgE9BIAcBTDXadZGAk4gYIUegCZNmkCPXgAlAgYOHIgePXrg008/hRoa4BJBJ3xKUxsDazeWgEcH8xQAOkDU24TmOwGB2R3Q7x8lTBZl8OSQEr2bPSF7V111VULlaiq0Zs0aDB48GFdffTU6d+6Mjmt32jp16NABtaVf3VECO6faYlPnPn9oHeycVAzJJPUZ7t69OwYNGhQRtTV95u18zKOD82EdbNCETgQ0bysEl5wB//PbEZ64RierNGMIgSRvwqOXT7/73e+QkcGpPHrxpB29CKTejurFUqJ22LBhuPbaazFgwACo3q7Ue6aPB3oIAPYA6NMWSVnRfE0RWH8W/AOKERq3HAizWZICakZhj9eMWuqso2HDhujZs2ed+ZiBBNxMQC13HTlyJPr06eMYEaCHAGAPQAr/V2jebAR3nAP/KyGEhy0FAqEUesOq4yJgkR4A5fPtt9/OXgAFgskyBKzqSH5+fmSYy6r+xeOXHgKgNJ4KmVcnAqIeQvvPQuBt+frPxUBppU6GacY0AhYSAM2aNcMDDzxgWuisiATsTGDUqFFQQwN2jkH5rocA2KMMMZlEQHgRrjwT/o+bIjhkKbRd1F8mkde/msws/W0mYfHmm2/GKaeckoQFFiUBvQhY244aDhg7dqy1nYzBu+QFgAAFQAygk88iEAp3hP/fxyLwyjJom/Ymb5IWUkpAZGantP7qlXu9Xrz22mtI9gFB1e3yPQk4kYATnoORvADQKACM/nCHPSfD/78TERywGtrSbUZXR/smEdCyrNUDoMJu06ZNZMmTEgPqPRMJpIKAHeosLCy0g5u1+pi0ABCaYA9ArYgTP6l52yIw81QEnt8ArWBT4oZY0poEMjIt6Ve3bt3w3HPPJX2HQEsGR6dIgAQOEkhaAGgiTAFwEKc+O5rv6ANr+V/YhvCktfoYpRXrEWjcxHo+/eyRuqPf888/D/YE/AyELyYSsEdVRx99tD0crcXLpAWA/Jqwuxb7PBUHAc13FALrzob/xf1cyx8HN9tmbXqUpV1XImDIkCHIsuBQhaXB0TlXEDj//PNtH2fSAkBAW297CikOQPOotfzywv9KEOHhS7iWP8XtYVr1TZuZVlWiFanhgDFjxnB1QKIAWS5uAnYooHrG1J0B7eBrbT4mLQDCmsY+6toI13Yuspb/bATeUmv55YWfa/lro+W8cxbvAagCriYGqjugPfHEE7xZUBUUvrqaQO/evdGuXTvbM0haAKSla7zhfLwfA+FDuOIM+IeqtfxLoO3hWv54ETohv2jW3DZhqG88t912G7799lvcfjvvGmibhrOdo9Z3uEuXLnj88cet72gMHnpiyFNrFnH+UjUJkIvSa6VUdVIcWMs/pjUCg5dD20xsVWRc91qvPmCDIYDq7XLUUUdF/vhNnDgRzzzzDE4//XQIIapn43sScBwBJYLVzbLef/99+Hw+R8SXtAD4mQKHAX4GEe3lsLX8y7ZHy8bjbiFw9DGQV07Y9ScnJwe9evXC8OHDMW3atMgNhFQPQdeuXXH88cejUaNGSE9Pt2t49DtFBKxWbUZGBtq3bw/12R43bhz69evnmIu/Yk0BoCgYmDTvCQjM4lp+AxHb0rQ4po0t/a7J6caNG+Pyyy+HmiPw3nvv4T//+Q9mzJiBefPmYfHixUxkYNvPgHrwz/jx4yOfbSeM+TYbXa4AABAASURBVFf//6uXAFhW3bDb32u+1gguPB3+F7YjnMsOErd/HqrHrx3duvohvicBlxNg+GYT0EUACCHmmu24VeuLrOVffxb8LxYh9NUKIKxZ1VX6lUoCbU9MZe2smwRIgASgiwDwBikADlvLP2wpEAjx40UCUQmIdhQAUeHwhCsJMGjzCegiAMSlP22Rrm+VyX0b1/K7r82TjTgzC2jeMlkrLE8CJEACSRHQRQBEPBCYF3l1yy+1lr9cjvEPbYzgEK7ld0uz6xJn2/aw8woA8IcEdCdAg6kgoJ8ACIs5qQjA/DrFgbX8o49B4NUV0DbvM98F1mhvAiefam//6T0JkIAjCOgmAATCjhcAYc+p8E9oj+CA1dCW73DEB4BBmE9AnNLR/EpZIwlYmABdSw0B3QSAF74ZMoSgTI7bflnLvxbanM2Oi48BmUhAyP9y7AEwETirIgHHEqhMNjL51yhZEwfKi4sXFMk9R/UCaL5jEFxyBtfyy4blphOB408A1CRAnczRDAnYnwAjSJBAcYLlDhbTTQBELApMjLza/Jfma4rAWnnh71+E0Ljl4Fp+mzeohdwXnc6wkDd0hQRIwMYE1JfupNzXVwAAPyTlTYoL/7KWP4Tw5/LCHwyn2CNW7zgCZ3Z2XEgMiASSIcCyCRNYlXDJnwvqKgB8TUM/SrslMtlr89RHaP/ZCLxVD6F/LgFKkx5asVf89NYcAvXqAad0Mqcu1kICJOBoApqmrUw2QF0FgOiw1A+Bqck6ZVp5tZa/8kz4P+JaftOYu7miDqcDSgS4mQFjJ4HDCPBNogQ8Hs/sRMtWldNVACijmib+q16tnTwIBU9H5RdHI/DKMmibkx5KsXa49M4aBM7uYg0/6AUJkIDdCWjhcHhKskHoLgDSPN5/S6eCMllyC3tOPrCW/6UVwMqdlvSRTjmQgPBAnNfVgYExJBJInABLJkygICsra3vCpX8u6Pn5VbcX8X/z1VU1aWWim0M/G9K8bRGYcQoCz2+ANmfTz0f5QgLmEBBq7X+TpuZUxlpIgAQcTUAIMUyPAHUXAMopDRitXq2QNF9rHFjLvw3hyeus4BJ9cCEB7Xx++3dhszPkWgnwZIIEyoLB4BcJlj2smCECIM0LNQzgP6wmk99o3qMQWHMG/C/s5Vp+k9mzumoEVPf/+f9X7SDfkgAJkED8BDRN+1dOTs6u+EseWcIQASC6Ltorq5okk+mb5s1BcMfZ8L/iR3jEciAUNt0HVkgChxHoeDrQrMVhh/iGBNxOgPEnRKDU4/G8mlDJGgoZIgBUPXKMYqR6NS1pKA0VHrcmMMR3YC1/WcC0qlkRCdRGQFx6RW2neY4ESIAEYiIgv/2/mJGRsSWmzDFkMkwAeNMyx8j698hk9BbQCj3T/UPqlwY/2tFO21tudH20TwIxExANGkDrcmHM+ZmRBNxBgFEmQGBhZmbm6wmUi1rEMAEgzp+trsSfRK05+RPh8G6RX/lO/e3+j+p11YpF8+RN0gIJ6EtA63oplAjQ1yqtkQAJuIxAaTgc7iV71nWdW2eYAFCNEwpp78pX3QfhtTIxL/BJ/ZWBd+t3xh7RWtbBjQQsSUD87ipL+kWnSCCVBFh3XATC8sJ/e3Z29rK4SsWQ2VABUP/SxWukD/o9IbBSLA6MSl/gf63+meFN4mRpmxsJWJaAOLUT0O5Ey/pHx0iABKxPQF78H5Xj/mplne7OGioAlLdCw3vqNZmkBbE2/F3a7MrB9U8Nr/SenowtliUBswhov+9uVlWshwRsRICuxkhAkz+Py4v/kBjzx53NcAHg3XnyNxqwMW7PVIEwNoempM3wv9zg+EC+7zxoEOowEwlYnsBRzSHO49p/y7cTHSQBaxIokd/8r8/KynrNSPcMFwDi+jEhQIs3iD3Bn7xT/YPqHxWc7rtQXvgN99NIyLTtQgLdewI+nwsDZ8gkUDsBnq2TwMJQKHSO/OZvSLf/obV7Dn1j1H6aVvIvabtQprq20tBK79TKVxr4Ql+nX6QFRf26CvA8CViOQFY28NsrLecWHSIBErA0gTLp3fPywt85Jydnudw3fDNFAIiL11dAaLWtXzywlv8f9UuDo9IvQiVyDI+cFZCAQQTEH6/l0j+D2NKs3QnQ/xoIlMmx/iGyy/9XmZmZf5evlTXkMeSQKQJAee7LrKcmA+5Q+4eksLbbk+9/l2v5D2HCXTsTyMgE/tjDzhHQdxIgAeMJaLKKfHmxf0h29x8nx/ofkd/8dbvDn7Qd02aaABBnzy2DwMFeAK1MzAsMrbfK/269ztpuruWPqbWYyfIExDXXA2oIwPKe0kESMJ+AC2tUN+7ZIy/0K2Ts/5Pf9P8h93uFw+GW8tv+ufKi/5bs7tflwT7SftybaQJAeeYLh95BqZju/zx9kV+t5d/iOUkdZyIBhxDYVfbR8Bz5H1swZZJBJhnw/0FmPcmgqbzQnyxffye/6f9Z7o/Kzs6u3huekj+BpgoAcfHSksrXGozT1no7piRaVkoChhLQXm42c2axoVXQOAnYlgAdtxoBUwWACj5zX/Ad+bpSJm4k4BgCckBvbWYoU322HRMTAyEBEnA2AdMFgJg7N+DR0M/ZWBmd2wh4NTwupkypcFvcjJcEYiXAfNYjYLoAUAgyJuV/CQ1T1T4TCTiAwOTIZ9oBgTAEEiAB9xBIiQBQeDVf+EH5GpCJGwnYmUAQEI+APyRAArUQ4CkrEkiZAMj+fs5iCeQNmbiRgJ0JvJGVm7fQzgHQdxIgAXcSSJkAULgzM0LPy9d1MnEjATsS2FgWynjBjo7TZxIwkwDrsiaBlAoA8c3cMgE8ZE009IoEaicgwuK+5lOmlNSei2dJgARIwJoEUioAFJLM3Pz/yNfPZOJGAjYiIIZnTs771kYO01USSBEBVmtVAikXAAqMX4RUL8BGtc9EAjYgsCVYmaY+szZwlS6SAAmQQM0ELCEAmkycuw8I3yVd1GTiRgJWJiA/o9rdjWbM2GtlJ+kbCViFAP2wLgFLCACFJyt3zkQB7V21z0QCViUgNLydlVvwP6v6R79IgARIIFYClhEAyuGM9L2PAdo8tc9EAhYksDCj3PsXC/pFl0jAogTolpUJWEoAiAmrK0Mh3w0S2H6ZuJGAZQgIoCQcDl8vZs8ut4xTdIQESIAEkiBgKQGg4mg4ZfZqCNyn9plIwCoENA335kyeo57pbRWX6AcJWJ4AHbQ2AcsJAIUra2L+CAjtH2qfiQRST0AbkjUpf2Tq/aAHJEACJKAfAUsKABVeZuPjH5evnGwlIXBLIQENuZmhTPVZTKETrJoE7EiAPludgGUFgBgzJhTyeW+SY69rrA6R/jmWwLpwONRLTJkSdGyEDIwESMC1BCwrAFSLNPxu9p6wN3y13C+SiRsJmEdAYK8G8YecKXN3mVcpayIB5xBgJNYnYGkBoPCppwZqmtZd7lfKxI0EzCDgh9B6ZufmLTWjMtZBAiRAAqkgYHkBoKBkTyqYpkG7Te6HZeJGAkYS0ADtrqwfCnKNrIS2ScDZBBidHQjYQgAokNm5BaPkH+Yn1T4TCRhGQBOPZuUWDDfMPg2TAAmQgEUI2EYAKF7yD/NrmsDzap+JBPQmIIT2t6xJeVx+qjdY2nMdAQZsDwK2EgAKafbE/L/L10EycSMBPQm8njmx4EU9DdIWCZAACViZgO0EgIKZmZv/V6HhLbXPRAJJE9DwRlZu/mNJ26EBEiABAIRgFwK2FAAC0DIn5T+kQfS3C2j6aVkCg7Im5T9qWe/oGAmQAAkYRMCWAqCKRXZu3rPQ0K/qPV9JIE4Cg7Jy8/n5iRMas5NAbQR4zj4EbC0AFGb57W2Q7BBQt2rV1HsmEoiBgAaBR3nxj4EUs5AACTiWgO0FgGqZrNyC1zQhesr9Cpm4kUBtBPzy4n9z1sT8N2rLxHMkQAKJEGAZOxFwhABQwLMn5o2VX+t+L/d522AJgVuNBIo0j/bbLPW0yRpP8yAJkAAJuIeAYwSAarLs3LzJmjfcVQPWqvdMJFBFQABrNIgLsn8omFp1jK8kQAL6EqA1exFwlABQ6NWzA8I+7zmAmAj+kMABAtPC6YHzpEDkvf0P8OBvEiABEoDjBIBqU/UUwcxQg98B4k3wx+UEtCGZoYxLsyfM3+lyEAyfBAwmQPN2I+BIAaAaQUyZEszKzXtYE9q18j3nBUgILtuKIXBTVm7BI+qz4LLYGS4JkAAJ1EnAsQKgKvLsiQXjQh7RWb5fIBM3dxBYqoW18zjZzx2NzSitQYBe2I+A4wWAapKGP+Stkt3A5wlo78j3mkzcnElAExDvyrY+K3tywRJnhsioSIAESEAfAq4QAAqV7AauyMwteBAQlwPYLBM3ZxHYLjSte2Zu3gOqrZ0VGqMhAasToH92JOAaAVDVOFm5eT8EK9M7QcOIqmN8tTsB7YuQz3tK5qSCb+weCf0nARIgAbMIuE4AKLCNZszYmzUp/yYRFlfK9+tl4mZLAlqhBtEzK7egt1r5YcsQ6DQJOIAAQ7AnAVcKgKqmypyc921mRuhUOXD8vDwWkImbPQiENWj/Kq9IPzk7N+/f9nCZXpIACZCAtQi4WgCophDfzC3Lnpj/d4RxDqBNUceYLE1gGjzaWdm5BX2azZxZbGlP6RwJuIIAg7QrAdcLgKqGy5qc/1NWbsHFQtOuEsCaquN8tQyBTRC4LTM3v1vWDwVc0mmZZqEjJEACdiVAAVCt5dREsoz0PafKw49BA+8eJ0GkeNst6/9LZijjV1kT8z+T4kyT77mRAAlYhADdsC8BCoAa2k5MWF2ZlZv/eqav4gQpAvrJLLyToIRg5iYv9CWyvkGBkL+9bItXuLRP0uBGAiRAAjoSoACoBab4fmFp1qT8QcHK9LZCw98BqG+j8oWbgQT2aBD9gz7vcfLC36/xlAUUXwbCpmkSSI4AS9uZAAVADK2nlg1mTsp/PtNbcRwgHgGwUSZu+hLYplZj+EWobXZu3rNc1qcvXFojARIggeoEKACqE6nlfaRHIDdvSGZRqL0GrZfMOl0mbkkQEJqYCYGbJNNj1WqMJhPn7kvCHIuSAAmYSIBV2ZsABUAC7Sfmzg1k5xaMysrN/z9AnKYB/wSwXyZusREoPsBMnJY5Ke/CrIn5IxTT2IoyFwmQAAmQgB4EKACSpJiVm7cwOze/b2Yoo4Wm4Xpp7j8yBWXidjiBsPq2LyD6lIUyjlbMsiS7w7PwHQmQgH0I0FO7E6AA0KkF1Sz17En5Y2SvwB89IXECIB4RwAwAYZncuoV/ZvCY8KS1Ud/2M3Pz/tV8yhQ1w9+tTBg3CZAACViCAAWAAc2QMSVvs/x2OyQzN7+r8IVaa0K7X45zfyurKpPJ6Vu5DPB/8sLfFyHtGMVAiqLXM3+YWSiPcyMBEnAIAYZhfwIUAAa3YeZ3c7dmTyx4T45zXymHCZpCE5dDwxuy2vkyhWSy+yaH87EQQnsVEL+VMTaRF/zfyQv/P7MsTCqUAAAFPElEQVSmFGwDf0iABEiABCxJgALAxGZRwwRZk/K+z5qU/6i8SJ5ZmS6aCC38e3kFHQgNubKXYK+J7iRalZrsOEmD6K98D4T86oJ/WtbEgidkr8cPKsZEDbMcCZCAXQjQTycQoABIYSs2nZC3P3PSnAnZuflPS1FwWdbE/CY+hNvJi2tPDdoLUhSMlu4tkEl1q8sXUzc1XLFQQBsrNPzdo6GH8k1+s28kxcul2bl5zyrfG09ZwBv1mNosrIwESIAE9CFAAaAPR92s1M+ds1ZeXP+dnVvwnBQFN2Tl5p+RmZuf6QmJNuFw+EIpDHoB2uOAeFOm4bLX4FsNmA1ghUwb5fu9kSTfHLIFI8cE9spjm2RaKt/nSTs/AGI4gNfl+0fl+5vDwP8JT9oxst5MmU7LzC24Tt0EKWNS/pf1pW9CZpL5uZEACbiYAEN3BgEKABu0o7roqomFOZPnzJTCYFRWbsFrWbl5D8t0i+w1uDI7N//8rNz8k2U6Tr5vEkm5+UK+r0ppkWOyh0EeO1amU+X7Llm5Bb/Nys27JSs3/zH5/o2s3ILPc3Lzp3PCng0+FHSRBEiABJIkQAGQJEAWJwESIAF3EWC0TiFAAeCUlmQcJEACJEACJBAHAQqAOGAxKwmQAAm4nQDjdw4BCgDntCUjIQESIAESIIGYCVAAxIyKGUmABEjA7QQYv5MIUAA4qTUZCwmQAAmQAAnESIACIEZQzEYCJEACbifA+J1FgALAWe3JaEiABEiABEggJgIUADFhYiYSIAEScDsBxu80AhQATmtRxkMCJEACJEACMRCgAIgBErOQAAmQgNsJMH7nEaAAcF6bMiISIAESIAESqJMABUCdiJiBBEiABNxOgPE7kQAFgBNblTGRAAmQAAmQQB0EKADqAMTTJEACJOB2AozfmQQoAJzZroyKBEiABEiABGolQAFQKx6eJAESIAG3E2D8TiVAAeDUlmVcJEACJEACJFALAQqAWuDwFAmQAAm4nQDjdy4BCgDnti0jIwESIAESIIGoBCgAoqLhCRIgARJwOwHG72QCFABObl3GRgIkQAIkQAJRCFAARAHDwyRAAiTgdgKM39kEKACc3b6MjgRIgARIgARqJEABUCMWHiQBEiABtxNg/E4nQAHg9BZmfCRAAiRAAiRQAwEKgBqg8BAJkAAJuJ0A43c+AQoA57cxIyQBEiABEiCBIwhQAByBhAdIgARIwO0EGL8bCFAAuKGVGSMJkAAJkAAJVCNAAVANCN+SAAmQgNsJMH53EKAAcEc7M0oSIAESIAESOIwABcBhOPiGBEiABNxOgPG7hQAFgFtamnGSAAmQAAmQwCEEKAAOgcFdEiABEnA7AcbvHgIUAO5pa0ZKAiRAAiRAAgcJUAAcRMEdEiABEnA7AcbvJgIUAG5qbcZKAiRAAiRAAj8ToAD4GQRfSIAESMDtBBi/uwhQALirvRktCZAACZAACUQIUABEMPAXCZAACbidAON3GwEKALe1OOMlARIgARIgAUmAAkBC4EYCJEACbifA+N1HgALAfW3OiEmABEiABEgAFAD8EJAACZCA6wkQgBsJUAC4sdUZMwmQAAmQgOsJUAC4/iNAACRAAm4nwPjdSYACwJ3tzqhJgARIgARcToACwOUfAIZPAiTgdgKM360EKADc2vKMmwRIgARIwNUEKABc3fwMngRIwO0EGL97CVAAuLftGTkJkAAJkICLCVAAuLjxGToJkIDbCTB+NxOgAHBz6zN2EiABEiAB1xKgAHBt0zNwEiABtxNg/O4m8P8AAAD///3jwrUAAAAGSURBVAMAO4uJWYTeKv0AAAAASUVORK5CYII=;" vertex="1" parent="1">
          <mxGeometry x="766.25" y="204" width="36" height="36" as="geometry" />
        </mxCell>
        <mxCell id="QYXpbwsZUJlx9HDoSFY5-62" value="Bi &amp;amp; Reporting" style="text;html=1;align=center;verticalAlign=middle;whiteSpace=wrap;rounded=0;" vertex="1" parent="1">
          <mxGeometry x="730" y="240" width="90" height="30" as="geometry" />
        </mxCell>
        <mxCell id="QYXpbwsZUJlx9HDoSFY5-64" value="" style="shape=image;verticalLabelPosition=bottom;labelBackgroundColor=default;verticalAlign=top;aspect=fixed;imageAspect=0;image=data:image/png,iVBORw0KGgoAAAANSUhEUgAAAgAAAAIACAYAAAD0eNT6AAAQAElEQVR4AeydBXwURxvGn40bECA4RHAo0kKdQmlLjSIVXIq7FXd3d3eKt7gWSosUqWDFIYEEl+Bx22/fo+ELELm7nb3bu3vz28nd7c68885/73afHXUC/zGBlwgULlw4c+GAgHIF/QtWK+Qf2LpwYOCQQgEB8woFBG4rGBB4XHm9o4QkJcgcAplBADNwwN9BbOGAwBNKWFgwMLC+cglxVgJvNkaABYCNnTCt3C1WoEBe5YfcrqB/4C9yfEK4DOmoJCVtgYS5sozBgNQKQFUJeB1ATiUob5X/vDEBJuCIBNxkoKwSmksyVioC6ECh/IUKOyII2y0zwALAls+eSt+LBASUUJ7u+xb2D/wzwcn5uvJDniVJ+Ewx66oE3pgAE2ACxhJ4D86JJwv7BzUyNgHHsz4BFgDWPwcW9SB//vyeylN+b0WxX0iCdFZ5uh8lS3hbcUJSAm9MgAkwAXMJeMmSvKxgQEBzcw1wOssRoJxYABAFxwjO9MN0d3a5pDzlj1GKXFQJvDEBJsAERBJQLi/SArrWiDTKtrQhwAJAG666slqQOvMFBJ6UIC1UHMunBN6YABNgAloRYBGgFVlhdp8ZYgHwjINd/i8SGPiOUt2/z9CZD3jNLgvJhWICTECPBFgE6PGsvOQTC4CXgNjDR2rnLxQYuDRJxhHlV1jJHsrEZWACTMDmCCiXH24O0ONZS/aJBUAyCTt5LZyvcH6lnf8PyPjeTorExWACTMB2CbAI0PG5YwGg45NjqmuFAwLek10S/lbSlVMCb0yACTABPRBgEaCHs/Dch/+/YQHwfxY2/U6p8m8qQ/pdKURuJfDGBJgAE9ATARYBejob//nCAuA/EDb84lwwIGiiUuW/WCmDuxJ4YwJMgAnokQCLAB2clZQusABIScPG3pcvX961UEDgZglyNxtznd1lAkzAMQmwCNDReWcBoKOTYaorj8LDZyppqiqBNybABJiArRBgEWC1M/VixiwAXuRhM58KBQR1xLMFesB/TIAJMAEbI8AiQAcnjAWADk6CqS4U9Pf/BEiabGo6js8EmAAT0BEBFgEWPhkvZ8cC4GUiOv9cuECBQk6S01pAcgH/MQEmwARsmwCLACuePxYAVoRvataFCxfOLDs5b5aBbKamNTd+wUKF8O13tdC6bVv0GzAQE6dMxZIfl2Pj1m3YtG07B2bA3wE7+w7MmjvP3MuFuelYBJhLzqR0r0ZmAfAqE73ukRAfv0JxrqQSNNucnJxQ9vXX0b5jJ6xYvQbzFy1Gh86dUbd+A3zy6ad4/Y03UMDfH5kyZYKPjw8HZsDfATv7Dnh6eWl2fUnHMIuAdOBodYgFgFZkBdstFBhYR4ZUTbDZ5+ZcXFxQ8+tvsGbdekyaOg3f1a6N3HnyPD/Ob5gAE2ACGhNgEaAh4NRMswBIjYrO9pUvX94VMkZq4ZYkSaj80UdYtOxHdO7aFdmyWax1QYvisE0mwARsm4ByReIFhCx1ClkAWIq0inwe3XvQVkleSAlCN3+lKn/m3LkYOGQo8uXLJ9Q2G2MCTIAJmEmARYCZ4NJOlvoRFgCpc9HN3mLFimWCJA8U7dA7776LmXPmolix4qJNsz0mwASYgFoCLALUEjQiPQsAIyBZM0pCTEwvJf8cShC2UYe+kaPHwMvbW5hNNsQEmAATEEyARYAgoGmZYQGQFhkd7A8ICMgDSN0g6E+SJPTu288wpE9y4lMvCCubYQJMQDsCylWL+wRohZfvAlqRFWDXRZKGKGaEjclp3rIVPvviC8Ukb0yACTABmyHAIkDVqUo7MQuAtNlY9UhgYKAvZDQT5cQnVaqgQaNGosyxHSbABJiAJQmwCNCANgsADaCKMOkky18pdlyVoHorXqIEevTuo9oOG2ACTIAJWJEAiwAz4KeXhAVAenSse+xrEdl7enpi6IgRcHNzE2GObTABJsAErEmARYBA+iwABMIUZapw4cLuEiCksb523Xrw8xM6iEBUMdkOE2ACdkrAxycTypV/U6vSsQgwmmz6EVkApM/HKkeT4uOrAJIPVP75Zs2KOvXqqbTCyZkAE2ACphFwdnZCpy7dWASYhs3isVkAWBx5xhkqT/9Cqv8bf98E1ASQcY4cgwkwASYglgCtL8IiQCxTU61lFJ8FQEaELH9cOSdSdbXZ5s6dG9Vq1FBrhtMzASbABMwmwCLAbHQWSajcbCySD2diJIFC/v7vKVFzKUHV9tEnn4B+fKqMcGImwASYgEoCdB3imgCVEM1KnnEiFgAZM7JsDEl6V0SGFT6oKMIM22ACTIAJqCbAIkA1Qk0MsADQBKv5RmU45TU/9bOU2bNnB439f/aJ/zMBJsAErE+ARYBlz4ExubEAMIaSBeNIkFULgPc/+ACSJFnQa86KCTABJpAxARYBGTOyZAwWAJakbUResgzVAuDtd4S0IhjhLUdhAkyACZhGgEWAabzMi21cKhYAxnGyWCxJUl8DkCdPHov5yxkxASbABEwlwCLAVGLaxGcBoA1XFVYl1TUA2f38VOTPSZkAE2AC2hNgEaAdY2MtswAwlpQF4hUsWDCLko2XEszeXF1dkTlzZrPTc0ImwASYgKUIsAiwFOnU83FKfTfvtQYB58REfvq3BnjOkwkwAasRYBEgGr3x9lgAGM9K85hJgOrGexoCqLmjnAETYAJMQCABFgECYZpgigWACbA0jypJqtfspR+S5n5yBkyACTABwQTo2sUzBqqHaooFFgCm0OK4TIAJMAEmoBkBFgGaoU3VMAuAVLHwTibABJgAE7AGARYBaqiblpYFgGm8ODYTYAJMgAloTIBFgMaA/zPPAuA/EPzCBJgAE2AC+iHAIsD0c2FqChYAphLj+EyACTABJmARAiwCtMXMAkBbvmydCTABJsAEVBBgEWAsPNPjsQAwnRmnYAJMgAkwAQsSYBGgDWwWANpwZatpELh08SK2bNqECWPHon2b1mjdojkHZuAQ34HuP3TBvDmzsW/v77h//34avxDenRYBFgFpkXm235z/LADMocZpTCYQHn4P/Xr3QttWLTFl0kTs2L4NF86fR0hwMAdm4BDfgRPHj2PNqlUYNngwGtWra3iflJRk8m/JkROwCBB79lkAiOXJ1lIhQE88LZo0wZ9HjqRylHcxAccjEBcXZ6gN6NKhA+7eueN4AFSUmEVAavDM28cCwDxunMpIAmGhoRg9YgQiIiKMTMHRmIDjEDh79gxGjRgOmWsCTDrpLAJMwpVmZBYAaaLhA2oJUPXmuDGjER8fr9YUp2cCdkvg1L//Yt3PP9lt+bQqGIuA/5M19x0LAHPJcboMCfyyYwfOnzuXYTyOwAQcncDC+fPx5MkTR8dgcvlZBJiM7IUELABewMEfRBI4eeKESHNsiwnYLQHqE0CdYu22gBoWjEWA+XBZAJjPjlNmQODCeX76zwARH2YCzwlcunjh+Xt+YxoBFgGm8UqOzQIgmQS/CiUQGxODa9euCbXJxpiAPRMICQmx5+JpXjZHFQFqwLIAUEOP06ZJwN3DAz4+Pmke5wNMgAm8SCBbtmwv7uBPJhNgEWAaMhYApvHi2CYQKFqsmAmxOSoTcGwCRYoWdWwAgkrvWCJAHTQWAOr4cep0CBQrXiKdo3yICTCBlASKFGXBnJKHmvcsAoyjxwLAOE4cywwCn3/xBdzd3c1IyUmYgGMRKFO2LAIDAx2r0BqX1hFEgFqELADUEuT0aRLIX6AAmrdsmeZxPsAEmADg4eGBXn36QpIkxiGYAIuA9IGyAEifDx9VSeC7WrVR9vXXVVrh5EzAPglIkoQOnTojT9689llAHZTKfkWAergsANQzZAvpEJCcnDBuwkQ0btIEzs7O6cTkQ0zAsQjkypUb4yZOQtVq1Ryr4FYoLYuA1KGzAEidC+8VSMDF1RVNm7fAzDlz8WHlj0AXPoHm2RQTsBkCdCMqUrQo6tZvgAVLlqBc+fI247utO0rsO3XppjB/U6uiKPU50oKCAQHNtcogpV0R71kAiKDINowiQBe+QUOHYuXatVi3aTMmTJ6CMePHc2AGDvEdIAG8decvmDN/AVq3bQsvLy+jfjccSRwBFgEvsmQB8CIP/mQhAr6+vnijXDm89fY7HJiBQ3wHipcoAVelNsxCPzHOJg0C9iEC0iicibtZAJgIjKMzASbABJiAbRNgEfDs/LEAeMaB/zMBJsAEmIADEbBlESDqNLEAEEWS7TABJsAEmIBNEXB0EcACwKa+ruwsE2ACTIAJiCRgeyJAXOlZAIhjyZaYABNgAkzABgk4qghgAWCDX1Z2mQkwASbABMQSsBURILLULABE0mRbTIAJMAEmYLMEHE0EsACw2a8qO84EmAATYAKiCehbBIgtLQsAsTzZGhNgAkyACdg4AUcRASwAbPyLyu4zASbABJiAeAJ6FAGiS8kCQDRRtscEmAATYAJ2QcDeRQALALv4mnIhmAATYAJMQAsC+hEB4kvHAkA8U7bIBJgAE2ACdkTAXkUACwA7+pJyUZgAE2ACTEAbAtYWAVqUigWAFlTZJhNgAkyACdgdAXsTASwA7O4rygViAkyACTABrQhYRwRoUxoWANpwZatMgAkwASZgpwTsRQSwALDTLygXiwkwASbABLQjYEkRoFUpWABoRZbtMgEmwASYgF0TsHURwALArr+eXDgmwASYABPQkoD2IgCSBGlBwYCA5qLLwQJANFG2xwSYABNgAg5FwFZFAAsAh/qaWr6wsiwjNiYGjx4+xK2bN3E5JARnz5zB0X/+wR8H9mP3rl+wZdMmrF29GksXL8acWTMxbfJkwyt9pv10/Nddu3DwwAEcO/oPzp49gytXruD27dt4/Pgx4uLiLF8wzpEJMAEmkIKAViIgRRbCawJYAKSgy29NJ3A/PBwnT5zA9q1bsXjhAowdNQrdf+iC7xvUR/Uvv8CnH1VG1c8/w3df10Sj+vXQqnkzdGrfDr26d8PgAQMwZuRITJk0EXNnz8KyJYvx05o12LRxg+GVPtN+Oj565AgMGtAfPbt1Q6d27dCyaRM0rFsH39aoji8/rWLIp0bVL1H3u+/Q7PvG6N+nN2bNmI7NmzYaRMPdO3dAYsT0EnIKJsAEmIBxBGxNBLAAMO68OnSs+/fv49+TJ7Fj+zYsmDcXQwcNNNzI6cZe57tv0a1LZ0wcPw7Lly3Drl924sTx47hx4waioqIsdtNNSkpCZGQkwsPv4WpYGI4cPox1P/2EqZMmGURD/Tq1UfWzTw3CYcjAAZg/d66hPKdP/YuHSu2EQ59gLjwTSEFASvGe35pOQKwISDV/YTUBLABS5euYO+kJ+drVq/htz6+YN2e2cuPsiq+rV0Odb79B186dMGHsWKxasQL79+0zVOVT1b4tkaKmgitK08GB/fuxeuUKQ3m6dOyIWkrtRHWl9qBd61YYOWwYVi7/ESQMEuLjbal47CsTEELAJ1Mm1XaePHmCGKXpT7UhGzVgKyKABYCNvVYL2wAAEABJREFUfsFEuE1PzRcvXMDPa9caqtepOr1p40aGm+CaVauUqvOjeKr8kEXkpXcbUZGRIBYkfhbOnw8SBjW+qmoQQVSzwYJA72eQ/RNFwDdLFjg7O6syRw8ToaFXVNmw9cQiREAGDFTXBLAAyICwPR2mJ1q6ka1cvhx9evZETeUGR0+9s2fOMHSwI9VuT+VVW5bY2FiDCKK+DSkFwY9Ll+LUv/+CeKrNg9MzAb0RkJyckC17dtVuXQ4JVm3D1g3oXQSwALD1b1g6/stKu/iF8+cNVdrdf+gCquamG9nC+fPw919/Gtro00nOh14ikCwIlixaiB86dQTVEPTo+gNYELwEij/aPAE/Pz/VZThy+BCollG1IRs3YL4IMLrgZtcEsAAwmrFtRKSOcNQjf9jgwfimZg20b9MaC5UqbeqYR23gtlEK2/CSBMHxY8eQUhD07NbVMKzRUZpObONMsZemEsieXb0AuHI5BNu3bTE1a7uMr1cRwALAzr5uwZcuGXrk79v7u8O03+vlFJIgOHb0qGFYY61vv8Gg/v2wf+9exHNnQr2cIvbDSALFihczMmb60db9vBY3rl9LP5KDHDVVBJiBxeSaABYAZlDmJEwgIwLUP+DgH39g6OBB+E6piZkwbixOnjgO6hyVUVo+zgSsTaDCBxWFuEC/g+FDB+Hggf1C7Nm6Eb2JABYAtv6NYv91T4CaZXZs24ZuXbqA5iOgOQhoOKLuHWcHHZZAQGAg8uXPL6T89P2fM3sGJk0Yaxg+nJCQIMSurRoxTgSoKp3RNQEsAFRx5sRMwDQC9+7eNcxB0LJpE7Ru0dwwBTJNXmSaFf3GvnfvLg7+ccAwK+TkCRPA4f8MFsydi32/7zVMia3fM/h/zyp88MH/Pwh4d/zYUQwe2Betmn9veF0wb7byPZnvkOHHpYvh45NJ9XDLdE6LUSKABUA6BPkQE9CSQEhwsGEK5Hq1axvmG6BZFKnKVMs8tbJ9/tx5NG/yPerVqoVB/fsbZoXcumUzOPyfwaqVKzBsyCDDlNg0jTX1F9HqfIiw+0HFSiLMvGKDagAuh4SA+in9tmc3HDXs3/c7EhMTX+FDOwSFDEUACwBBpNkMEzCXgJyUZJhvgNZRaFivnmFiJluZRY0uYIsWLEDnDu0QFhpqLgKHS0cLWdF6GNOmTNHtjHmvlSqFUqVLO9y5sbMCPxMBgYHNUisXC4DUqFhhX2BgoIeS7UdK4M2BCVBzAE3MVK92LcPqiHqfnGnJokVY8eMyrZ9k7PIbQR1CN21Yb1j9Uq8FbNWmrV5ds2O/hBdNkmR5XsECBd982TILgJeJWPhzmVy5vAsFBPVwlnEFMnpZOHvOTqcEaB4BWg2xviIESBDcu3dPd55eOH8Ba1av1J1ftubQLzt34PChw7p0m2oA3q9QQZe+sVOmEJBcnJySfsyfP79nylQsAFLSsOD7ggULZikUENA/0sMzDJDHK1nnVgJvTOAFAtQUQGs10FLKtBgTLdb0QgQrfpgwbjQSEzRtw7Ri6Syb9aTxY3XbFNCydRs4OfGtwlLfCK3ykYHiHi4ufVLa57OakoYF3hfPly+7cuMfLiUmKTd+aYSSpfpJtxUjet+cJMDbMwk5syYiME88XisYh7dKxqByuWhUrRCJ2lUi0LTaE7Sv9RjdGjw0vNJn2v+Vcvyj8tGG+JQuKG88cmZLhI9XEsiu3ssuwj/qHLhj+zY0a/K9YW4BWrhIhF1zbdy9eweXQy6bm5zTvUTgwYMHuHTx0kt79fGRhgTWb9hIH86wF6oIyDJqpTTAAiAlDQ3fBwUF5VJu/OPiXVxCAWkAgCxKsIvNRWm/oJvyx29GoXmNJxjR9j5WDLuNPTNv4Miiazi1MgwXfg7FyRVXcWjhNfyq7N804SZWjbiNBQPuYFr3exjdPhwDmj94fvMnEUCfaf9U5fj8/ncM8Snd7hk3cGjBNZxYfhUX14Xi1Kow/Ln4Gn6ffR2rR97G2I7hBgFBwqFUoThkUoSCXYBWCkEdBml2QVrEiTqR0RTPym6Lb+fPnbN4nvaeobVFXXp8m7VoAdHDAtPLz3GPaV7y4iVzlPRJzoUFQDIJjV4DAwNzKzf+aU5J8hVA6qmE5/BhQ3+S8gSfO3sC3isdgwafP0X/Zg9AN2W6mZ9ZfRV0U57X7y76NX2Aep89xTulYhCgPOn7+SbC00MGpdequJ7uMrJnSUSBXAl4s0QMvvs4wiAkSDhsHH8TxxWh8PeSa/hp9C1M6BKOTnUeoUbFSJQtEgsvjySt3NLc7tF//gEt8tSxXVvD6oSaZ5gig4sXzqf4xG9FEAgOviDCjCY2JElC3wEDEVSwoCb22ajFCDjFekaUTc6NBUAyCcGvJUuWdCvkH9hLeTi+CEidALzQ+UL5rOuNbvY1K0ViVPv72DLpJv5VnuL/mH8dPw69jWFt7qNZ9SeganmqzndWCqnrwijOZc2ciDeKxeLrDyPQpd4jTOp6D+vG3jKIg80Tb2JwywegGgMqtxLdprZzZ88aViccPXIEqCrZEs67uLhaIhuHykPvTD09PTFi9Bj4+vo61HmxZGEtkpeTU47kfFgAJJMQ+FrYP6h6bGTkGUgYq5jNpATdb3TjS77hU9U93ewn/nAPdao8RYnAONBTtu4LYYaDzsovoGRQHBpXfQKqMaBy7593HZMVgdDwi2dlt5V+Br/u2oUmjRpi/c8/g8bnm4HD6CTFipc0Oi5HNI5A0WJiFuAxLjfzYuXOnRuTp89A/gIFzDPAqXRFQLn86cofm3amSEBAiYL+gb/IkrwZkApDx3/p3fCp6l7HrmvuWl6/BFRXmgiGtn5W+3Hsx6tYPOgOOtZ+hLJFY6HUhmrug7kZREVGYub0aWjTsoWmzQLFSxQ310VOlwaBIkWLpnFEX7v9/f0xc85cvPnWW/pyzOa9sXwBWAAIYK608/sWCgyckgT8q9wcPhNgUrgJ6jFP7d5Upf/yE76j3/Azgk3sKr4ejR/qP8K6Mbfwx/xrhiYD6g9BNQgZpbfG8SuXL2vaLJA1a1aULvO8KdEaRbSrPPMXyI/ChYvYTJl8fHwwetx41KpTx2Z8ZkdfJcAC4FUmpuxxLhgY2NZZli9BRhdAcoGO/lxdZFR5OwrTe9wz9JKndm+q0ucbvrqTlCtboqHJgPpD/Ln4qmHUwcdvRcHdVVZnWIPUWjYL9OzdBx4eHhp47VgmnZyc0LtvP7i46OrykeFJIL/bdeiIMeMnoGChQhnG5wjpE7DGURYAZlIv5O9foXBA4FFJxmxA8oNO/pQaCMN4eRqKR0Pw5vS5iy/fj9TlzUknyFS54ZspyTDqYF7fu/h76TWD2Kr2QaRhjgJVhgUm1qpZIF/+fGjesrVATx3TVJ169VDytVI2W/i33n4b8xYsRK8+fZEjx/P+ZTZbHkdynAWAiWe7cOHC7oUCAsZBctqvPO/ppg60qH8cejZ+iH1zrxvGy9f77Cmy+CiNEiaWj6ObT4CGFJLYmtLtHv5ecg0kCj4qHw0nyXybIlNq0SzwXe1a6NG7N7y9vUW66hC23N3d0a5DB7RoZfsiSlJqMT7/8kssW7kK7Tt2UgTNa8olkm8vxn+RrROTz5AJ3AsHBLwhxycchWE8P6zOLo9fAlp/8xhbJ9/E9ik30UZ5Tx3YwH9WJ0DNL9QsQHMl/Db7uuHcZMusj2lzk5sFNm3YIITTl1W/wsIly/BBxUrw8LSp0a5Cym+qETc3N5R/8y3MW7RIaUOva1fT7FLZvqtdG9NnzcZP6zegR6/eeO/9CqAhhKZy4vjaEFCeR5Rn12e2rX4Te+aGvv9XRmWXQgFBA2VIfyqevqYEq230NEnj1VcOv439ytN+L+Wpv3hAnNX84YwzJpA/Z4KhdubgguugoZXli8dmnEjjGNQsMG3KZAzs1xe08BBU/uXImQNDR4zA5m3bMX/RElCtQMs2bcDh/wy6du+JOfMXYOvOXzBu4kTkz2/fQ+moo+iXX32FEaNHG8q8efsOLFq6DOMnTULvfv3Qum070DoDHNrAWAa58+RR+UsFZEDRADD8ORn+8780CQQGBha/Fhh6SME2TInkqgSrbPRESR34aMY9Gq/+9msxkJ6fRqu4xJmaSIDOIc21sGbULUOtDc2oSM0GJpoRGv3QwYNo1aI5zpw+LcSus7MzChYqCKoVqN+gITj8n0G1GtVRpGhRECMhsG3MCDUTBQQGolz5N/HZ51+gbv36qN9Q4cPBaA65cuUSetZZAKSNUyoYGPiDs4xjimSy2oBXukHQ/Pr75lwHDeHjHvxpnzBbOkK1NjSj4uGF1zGk1X0ULhBvNffv3b2Lrp07YdWKFZBl2Wp+cMZMwDEJWK/ULABSYR8UFBRQKCDwN0nGZOWwpxIsvlHv8s51H4FmpevX9IFh9TuLO8EZak6AVkhs9OVT7JhywzATYcF81hECNHPggnlz0adnDzx6+FDzcnMGTIAJWJ8AC4CXzkFh/6BaTknyKWV3ZSVYfKMx5rTQzoG510ACwJd78lv8HFgjQ2rOob4dO6bewLhO4YaFjazhxz9//43WSpOAtVYZtEaZOU8mYE0C1sybBcD/6TsVDgwcI0vyT8quTEqw6EaL6lAV/16lqp8W2qEV9CzqAGemCwLOyi/y248iQH09aC4HmrLZ0o7dv38fPbp1xZJFi5CUxENJLc2f82MCliKgXG4slZV+88mfP3825ea/U2n+7G1pL/1zJ2Ba93vYNeOGYeEd6ihmaR8smd/TKCeEXHfF6RA3nLzojqPn3fHXGQ8c+tcDB0544vejnvj1Ly/sPOyFbQe9sWm/Nzbu88Fv/3jhhBL/6m0XkA1L+myNvFycZcOyyr/NuoGBLR4gh69lhxDKyo3/x6VL0KPrD7gfHm4NBJwnE3AAAtYtosMLgCKBga+7Obv8o9z8P7XkqfBwk0Fzy+9UqnyrVogEDe+zZP6i80pIlHAz3AXHL7grN29vLN2WGeN+zIruU3Kg4aDc+LRjPpRuEIA3Gvnj88758HXPvPiuTx7U7ZcHDQbmxvdDcqPZsFxoNTIX2o7JiY7jc6LLxByG9D2m+qH1qJyopcT/uH1+g43itQPwXvMC+KprXjRS7HeakAOD52XH1NW+WPlLJvx91gOPI2z/6+3mKqPJV09Acwn0/v4hqG+I6HOXnr2TJ06gVfNm+OvPI+lF42NMgAnYIAHbv0KqgF4wIKBhkoxDEhCkwozJSWl+/p3TbhhWl6MLvMkGrJwgQnmK//O0BxZuzowfJuVAlQ75UKJOACq1zo/affMoN+8cGL4wG+ZtyGJ4gqe4V266IjpGIQ0xfyQ47j1yxoUwNxxRfNlxyBsrdmbC9LW+GDQ3O+oPyI3y3/ujQssCBmExZmlWbNjrgzOX3RAbL4lxwoJWPN1ltPr6MWg0CE345KzUEFgq+8ePH6Nf796YN2e25ssMW6pMnA8T0AMBa/vgkAKgMiq7FPYPnMAvIL8AABAASURBVCxBWq6cAIv18qchfAsH3AHNz0+Twyh5636LinECPU0v3pIZ3SbnwGed8uGNxv6Gp/rRS7Jh6x/eCL3lCqUGRZdlufPA2dC0sGBTFvSc5oeaPfKiTP0AQ40E1TJMW+NraHagcuqyAC85RaMGaMrnzRNu4Y1ilptQiIYHrlm1Cr17dEdUVNRLXvFHJsAEbJGAky06rcbnwoUL57gWELpblvADLPRH1f1d6z/Cjik38WG5aAvlal429HS/87A3+szwM1TVv97Q3/A0PXJxNmw+4I3LN/R7sze2xIlJANVI7DzsBRIA1OxQrnEBQ1PEnHVZDP0T9CpokstYLCAOa0fdwvC295HZWylQ8gGNX48fO4ZuXTqDhwpqDJrNOwAB6xfRoQRAUFBQWTku4aiC3WJD/D59Jwq/TL+BDrUfQa/V/dSxbsnWzGgyJBfebFLAUIX/828+hs56ShOJgsv+t4REydAZccKKrKD+CW83K2Bo3iAOVIugRwI0dLD+Z0+xS/l+Va8YaTEXL128iM4d2uP2rVsWy5MzYgJMQDwBhxEARYKCKjklyfsgoYB4jK9apGF9iwbewezed5EvR8KrEay4h56AqVp/7LKs+Fyp0v+4fX6MWJQNB//1BN0IreiabrJ++MTZ0LxBNSHUj+CLLvkwUmG0/7gn4hMk3fhJjvj5JmJy13tYMugOaFQJ7dM63LhxA53at0NIcLDWWbF9JmCXBPRQKIcQAIUDA2smJcm/KMCzKEHTzd1VRrcGDw2r81V6I1rTvEwxTh3faFgdteO/3dTfUK0/f2MWhNyw2vIGprhv9bjB11yxWKklaT48l2H0wbAF2XD2ipvV/UrpwAevR4MmEmpf6zFoGGHKY1q8f/DggWEK4X9PntTCPNtkAkxAYwJ2LwAKBgQ0V9pz1ykcPZSg6UbTuK4bdwt0AdZLdf8l5cZFPfLfb1HAMKyO2vHtYXicpicyA+OPIpywbHtm1OieF9WVQO8fPdXHTylZgG6ddBNli8RmUBL1hyMjIw0dAw8eOKDeGFtgAg5DQB8F1cdVSyMWhfwDe0mQFirmnZWg6Uazt20afxPFA+I0zccY4zFxEtb/7oM6/fLgS6Xqmsbk803fGHKmxzmn1AJQbcB7isCiuQj2HfMENbGYbklsisIF4rFm1G3QQlLUV0Cs9RetxcXFYciggdi2dcuLB/gTE2ACuiZgrwJAKhQQNEFp7x+rNX1arW9Cl3DD/O3Wnr73fJgbhszPbqii7jXdD8fOu2tdfLb/HwHqF0BzEbQYkQuVWhcAdSYMvWXd5hVqBujX9AHm9r0LrScQSkpKwqTx47Hix2X/EeEXJsAE0iKgl/12JwBojH8h/8DFgNxda8glguKwacItfP1hhNZZpWk/OkbCT3t8DLPqVeuaF8t3ZIIjTJWbJhAdHKBRAzSckCZIolkQ/zhpsakmUi39x29GgZoE3iwRk+pxkTsXLViAGVOnguYNEGmXbTEBJiCegF0JgPz583teDQxdrzz5NxGP6kWLjb58inVjbiEor3WWb42KcQLdZCoqT5t9Z/oZ5tV/0UP+pAcCNAti06G5DDMk0ggCa/lEiwqtGH4b7b57DK2bBDasX4eRw4chISHBWsXlfJmAjgnoxzW7EQB58+b1cnNy2SnJqK4l3szeSZjZ6y6GtLpvlXH90bESqPf+h23zGaqZqUOaluVl22II0BoJNILgu955DDMPirFqmhVaabB7w4dYPOgOsmfRdnGh3/fsQb/evRATo32tg2kUODYTYALJBOxCAJQsWdLN08VtvfJkUym5YFq8vl40Flsm3cTn71p+KlQaxkfD0D5qlx80fp/GqWtRRrapLYGTl9wNCx7RZEN7/vbSNrM0rH9QNhpbJ9/Ee6W1vTkf/ecfDOzXFwnx1qklS6P4vJsJWJWAnjK3BwHgHBcZvRISPtcKrCIsQAuwrBl52+KT+lDnMmrXpxs/TUQT/kjzAQ1aYWS7KQicDnFDm9E5DUMJd//ppbSZpzhogbc5fBOxdMhtdKrzSNPcjh09amgOkJMsN12xpgVi40zAjgjYugCQCgcEzpchf6fVOaFV2Ob2uQtagMXZgiuw0Yx8q3Zlwsft84F69t99wDd+rc6xNe3SZELtxuZE9W55sUsRApb0hZag7lLvEWgUi4uG3+39+/Zh8sSJliwa58UEdEpAX27ZtAAoFBg4WQaaaYXU1ycJy5SnpI/fsmyVPz0RUg/ygXOy41a4i1bF04VdJycn+Pj4IEeOnAgICERQwUIoUMAfuXPnQXY/P2TOnAVeXl5wcXWFJEm68FkLJ2gIZ3tFCDQdlgthFh4+SKNYaNpqHy/tntK3bd2ChfPnaYGObTIBJmAmAZsVAIUDA4dCRhczy51hsjx+CVgz6pZFl1yl4WN0E6Anwut3XTL0Uc8R6MZdtFhxVPrwI9Sp1wAdOv2AXn36Y/CwkRg7fjKmzZyLBYt/xNLlqzF73iJMmjoDI0aPw7ARozFq7ASMnzQVU6bNwsw58zF3wRIsXroCy1asweJlKw2fx02cgt59B6Bl67b45ttaqFipMkq+Vgq5cuU2iAU9s0nPtz9OeKLqD3kx4ydfi6458H6ZGFATF40WSM8/NcdWLl+On9euUWOC0zIBmyagN+dtUgAUDgjoJssYpBVMmkXtp9G3USi/ZTov0Yp71M7/eed8Fq8GVsNQkiQU8A/A+xU+wLff1Ub7jl0MN3C6YdONe+DgYWjVph2q1/ga7773PkqXKYvChYsgb758yJo1K9zd3U3O3sXFxVAjkCdPXpQqXQYfVv4Y39aqg9Zt26Nv/0GYMHkaFi1Zjhmz52PQkOFo/H0zVKhYyZCnJEkm52eNBNThc8oqX9C8DjSM0FI+FAuIw89jboNetcpzzqxZ2LVzp1bm2S4TYAImEHAyIa4uohYOCGopQ5qolTPliscqT0K3oOWTUErfL4S5oU7fPIZ2/ogofZ8Oqoanp/rqNb9Bj159MWf+YowaMx7tOnTGN4oAeO/9CqAqfKqyT1lGS7+XJAlZsmRBkaLF8NkXX6Jtu46GWod5C5eg/8AhqN+gsUGQ5MyVy9KumZQfLdREEwn1nOaHB08s0weEvvdUE0A1AiY5a2RkmiBowrixOHTwoJEpOBoTsBcC+iuHvu84L/Eq7B9UR4Y896Xdwj7SjGnLlDb/LErbvzCjaRiKiZMwYXlW1OyRBycumv4knIZZobvpRl729TdQp2590NP8fKUqnl7pM+2n40Iz1NiYh4cnipcoiarVqhuaJCZOnm5ofujYuSsqfFARPj6ZNPbAPPMb9vrgs475sPbXTBYZLUB9AahPAPUNMM/j9FMlJiZi+JDB4FUE0+fER5mA1gRsRgAEBQW9LUvyUgWIJj7X+jgCs3vfg4ebrGSh7XbwX0+lnTcf5qzPAurtr21uplmnJ+dPqnwGqk6ntnl60qcnfnrypxoA06zpP7aPjw/eefc9tG3fydDfgAROteo1kS9ffl05TxM+9ZuVHfX658HFq26a++biLBtGB7Sv9ViTvOLi4jCgbx8EB1/SxD4bZQJ6I6BHfzS5mYouaLECBfI6JckbFLseShC+tf32McZ0DIfWw/yoip+qc5sMyYWrt12El8Ncg1l8fVHl08/Rb8BgTJ81D02btzR0qKMe+ubatMV0VF4SOnXrN8SY8ZMMHROpD0Gp0mWU74ZlquAz4nb0vDtqdM+DeRuyWKQ2oFuDhxjc8kFGbpl1PDIyEn169MCNGzfMSs+JmAATUEdA9wIgMDDQI1Fyppt/XnVFfTW10lSMAc0foEejh68eFLyHhnl93TMPqDpXsGmzzPn6ZsWnn32B/oOGYvrMuWjSrAVKlHzNrofamQqKhiZSHwIabTB1xhzDaAY99BugWqNxP2Y1TCRENQOmlsvU+I2rPkH/ZtqIgIcPH6Jvzx4gMWCqXxyfCdgOAX16qnsB4CzL82QJb4vGR1Wck7veQ9NqT0SbfsXeut98UKt3HoRaeHz3y45IkmToid+zdz9MmzkH3zdtjuLFS/BN/2VQqXymphEazTBh0jT06TcQb7/zrtVrBX77xws1u+cFTS+cistCdzWr/kQzoUw1AGNHjRTqLxtjAkwgYwK6FgCFAoJ6AFJjCP5T7oOG9s1qH0QKtvyiORrO1XeWH3rP8AN1+nvxqOU+ubm74+NPPsWYcZNAY/HLlH2db/pm4pckCa+VKo1OXbpBD7UCN+65oF7/3Fi6LbOZJTI+GTWVda6rzdTBB//4A2tWrTTeGY7JBGyIgF5d1a0AKBQY+AUgj9UCHFX7a33zpzb+Wn3y4KdffbQoglE2s2fPDmrPnjp9Npq1aGUYC29UQo5kFIGXawVef6OcUelER6L1IoYvzIaO43OC+pmItp/SHgkAEgIp94l6v2DePJw8cUKUObbDBJhABgR0KQCCgoKKQcZqxXfh/rX97jGafPVEMa3dRlP51uyRF+euuGmXSTqWCxcpChraNnHKDFCPdurpnk50PqSSgCQ9qxXo3rMPhg4fDRoiqdKkWcl3HlaaBHrm0fx7R31mqEnALCfTSZSUlIQRQ4fg/v376cQSd4iGI14OuYxdO3/Bls2bODgogx3btuL8ubOgkSnivl0pLen3vfAbrNqiFixYMItTkrxJsZNFCUK32p9EoEdD7Tr8JSZKGLM0K2gq36dWmNSHJuHpN2AwBg8dYRja5uysj57rQk+izo0VLFQINHTSWkKA1hGgmqfVuzJpSoo6BTb84qnwPB48eGAQAXRzFm78P4Pnz59D9x9+QI2qX6JV86YYO3okpkycyMFBGUwYNw4d2rZFtS8+R9tWLXFg/77/vin2/6I3ASBJiUn05F9MNHpa0GdEu3DRZp/bu/fIGY0G58KCTcJ1y/M80npDvdU7dOqiPH2OMvTkTyse77ccgWQhMGT4KIvXCFDfkwFzsqPXdD9N55kY0uo+aleJEA6VJghaME/8fF/x8fFYMG8OOrdvjxPHjyEmJka472zQdgmQ6Lx08SKGDByI4UOG4PEjMXNg6JmIk56cKxQQ1F3xR2n7V/4L3Gh632nd78FZo9Jev+OCuv3y4O+zmkxTkCYJqtpv2KgJaGGcd9+rwB370iRlvQOFChU21AgMGTYS1PnSkp6s/90HbUfnRHSspEm2SssHRiqiumYl8Z1p165ejT8O7Bfq9+ABA7BqxUrQhV6oYTZmdwT2/v4bOndsZ/ciUaNbounfB6XdvwwgCx8LRAv7zO93R7MZ/mhWtjr98lh0Yh9XV1d8Va0GJk6Zji+qfgVaIMd04pzCkgQKFS6Cnr37GcQA1dhYKu+9xzzRdGhuPInU5qfupGiLsZ3C8VbJGOFFGjt6tLBJgrZv3Yo/jxwW7iMbtF8C169dx6L581UWUN/JtbkqmFjmwMBAD6ekpBVKMqG95vL4JWDJoDvQam5/msO//oDcuPvQMm3tkiSBVrYbP3Eq6jW5aD2xAAAQAElEQVRoBC8vbwUZb7ZEgDoIjhk30dA501J9NGj2QC2/pzSnxsxe95AvR4LQUxEVGalUxw5AbGws1Pzdu3cXs2bMUGOC0zoogQ3r1+HM6dN2W3pdCACXJIwGpFIQ+Ofrk2S4+dPqZgLNPjf1x0lPNB6SG48jLIPQL0cO9Ok30LCyXXY/v+d+8BvbI0DzMtSt3xAjRo0zrFhoiRLQqpPUTEXDU7XIL1vmRMzpexeeHmLX0rgcEoIpk9Qt/nn44EFER0dpUWy2aecEaGTKnl9/NbuUek9ombtXOhQK+hesIkvokk4Ukw95usuY3/8OCuWPNzmtMQl2HvZGq5E5ER2j1H8ak0BlHJrEZ/TYiYb5+VWa4uQ6IpC/QAHDKovNW7aGt7f2tTnX/uurci5UaEXbc6IlAuMwofM9KBVVz/eJeLNr506ouQhfvHBRhBtsw0EJXDh3zm5LblUBkD9//mySlLREoSvsTkoXn6nd7uGNYuqqDRWfUt1oSdbOE3KAJl9JNYLAnTSRD81DT5P4eHh4CLTMpvRCQJIkfPRxFVBHzvcrVNTcrXuPnNFAabb655w236fP341CpzriZwucOW0qHj82r1f2xQsXNOfKGdgvgZCQYCQkmNO8pX8mVhUAbi4ucxRE+ZQgbGv99WPQkD9hBlMYohXY+s3KjiSxtZwpcvj/2w8rf4zR4yahVOky/9/J7+yWQObMWdCuQydDJ0EfH23H8NMcFU2H5gKtJaAFUBIAX7wXKdQ03fxnTp9mls3omGiz0nEiJkAE6OYfHx9Hb+0uWE0AFPIP+l6SUVskURru162B+KcP8nH8j1lBK7DRey1D1mzZDL3FW7ZuC09PTy2zYts6JECdBEeOGad53wBam6Ld2BzYflB804NSqYHxncNRIkjsRXPP7t34688jJp+1IkWLmJyGEzCBZAIFlKY6T0+v5I9Gv9pCRKsIgEDlD5I8XSQg6uk/Ran6d3YW/3g+fa0v5m7QfoKf996vYFiwx9LjxUWeB7alnkC2bNnRf+AQVK1WXWlPl9QbTMMCzVzZfaofDv4rXmhSP5y5fe8ie5bENHI3b/fkiRMRHW3aE32RosXMy4xTMQGFQLESxZX/9rlZRQA4y9ICBafQ5cvGdgxHXj/x7TTU5j91ta/irnabk5MT6jdsjPYdu8DLyz6Vpnb07NMyDRGs36AxunbvBR8f7RaUor4s7ZWagDOXxXcMpN/jrN534eoiTpTfvXMHC0ycJfCNcuU0FVL2+Q3kUiUTKF/+7eS3JrzaRlSLC4BCgYF1AfkTkXiafPUEVd6OEmnSYIvaSAfOyW54r9U/Ly9vQ7tv1a+qa5UF27VhAm+UK4/ho8aCJhLSqhiR0U5oPjyXJpNZlS8ei671xTbLbdq4EWfPnDEaR/HiJfD1t98aHZ8jMoFkAuXKl0eVzz5N/mh3rxYVAMWKFcsEGZNEUixVKA59mohf4Icm+ekyMQcSk0R6+6KtvPnyYeiIUShdpuyLB/gTE0hBwM8vh2G44BdffpVir9i39x87o8nQ3Ah/JH5Sq5ZfP8abJWKEOSwnJWHCuLFIiDd+mG+rNm2RP38BYT6wIfsnQO3+PXr3Mav2yFboWFQAxMfEDVHA5FWCkM3HKwnTuoutYiTHrtx0RcuRuaDVHOqUxxtvlMeQYaOQO3ce+siBCaRLgJoEGjZuAlr0Saupn2meAKoJoBqBdJ0x8SBNFzyhczi8PMSp6bDQUCz/8UejPXF3d8eoseN4sSyjiTl2xNx58hi+L7ly5bJrEBYTAIUKFColIamzSJoj2t6Hf26x7f40TrrZsFx49FQ7NNVrfoOuPXpxL3+RXwYHsUWLPtFywx4e4jvuEcKzV9wMy1lT3wD6LCrkz5WAgc0fiDJnsLNqxXKEXrlieG/Mv3z582HqjBlo2aYNr59hDDAHjVOteg0sWLQEZcqWgXl/tpNKu7vcywycE2cBkgsE/dX99CmqfSB2rDE9+dAT0PW7wtx8obQ0BWyHTj+gTt36dl2t9EKh+YNwAq+VKo1+AwcjU2ah/Wif+3noXw/0mOoHWVzfPYPt2lUihM7RQeOzqSmAmgQMGRjxj2pS6jdoiI1bt2LytBlo36kTPv/iS1T+6GMODsqgymefoUWrVhg7YQLWb9qiPJz1gKeXNgLbiK+oRaNYRAAU9g9qrLT9C5vmrKh/HAa2EPs0QU887cbmxDnlCUiLM0Bj+mlWv3ffe18L82zTwQgEBRXEoCHDkSNHTk1Kvu2gN0Ysyibc9qh290HrBogyfO7sWWxYv95kc9S+S09439WqjV59+2LgkCEcHJRB3/4D0KBRY7z51tvI4qt+uLfJX0YrJtBcABQsWDCLLMnjRZWRxhdP73EPHm5iH096T/cDPfmI8jOlHS8vL9DNvyiPR06Jhd+rJED9RwYNHY4C/gEqLaWefOm2zPhxu9haBj/fRIxQREDqOZq3d+niRYiIiDAvMadiAg5MQHMBICUmjlD4CutJ8UP9h8IX+VmyNTM2H/BW3BS/0RjuPv0HaTqMS7zXbNFWCPj6ZsWAQUNBQ9208HnUkqw4HSJ2joDP3onCtx+Ju2HTzX/NqpVaFJ9tMgETCdhWdE0FQOGAgDcAqR0E/RUuEI+mXz0VZO2ZGZoAZeyyrM8+CP6fKVMm0M2fqmsFm2ZzTOA5Aaph6tV3gKEK8/lOQW+oaazThJyg9QMEmTSYGaQ04eXLIa4D77qff8aDB2KbBQ2O8j8mYMcENBUAMpyo6t9ZFL/BLe9D5FS/1OmPxvrHJ0iiXHxuhxZ36TdgCAICAp/v4zdMQCsCrq6u6NSlmyIC3hGeBQ0P7DtT7IRYPl5JGNcpXJivsTExWPHjMmH22BATMIeAraXRTAAUCQqqJHLGv68qROK90uImE6ETNWhudoTecqW3QkMWX1/DXO75CxQQapeNMYH0CNCU0h06dkbJkq+lF82sYzsPe2P5DrGrFL5TKgY1KoobybN1yxbcvn3brPJxIibgiAQ0EwBJSfIwUUBpApF+zcRW7637zQeb9otv96fV/AYMHAqa5U9U+dkOEzCWgItSE0BzTAQGBRmbxOh4o5ZkA80TYHQCIyL2bvIAnh5iOvTSzIDUIdCIbDkKE9CAgO2Z1EQAFAoI+FhB8aEShGwdaz9GrmziVhULueGKIQvEVmlSQb28vNGn70DQLFL0mQMTsAYBDw9P9OzdD7kFzzIZFy+h04QciIgSd9mg33W7b8WtFbB71y7QLIHW4M55MgFbIyDul/xCyZ2EPf0XzBeP5jWevGBdzYdY5SLWRbmIRceIbfenCUY6/9CNn/zVnBxOK4wA9UGhoadZs4rt4BqmNJn1my1WPLeo+QQ0U6CIwtOkQIsX0mKjIqyxDSZgPAFbjClcABQOCvoMkCuIgjGo5QO4OIupIiSfRi3OhvNhYoc1kd1mLVqBZmij9xyYgB4I+OXIgV59BsDbW2xT1/aD3lj5i7j+AO6uMvo1FdfEd2D/flw4f14Pp4B9YAK6JiBcAIhs+//ivUh8UDZaGMBfjnhhxc5MwuwlG6pWvSY+rEytHsl7+JUJ6INA/gIF0K1nH7i5iRW9IxdlwwWBQprmBni/jLhOvgvmzdPHCWAvHISAbRZTqAAoGBBQValYf0cECprxr3+zhyJMGWzcvu+CvjP9DO9F/nvr7XdQp14DkSbZFhMQSoBmoGzavKVQm9SU1l9pChC5XsDAFveFDfM9dvQfnDh+XGiZ2RgTsDcCQgWAcvMfKgpQ+1qPkMcvQZQ5jFiUFU8ihRYXhQoVRtv2nXhhH2FniQ1pRaBipcr46ONPhJo/cdEda3aLq1ErUiAeDT8XN9HXQq4FEHq+2VjaBGz1iLA7YuECQTUA6U0I+AvME4+WNcV1/PvjpCdoHLMA156b8PPLga49eguvWn2eAb9hAoIJfN+kOUQPDxy/PCsePBE21xe61HuErJnFjPg5e/YMjh09Kpgim2MC9kNAmACQnZIGisLSs/FDuLqI6fhHs/wNWyB2VTN3d3d0V9pVs2RxrJWjRJ1ftmMdAjRHQJcfegjtFPg4wgmjl4gbaZDFJwld64sbFrhx/TrrwOZcHYiA7RZViAAoEhiotPuLefovlC8e1CFIFNJFWzLj8g2xs/01bNwE1LlKlI9shwlYigCNDBDdbLVhrw/+OuMhrAh1q0RA1DoBhw4d4tkBhZ0ZNmRvBIQIgERZ7igKTOtvHitt6mKs3Qp3wYyffMUY+89KufJvKW2pVf77xC9MwPYIvP5GOdSo+Y1QxwfOzY6EREmITVrvQ1QTIM0LsHnjRiF+sREmkBoBW96nWgAUKlQopwSpjggI1Omv5ofi5gYfuTgrRE74Q3P8t2zdVkRR2QYTsCqB72rXFTpvRch1VyzYmFlYmWpXeYrsWcT0Bdi+bStiY2OF+caGmIC9EFAtAJCQ0EqBIWSQcYsaTyBq0h/RHf8kSUKbth1AS/wq5eWNCdg0AUlSvs/tOoKmrxZVEKptu37XRYg5DzcZTauJ6Qj89MkT/LbnVyF+sREm8CIB2/6kVgBQ918hj8TU87fup2KGAGnR8e+zz79E6TJlbftss/dMIAUBmia4QaPvU+xR9zYmToLIDrcNv3gKb88kdU79l3rjuvX/veMXJsAEkgmoEgAFAwJqAlJ+CPhr8tVT0OQ/AkxhkeCOf9Thr279hiJcYxtMQFcEPqz8kdCmgN/+8cKev72ElDGzdxJIBIgwFhx8CadPnRJhim0wgecEbP2NKgGgtP0L6fzn5ZGExl+Kqe4T3fGPhk6179gFrq5iRxLY+heH/bcfAi1btQUNbRVVoskrfSFqhsBm1Z/AzVXMkOANPCRQ1ClmO3ZCwGwBUNjf/zWFwUdKUL01+PwpaPyvakOKgcmrfIV2/Ktdpx4KFPBXLPPGBOyTAA0NFDmdNS22tfsvMbUAOXwT8d1HEULA/7F/P+6HhwuxxUaYAGD7DMwWAJCcOogoPqn75orKF2HrzgNnbN4vbuWz/AUK4PMvqopwjW0wAV0T+PSzL0BrBohycvpacbUArb5+DGfzr1TPi5SQkIAtmzc//8xvmICjEzDrZ1W4cOHMMuTGIuB9UzkCObOJGe6zWGn7FzUWmcrWuElzODtTP0f6xIEJ2C8BSZLQsk07YU1d5664CesL4J87AV++L2Z48NbNm5AQH2+/J5JLZjEC9pCRWQIA8fG1AckHKv9I1bf+Wkzbf0SUE1YLXJjk7XfeRcmSr6ksoe0kj4mJwbmzZ7Bj2xbMnjkN48aMdJgwacIYrF65HEeOHMKd27dt56QJ9jRPnryo8fW3wqxSLYAoY22+fSzE1MOHD7Fv3z4httgIE7B1AmYJABmoJ6LgX7wXiYA8YtT4ql2ZQCJAhF9ubm5o0FDc8CgRPmlp49AfB9ClYzuMGjEUK1f8iEMH/8Cpf086TDh+7Bi2bd2MmdOmoEe3zobXiKdihqRqed60sF31lbFZsQAAEABJREFUq+rImk3M2hlnLrvhN0EjAkoExqFsETGT+fy6a5cW6NimQxGwj8KaLABo5j9AEtL5T9QQH6r2X7JV3Cxk1Wp8jex+frD3v8jISEyZNB6zZ01HVJSYKlZ7YEY1AX17d8fJk8ftoTgmlYHE73e16pqUJr3I09eKWzDrW0GdAY8dOwr67qfnNx9jAo5AwGQBICUk1FLAqG4Yp2l/3yoZo5hSv1HHP+oAqN4SQD2iq1WvKcKU7m0snD8XR//5W/d+WsPBR48eYdrkibh967Y1srdqnpU+rCxs5MupEHfsPeYppDzVK0bCXcCQQOoDcOTQISE+sRHHJGAvpTZZACTJkpDHA/oxS5IYjAs2iXv6b9ioibCOUGJKp42VI4cP4u+/jmhj3E6sxsXFYd7cmUhKEjMbna1gkSQJIie+mr5GzIJcNDFQlbejhGA8sJ/7AQgByUZsmoBJAqBo/vz5lGtDRRElrlFJTJXzPuXp4uJVIUsRGGZEe/Ott0UUT9c2EhLisXTxQl37qBfnLl28gP379urFHYv5Ufb1Nwy/BxEZnrzkjv3HxdQC1PokQoRL+OuvvxAbI6YGUohDbMSGCNiPqyYJgAQXl9pK0VU/txf1j0PxgDjFlPpt/kZxbYx16zVQ75ANWAgLC0NEhJgLqQ0UV7WLZ8+cVm3DFg3Uq98IkqT6524o+kJBtXQVykYjl4Bhw3TzJxFgcI7/MQEHJWCSAIAspve/qCV/T4e44chpDyGn7rVSpRFUsJAQW3o3Eno5RO8u6sq/K1eCdeWPpZwJDArCe+9/ICS7Q6c8IWKlQCdFj3wjqDPgAQes2RFyMh3ciD0V32gBEKj8Kb+9d9QWnh4oqP1frR1KL/Lpv3qNr8mkQ4QrV644RDlFFfLO7TuIjo4WZc6m7HxXq46QWgBaG2Ddb6qnDjGw+7aymNqrw4cPW2xSoKioKISEBCMk+BIHnTEIVa6H8Q46OZTRAsApCUI6/71ZIgZ5/RIMP2Q1/67fccHOw2Km/Q0KKiisvVNNmSyV1ttHDDdL+WvtfGghKHc3d2u7YZX8c+bKhXLl3xSSNwmAJFm9qYL54vFGsVjVhqIiI3H06FHVdtIyQCNsRgwdiiaNGqBG1S/RunlztG7RgoPOGLRo2gRfff6Z4bxMGDcOV5Um0rTOKWBfR4wWAMqTuxABUFNQ579FWzIjUVDnbBr3b1+nNf3SFCxYOP0IfPQFAv4BgXCiaStf2Os4H76oWk1IYW+Gu+DgSUGdAT8WUwugxWiA6KhoTJ44Hr26d8fvv+3B9WvXIVMViBCKbEQLAomJiYaamR3btqJNyxb4ac1qhxj9Y5QAoN7/CvQ3lKBqc3WRIWJOb5rx76c9mVT5kpw4d+48eOvtd5I/OsRrwUKO0ddB1Ml0dF7Fi5dAYFCQEJxrfxXTDPBVhUh4uKmvTjj0xx9CL/RPnjxB65bNsXXzFiG82IjlCdDw3zmzZmFgv76vCDfLe6NtjkYJgCQn149FuPFhuWhk8VH/2E4Ti0THSiJcQtVqNYS0cQpxxkJGcuTIiRIOtM6BGqz05P9BxQ/VmLCLtF98KaYW4Ne/vPDwibNqJj5eSaARAWoNPX78GP+ePKnWzPP0UydNws0bN55/5je2S+DI4cPYuH697RbACM+djIgDGfInxsTLKI6o6v/df3pllJVRx319s6JixUpGxbW3SK3atIO7h5gRFPbGJmV5qlX7GkFBBVPucsj37773PrJmzaq67PEJEjYKWrK70htiOmaKmueBqvv3/v6bakZsQD8EFsybixvXkwWdfvwS5YlRAkDJTHUNACn2j99SP4sXXUCoBkDxSfX2RdWv4OLqqtqOLRqgWoD6DRvbousW89nf3x/ffEczX1ssS91m5OzsjCqffSHEv58ENQNQjaIIh/756y8RZvDzmrVC7LAR/RCgVVK3bd2sH4cEe5KhACiYv2ARSCigNt+Py0cLmcf70L8eiIzO0O0M3aULWqUPhaxplGFeeo3wySefoluP3qCaEL36aA2/JEnCxwqbgUNGwMXFxRou6DLPjz+pAlosSK1zNHMnzQ6o1k7+nAmgEQFq7dxQquxpmWA1dhITEnGZ59dQg1C3aS+cv2DwzR7/ZXgnlVySVD/9E7j3Souprtv9l5jq/7Kvl0OmTGI6ElL5bDW8Ua48xoyfhE8+/Ry5cue21WII8dvT0xMlXyuF3n0HoFmLVvDgJpIXuPr4ZMK771V4YZ+5H37aI6YzoKhmgFP//mtuUQzpaHZN6jxm+MD/7IrAxQvn7bYzYIYCQAaEtP+/W1r9vNs0hniPIAFQsZJjtv2n9sv09vZG02YtMGHSNMyZvxi9lBtgh05d4Cih8w/dMG7iFMxdsAR9+w9yqDkhUvs+pLfv/QpiZgakOTzo95xeXsYcE9UMcOb0KWOySzPOvXt30jzGB2ybAE3iFBERYduFSMP7jASAJMmy6nryPH4JKJBL/eQ/Jy64494jAT2IfXzw+hvl00Di2LtJDJQuXcbwpEdPe44Q3nr7XeTJkxeSJGZkiT1/g6iGRERnwEdPnXDqkvrJld5+LQYihgOqrQFw9KGi9vydp/5Smey0tjhdARAUFFQGkPyg8u/dUuqf/skFUdX/dFPjtl0iyoEJmEZAkiSIWh9gn4AVAt1dZZAIMK0Ur8YOvnRJ1eqAdJPIksX3VcO8x+YJFC9RAjZfiDQKkK4AcJZlIe3/wgSAoOF/H1T6MA0cvJsJMIGMCIhqBhAhAMhXEc0ANBPcuXPnyJzZ4bVSpcxOywn1S6B0mdL6dU6lZ+kKAFmWhLT/vyOgBuDSNVeE3lI/ZI+qegsV4qlwVX5vOLkDEwgIDELefPlUE6AmAGoKUGtIVEfA06fU9QNo074d3N3VN2uo5cHpxRGgocDVa34tzqDOLKUnAJQGUVl1jx8aqkNBbblFTf5TkZ/+1Z4KTs8E8H6FiqopUCfAAyfUrw0QlDceIvoYnT6lbiRA/vwF0KJVG9Vc2IA+CDg5OaFX375Chr7qo0SvepGmACji7x+kRM+iBFWbiKd/cmDXn+pXsJMkCe9/wL3/iScHJqCGwPuCRgPsF9APgMohohbgzJkzkJPUTVX+ba3vUK16DXKJgw0ToPkuOv3wg2HKdBsuRoaupykAEiXp9QxTGxFBRPv/rXAXnA5xMyK39KMEKlWX2bNnTz8SH2UCTCBDAtTprVDhIhnGyygC1QDIckaxMj5epnBsxpEyiBEVGYnLly9nECv9w5IkoWuPHhg3cSJy5syVfmQ+qksCtE7K3IWLUKOm/Vb9J4NPUwBIwOsQ8CeiBoAWEBHgCkqXKSvCDNtgAkxAIVBGwO8p/JEzzl5RL+5LFoxTPFK/nVbZDyDZg/JvvoVFy5Zi6IgRqN+wEcq/WR65c+dGrly5OOiMQb78+VDhg4pK800rjJ0wCVNnzAC1/T87l/b9P00BAElSfbekdrm8fgmqCf5+VH07ITnBAoAocGACYgi8VkpM7+h9x9T/vosUiIeri/qqBFECgAh7enrhg4qV0LJ1a6VGYDJWrFmLlWt/4qAzBstWrMKwkSPRoFFjvPnWm6Bp4un8OUJIWwDIUF0DIGL2Pyh/Iqr/PTw8UKRoMcUab0yACYggULhIUSHTJYvoB+DiLKOof7zqYp05fVq1DTZgPwTsvSSpCoD8+fNnUwrurwRV27uvxahKT4nvPnTGgyfqZ/8rUeI1h1J2xI4DE9CSAD0pFS9RUnUWxy+6IyZOaXRUaalkkPpmgLt376iaEEhlETg5E7AogVQFgLuzs+rqfypFaQEdc84JaB8kX0qVKUMvHJgAExBIQEQzQGKihAthbqq9EiEAZFnGzZs3VfvCBuyBgP2XIVUBIAkYAeDsLMM/t/r2/3Oh6i8MdBrLlFHdokFmODABJpCCQKlSZVJ8Mv+tCKFfsmCs+Q6kSHnjxvUUn/gtE7BfAqkKAFnACACa/Ifa5dSiOy9AAPj55UDuPHnUusLpmQATeIlA/gIFkMXX96W9pn8UMRKgRGA8JPUtCbhxnQWA6WfQ/lI4QolSFQAQ0AEwKI/6p386ASKeDEpz9T+h5MAENCFQSsBoABECwMsjCYF54lWX8cb1G6ptsAEmYAsEXhEAJUuWpDr3Emqdp+k51dqgjkEi5v8X0VFJbVk4PROwVwKFCxdVXTTqA0BTA6s1JKIfwHWuAVB7GuwgvWMU4RUBEPf0aQGl6KpX3QnMq16JX7zqhkR1M3MqRQH8/QMNr/yPCTAB8QT8AwJUG42OlXDlhurLDkoIGAlwk/sAqD6fbMA2CLwiAODsTAJAtfciagBEVP+7uLggT968qsvDBpgAE0idQAH/AKXtXX3ju4hmgNcEzAgYHh6O2FgxHQpTJ8Z79U7AUfx7VQAkSflFFD4or/o+ACJGAOTNl0/RNOrnERDBhG0wAXsk4OnpCVobQG3ZRAgAEX0AeCig2jPJ6W2FwKsCwElWXQPg4SYjd3b1AuB8qPoqQa7+t5WvIvtpywT8A9Q3s4mo8cvjlwgn9ZURuMn9AGz566jSd8dJ/ooASJLV1wCQClc7HEeWgfMCJgcp4O/vOGeTS8oErERARD+AMwIm/aKhxzmyJqqmwB0BVSNkAzZA4BUBAEl9DYCIDoDX77ogIupV90xl6q+0T5qahuMzASZgGoEAATUAD584484DZ9MyTiV2vpwJqew1bdfNGzwU0DRi9hPbkUryyh1WkqG6D4Be2v/pRIp4MiE7HJgAE0ibgKjf2c17LmlnYuSRfDnUCwCeDdBI2BzNpgm8IgAAATUAAibjEDEDYJYsWZA5cxabPkHsPBOwBQI02yZ1BlTr671HAmoABAiAW7duqS0Kp7dJAo7l9AsCIDAw0AOQ/KDyT8QQQBFVgfkLcPu/ylPJyZmA0QSyZVd96cC9h+oFQF4BAiAyMtLocnNEJmCrBF4QAM4Jzqqr/wlE3hzqO+E8FdD+7+en/oJE5eHABJhAxgSyZaNVxDOOl16McJ3UAERHR6fnJh+zUwKOVqwXBIDkkihEAHh7qp++70nkC66ZdV6yZFG/SIlZGXMiJuCABEQIAL00ASTEx4OCA55GLrIDEXjhLpsky/lElJ0W5VBrR0QNgG/WrGrd4PRMgAkYSSBbtuxGxkw7mogmABGdAMlDrgUgCo4UHK+sLwgASFImtQjcXWU4v2jVLJMRXANgFjdOxASsRSCrAAEQ/lh9HwBPDxm+PkmqMbAAUI2QDeicwAu3auWDp1p/vQRU/5MPIpoAfH19yRQHJsAELEAgm4g+AAI6AVJRfbzVC4CoqCgyxcFBCDhiMZV7/v+LLcuy1/8/mffO21M2L+FLqUQ0AWTx9X3JKn9kAkxAKwIiBICIPgBUPi939QKAawCIJAd7JvCCAACcVNcAeHuo/+ElJEqIiZNUc+dOgKoRsgEmYDQBEU0AcfESRNT+UTOA0Y6nETE6mmsA0kBjh7sds0gvCJgq4w0AABAASURBVAAZ6msAvJT2N7Uonwpo/3d3d4eHh4daVzg9E2ACRhLw8fGBJKkX7iJqAbzc1ddERkdFG1lyjsYEbJPACwJAkqGLGgARTwC2VP3/+PFjnDxxHJs3bcCaVSs4OCiDn9aswoH9e3Ht2lUkJqqfS8MalyRXV/UreD4Q0hFQfU1kFNcAWOMrZJU8HTXTFwSAAkG9ABDQB+BplPqniEw+qgc0KDi03c6cPoWe3bqgY7tWmDBuNOgGsHXLJnBwTAYkAOfNmYV+vXugdYsmWLF8KeLj47X9Egq27uKiXgAkqb93Q0gNAE8GJPjbweb0RuAFASA7QXUnQC8BfQBEdACUnF4omq64x8bGYunihRg7egRu3+Y5x3V1cnTiTFxcHHZu34b+fXoiJCRYJ15l7Iarm3oBoL7yHhDSB4CbADI+4XYRw3EL8cJd0kmWVdcAeAnoAyCiCcBJQFukVl+LubNn4Nfdv0CWRVzqtPKS7eqBwK1bNzFq+BDctpHFaVwF1ACI+Fl4CRkFwJ0A9fAbYB+0I/CCAJAFjALwETAPgD3XABw+dBB///WndmeULdsdAaoNmDtnJpJE1I1rTMfF1UXjHIwzL6QGgJsAjINt47Ec2f0XBAD0MgpAwEJA6nsRiP9aREQ8xbIlC8UbZot2TyD40kXs2rlD9+V0dXVT7aNeagB4IiDVp5IN6JzASwIA7mr99RRQ9RYZ/bJbpnulxz4A58+dQ0REhOmF4RRMQCFw9J+/lP/63lwF1ADIUC/fPdxk1aBiY2JU22ADeifg2P69fKeNVYsjLkH9j9fFWf2PV5LU+6GWxcvpQ0OvvLyLPzMBowmEhobqvt+IiFEARgNJJ6KQ65CAIY3puMiHmIDVCbwsAFTPfBErYAY/dwHqXZJ0KACuXLb6CWcHbJdATEw07ty+resCiJi/QEQTAM0oqBaUm5v65gy1PnB6bQk4uvWXBICkWgCImMLXzcU+awAc/cvG5bd/AjEiOs6p//kLmUpcrQCgkRurVqzEsCGD0Kh+PXzyYSUOOmTw2ScfoVXzphg3ejQ2rl8PR+r78YIAkCVZ9bgXEQLAXmsAAoMK2v8dgEuoGQEPD0/kyp1bM/siDEeLEAACHImJVV8DSNOJm+vK5k0b0aJZUyyYNwf7ft+LWzdvmmuK02lG4JnhxIREXA65jF927sD0qVPQ/PvvcfSfo88O2vl/p5TlU34yAmoAXjCZ0rzR791d1T8CxMfFGZ2fpSIGBgZZKivOxw4JBAYGQpKUX6mOyxYtYPpc9b9+IDZePSdzagASEhLQu0cPTJ00CUJqQ3R8ru3VtXv37irnsBsWzJ1rr0V8Xq4X79ZJUC0AYgUobzcBAuDJ0yfPC6mXN8VLlAAtmKIXf9gP2yJQ/s23de0wTWwVI6DnvLOTegkgoibSHAGwdPFi/PO3/kdr6PqLZCHn0suGvsurVq7AkcOH04tm88deEACyBLtpAnjyWH8CwMcnE75v2sLmvzRcAMsTKFykKD774kvLZ2xCjjTFNV04TUiSatTsWZJS3W/Kzti4Fy5tpiR9HtfN3bRR0efPn8OaVSufp+c3tk9g0oTxdj10+4VfiQT76QQYGRmhy5nT3nu/At56+x3b/2VwCSxGgJ5E27TtACcdr29BMKIFtf/nyKp+JUQRo5GIO5XL2LBo/jybXcXR2DLaTzzjSnI/PNzQMdC42LYX6wUBACTpogbAN5P6JwB6EqGZ9/R4Stq064gqn36u+/ZcPbJzNJ/y5MmLfgOHIHeePLovOg1TVOuks7OMrJnUC4AYAcORTREAdL25cP6C2uJzeh0SOHf2jA69EuPSCwJAgvo+AFExL5g0y0sRTwCUsR6bAcgv6l3cpFkL9O47ALlz6//CTj5zsCwBuvl8UfUrjBwzHoUKFbZs5mbmJmL4FFX/i+jnKEIAuLsZ3wRAvfx5lk8zvzhWSGZKljSDqynxbSnuC3frJEl9E8Ddh86qy589SyKcX/DMPJN67AiYsiSvlSqN8ZOmYsbs+ejRqy9q162PatVrcnBQBjVqfoPWbdtj1NgJmLdwKRo2agJXG5qN7uGD+ym/3ma9z+Gr/umfMr7/WP11yCeTD5kyKly9etWoeBzJ9gg8evQIT57or0+ZCJIv3GadkqSnao3ef+SMRJU1+E5KVQSJALW+PHn8WK0Ji6TPkiULyr7+BugGULd+Q3BwTAYkACtWqowCBfzh7Kz+BmaRL2+KTO7evZvik3lvRQmAuw/U88uWLbvRhchfIL/RcTmitQmYln9m5fqcOXNm0xLZSOwXBIAsJamerYJu/iQC1JZfRDPAUx0OBVTLhdMzAb0SoPHTan0T8bt/HOEkZCbA7NmNFwD58uWHp6eX2uJzeh0SKFasuA69EuPSiwIg0fmaCLN3HrqoNpNTQE9gW6kBUA2LDTABHRC4J6AGwE9AE8CdB+qvP9T0ksmEpz5JklC0WDEdnAV2ISMCph4v+VpJU5PYTPwXBEAc4q6L8PyugOq3HFkTVLty+/Yt1TbYABNgAsYR0EsNwB0B1x9Tqv+T6TRt3oxH9iTDsJPXLFl8UfObb+ykNK8W4wUBcP369WgliuqePLfvq29/y5VNfWega9eEVGgoSHhjAkwgPQI0DC783r30ohh1TEQfABHXn+x+xlf/JxesTNnX8W2t75I/8qsuCZjmVJeu3ZBFEQGmpbKd2C8IAHJbAlTXAtwVMBIgr5+AGoBbN0Fzc1O5ODABJqAdgcePHyFOwPobemkCMKX9PyXVFq3a4LVSpVLu4vc2SqBGza/x4UeVbdR749x+RQAAsurH5jv31bfBFcofb1wJ0omVmJiIW4oISCcKH2ICTEAAARHt/+RGHgHC/46AGshsJnQAJL+TA83xMXnadLRs3RouLuqvg8l2+VUMAWOs0BP/4GHD0KVbN2Oi23ScVASApF4ACGiDK1xAvQCgM3ONx+cSBg5MQFMCd+7cVm0/k1cS8udUX/Mnog+AuTUABIGGcNZv2Ahz5i9E/QYN8eZbb4KGktExDvokkCNHTlT4oCKatWiJRcuWodKH9v3kn3wWUhEAsuomgOt31SvfzN5JEDES4Po1nqAj+WTzKxPQisDlkBDVpksEiVnC+7aAGkhzawBSQggqGISWbdpg7IRJ2LB5CzZv34FN27ZzsBqD1Nlv3fELVv/8M4aNHIlG338PX1/flKfRrt+/KgBkJ9U1AFdvuyI2XlINTkQtwHXuCKj6PLABJpARgZCQSxlFyfD4awIEgCwDYbfVP4DQE2GGDpsYwdvbGz4+Phx0xsDTy9PEM2k/0V8RALKUpLoGgCYDunzdVTWlwvnVPxFc4xoA1eeBDTCB9AgkxMfjalhYelGMOlayoPrf+417LoiMfuWyZlT+KSMV8C+Q8iO/twMCXIRXCbz6S0l0UV0DQNlcvOpGL6qCiBqA+/fDIWKVMlUF4cRMwI4JhIWFChltU1JADcDFMPXXHQ8PD+TMmcuOzxgXjQk8I/CKAHDP7K40msuqe+Jcuqa+BqCIgI6AND5ZxNPJM1z8nwkwgZcJhIQEv7zL5M9urjIKCxj5c+Gq+uuOf0AAT+hj8hnUewL2LzUCrwiAs2fPxinf/nOpRTZl30UBP8Qi/nGmZJlm3LNnz6R5jA8wASagjkBIsHoBUNQ/Hs7OSgO+OldwQUANQEBAoEovODkTsA0CrwgAclt5aj5Jr2rCxWvqq+J8fZJQKJ/64YBnTv2rpiiclgkwgXQIXBZQA1AyKDadHIw/JOLBg2oAjM+RY9oCAfYxdQKpCgAJOAGVfzfuuiA6RrGk0k654uovDMHBlxAXq96OyqJwciZgdwQiIiIgYs2N1wR0AIxPkHD5hvomgIDAQLs7T1wgJpAagVQFgFIDoFoA0HCcS9fV1wKUKx6Tmt8m7aPpgM+fV92qYVKeHJkJOAKB8+fOCimmiA6AdPNPSFT/0BEYGCikTGxELwTYj7QIpCoAXBI8VDcBUIYXwtSr8XICagDIlzNnTtELBybABAQSOHH8qGprTso9u3hAnGo7IjoAurq6Ik/evKp9YQNMwBYIpCoALt68GK44f0MJqrbjF9xVpafEBfPGwzdTEr1VFc6cYgGgCiAnZgIvEVBqCnHixPGX9pr+kTr7enqo7wAoYghg/gIF4OSU6mXR9IJxCl0QYCfSJpDON11S3Qzw91mPtHM28ogkAeWKqW8GuHo1DE+fPjUyV47GBJhARgSuXL6Mx48eZRQtw+OV3ojOMI4xEY4JeODg9n9jSHMceyGQjgCAagFw5aYrwh85Q+2fiGYAelo5e+a0Wlc4PRNgAv8REFH9T6Yql1MvAGjq8RMX1dc4FitWnFziYDcEuCDpEUhTAEgyVAsAKH//nFNfC/BWSfU1AIorOHOahwMSBw5MQASB4wLa/328kvBmCfUjdE4oT/9xAtYfKVW6tAg0bIMJ2ASBNAVAUpIkpCPg32fVq/LXi8YK6Qdw/NgxJCWp709gE2eWnWQCGhJ4+PAhwkJDVefwQdloIRMA/XlG/YOGm5sbihYtqrpMbEA/BNiT9AmkKQAuX78cDMgR6SfP+OhfAvoBOCteflguKuPMMojx6NFDpRaAOwNmgIkPM4EMCZw8cQzUrJZhxAwiVC6vvvqfsjhyWr0AKFa8OFxc1Y9cIn84MAFbIKDcWtN0U4YsHUzzqJEHLoS64WlUetkYZ6jKW2IuFH8c2GdchhyLCTCBNAkcO/pPmseMPSBJwIc6av8vXaaMsa5zPJsgwE5mRCD9O7Mk7cnIQEbHk2Tg2Hn1zQAVX4+Gi4C5wv/5529eHTCjk8bHmUA6BJ48eYx/T6rvIkST/+TwTUwnJ+MO0XBjEe3/r5Xi9n/jiHMseyGQrgCQkKRaABAoEcMBqbPQO6+p7wxIUwL/9ecRcosDE2ACZhD4Y/9+JCaqv3FXLq++WY/c/1NA9b8kSXitVCkyx8FOCHAxMiaQrgAIDgs7odTSPcjYTPoxDpzwTD+CkUc/FtYMsN/IHDkaE2ACLxPYt/e3l3eZ9VnE8D/KWET7P43/z5QpE5njwAQchkC6AkChQDX4e5VXVduZy264Fe6iygYl/uRNMU8MNH95ePg9MsmBCTABEwhcungBN2+qniTUMKqnbFH1w/9i4iScvKS+iZGH/5nwJbCJqOykMQQyEgCQIAtpBtjzt/pagPy5ElAiUP2c4dR7+eAfB4zhw3GYABNIQUDU03+l16NBawCkMG3W2/3HPSGi/Z8FgFn4OZGNE8hQACRIkpD6vl//8hKC6pvKqkcmGvzg0QAGDPyPCRhNICYmBn8eOWx0/PQifv5eZHqHjT6285C30XHTi/hGuXLpHeZjNkaA3TWOQIYCIDQ09Lxi6qYSVG3UTidiOGCNSpFCJg65fesWLirVmaoKxYmZgAMR+PPIIZAIUFvknFkTIWJYLz35/3ZUfc1ikaJF4eeXQ22xOD0TsDkCGQqAZyVS3wxsCiTCAAAQAElEQVSQkChhr4Afq59vIiqWVT8agMq1bctmeuHABJiAEQT2/i6kMhC1qzwVIuL/OOGJCAFzjLz3fgUjSs9RbIcAe2osAeMEgM6aAb79KMLY8qUb7/ixf3DjxvV04zjawcjISJw69S+OHD7oMOHvv47g1q2bQma2s9fvS0hIMIIvXVRdPEkCan8s5ve747CYZsX3K7AAUH1i2YBNEjBOADg7C+kIuO+4J+ITlCuASlSfvB2FzN7q5/SnzoBbN29S6Y3tJ6eb/pLFC9GjW2e0bdUM40aPwMzpUx0mTJsyCb26/4A2LZti9MhhPF10Kl/pzRvXp7LX9F3vlooBdeY1PeWLKahGcc/f6gUAVf0XUZoAXrTOn2yZAPtuPAGjBEBISMg1xaTqpfSouo76Aii2VG3urjKqVhDTiejwoT/gyEMCjx87ij49u2HP7l9w5/ZtVefF1hNHR0fj7JnTGKsIoMUL5wtp77Z1JuT/tathoO8JvVcb6ijV/2ptUPqDJz3wJNKoyxdFTzO8+/57aR7jA0zA3gkY/QuSIK8RAWO7oF673woaDUAzmm3fukVE0WzOxp49uzFpwljQIkk257yGDlPN0G8Km+FDBiAhIUHDnGzD9OZNG4Q0j2TxScJn70YJKfTOw2J6/79f4QMh/rARvRBgP0wh4GR05KQkIQJg2x9eiIoxPtu0/CtXPBbFA9TPCUD2aWzz0ydP6K3DhHv37mLVih8dprzmFPTq1avYsO5nc5LaTRoaLfPnETFD/2pUigDV3qmFk5goYbeAYcXuHh7g4X9qzwant2UCRt+Jg69dC1EKelQJqja6+W87qL7tjpxoXkPMTTsuLg6/7NxOJh0mzJ87G7ExYkZT2DO0rVs34sqVy/ZcxHTLJurpnzKp84mYzn9/KNX/j54afemirFMNb775Jtzc3FI9xjttkwB7bRoBE39F0mrTzKcee+2vYubcrl4xEjSmOPVcTNu7e9cvSptvtGmJbDQ2Pf2fO3vGRr23rNtJiUlw1Emjwu/dw6GDYmbMLFUoDiWCxNTYrd4t5vrxHvf+t+yPiXPTHQGTBIDsLK1VSiArQdVGy3eGXHdVZYMSu7rIaFxVTC1AVFQk9uzeRWbtPlwOococuy+msAI6Kq8tWzYKWfWPTkSLGo/pRXW4+8AZvwno/e/i4oL3uf1f9fnQlwH2xlQCJgmAy5cvX1UyOKIE1ZuoWoD6nz+Fp7tqTWIoD1V3Pn4s5kJlMKjTf5cvB+vUM326dTUsFFQToE/vtPHqwYP7OLBvrxDjQXnj8dUHYkbtrFFqD5VKGdV+vfPee8iSJYtqO2yACdgyAZMEgKGgMoQ0A2zY6w0ay2uwqeKfr08SRE0MFBUVhVUr7b9jXGSEmIuxitNmU0nj4+MRG6d+5TpbKvSqFctB5Rbhc/taj4Us/EM3/rW/+ohwCZ9/8aVqO7QqIjUdzpg6FV06dkDrFs05WJGBufzbt26NcWNGY9PGDbhwnma+V/3VsBkDJguABEn+SSldkhJUbQ+eOOPXv9TP401ONK/+RMgFhmwdPLBf+RKco7d2G4KCguy2bFoULFfuXPD0FPNd1cI/0TbPnz8HmglShN0CuRJQo6IYwbnvqBduhbuodsvX1xfvvPuu2Xao8+zM6dPwfcOGGDNyJDasX4fTp04hJDiYgw0yuHDhPH7ZsQPTJk9G+zat0btHd9y9c8fs74ctJTRZAISFhd1SCnhACaq3n/aI6cwTkCcen74jZnwxFWrJ4gXC2j7Jnt5CYMFCenNJ1/4EBRXWtX8inUtKSsKPSxcJM9nuu8dC5v0nh1btEnO9+OTTT0F9AMimqeHSxYto1bwZ1v/8M2SFlanpOb5WBMTZ/efvv9GiWVPs2b1bnFGdWjJZAFA5ZAlC5gQ4cNwTV2+rV/Tk0w/1HwqrBbh+7Rp2/7KTzNplCAgIgI+PmKpUuwT0UqFKvlbqpT32+/G3PbtxNSxMSAHz+iUIa567qTz57zsmphbmczOr/6mJcMjAAbhx44YQPmxEvwSiIiMNzQLBwZf066QAz8wSAHEJCSQAotXmnyQDCzaJ6YhTpEA8aKIRtT4lp1/381o8evQw+aNdvbq4uKJJsxZ2VSatClOkaDFU+rCyVuZ1ZTci4inW/UQ/bTFutfn2MVyclR+5AHNrdvuArhdqTRUuXASFCptXozNn5kzcdvDpstXy1yq9FnZpFtBxo0eDXrWwrwebZgmA69evP5AhrRRRgHW/+eD+Y2cRpvBDvUfCLjgxMdFYuXyZEL/0aOTd9yrgrbff1aNruvGJJolp3aYDnJzM+pnophzGOvLT2tWIiBAzWU/ObImoLWjiH+os/NOvYqr/P//SvM5/Fy9cwDYHnTLc2O+PPcajfh3btmyxx6IZymT2lc1ZkmcYLKj8FxsvYcnWzCqtPEtOq4zV/VTMBYwsHj50EGfteMKcFq3aoPybb1FRObxEgDqKde7aHbnz5H7piH1+DFGqOn/f86uwwjWr9gRurrIQezRi6O5D9Q8JLi4u+LhKFbN8ok5+ZiXkRBYgoG0WJ0+c0DYDK1o3WwBcCg1VqEgHRfi+YmcmIesDkC8daj8SNi8A2Vu2eKHddgj09vbGD916ol37TvDy8qbiclAIvPvu+xg9diLKln1D+WT/G02FPWf2DNAiSCJK6+ebiAafPxVhSvntSZi9zleILRr77+vra5YtqgEwKyEnsnkCF86fs/kypFUAswWAwaCgWgBa1nP1LjGd0mhq4O+rPjG4J+LfjRvXQf0BRNjSq433P6iIqTNmo9+AwWjQsLFhhrTSZcrCUQItCPNVtRro0PkHTJg0zfDqk0lMlbNez3lKv9asXgFa9CflPjXvezZ6CG/PJDUmnqfdtN9bWEfhGjW/fm7X1DeXL/PsmaYys1R8rfOhfh+imsa09tVU+6oEgG/27OuUDGlYoPKiblu0JTOorU+dlWepW3/zGJm9xVyAyOLWzRtx6t+T9NZug4eHB0qUfA1fflUd7Tp0Rq8+/R0mdOvRB/UaNAI9+efKndtuz3FqBTt75rTQES+vF40V1vOfJv6Z9XOW1Nw2eV9QwYJ48y3zm7uyZctmcp6cwD4I0LXR20vMAnZ6I6JKABw9ejRekjBPRKFu33fBpn1iqqGz+CShe0NxPfipanTOrBl4/OiRiKKyDSagCwLR0dGYN3eWsKp/JwkY3OoBlGuCkPJt/cMbobfUrxlCztSuU5dezA5FihY1Oy0n1JKA9rbp3Et22hFYlQAg9PGyPFd5jVeC6m3+pizKxUi1GYMBWiOAViAzfBDw78mTx5g1c5rin5iOTQJcYhNMQBWBH5cuxv3wcFU2Uiam31zpQrEpd5n9nob8zfrJvPb6lzPNnj07PjGz81+yrSJFWAAks3C012LFS9htkVULgP9mBqSmANWQgq+5YvMBMbUA9DQyrM190Ktqx/4zQNWlmzau/+8TvzAB2yVw7Og/OLBfzGI/RCGHbyJ6KG3/9F5E2H7QGyE3xDz9f/3tt3BxVWfrrXfeQW4Hax4ScR61tqG1ffrefFm1qtbZWM2+agFg8FxOEjIkkGxNXpkVcfFKXSJ9UBnKFI4FPZWoNPNC8g3rfgLNlf7CTv7ABGyIwN27dzBfqfoX6fKAFg+QyUtMvxtZqWSbKejp38PDA9Vr1FRdVFoLolffvkrzhphrk2qH2IBFCDRp2hSBdrx2ihABEHL1Kg0HPC7ijFy/64LlO8T1wKa+ANmzJIpwzWCD5kqfNWMqnj4VM8zJYJT/MQELEYiNjcXkieOETfhDbld8PRpfVRCz4A/Z++WINy4ptYH0Xm2giX8yZRYzz0jZ199A7brq+hKoLQ+nT0lA2/clX3sNdes3gD3/CREABEiGPIJeRYRZP/uChgaKsJXZOwl9mojrEEg+PXzwAHMFjpsmmxyYgCUIzJszE7TWhai83F1lDG19X5Q5xCdImLDcV4g9yckJterUEWIr2Uibdu3Rp39/ZHKgYaLJZXeUV5r5s16Dhpg0dRqcndVPQKVnbsIEwOWwsA1Kzd0JEYV9FOGEOevFDP8hf76pHIG3X4uht8LCyRPHsX2b/U4RKQwUG9INAeq/8tefR4T6QxNv+edOEGZz8ZbMwnr+f/DBB8ibN58w35INffrZ51i4dBmqVa+BgMBAkNBIPsavliMgOqccOXOiYqVKmD5rNlq1aQNXlf1GRPunhT1hAkBxTnZKkgYrr0K2pVsz41a4mJUCyaFxHcMhanISskdhzaoV+OfvP+ktByagawInjh8TutAPFbZQ/ni0/kbcpFs03e+Mn7KQaSGhTr36QuykZoRGFnTt0QOLFCGwZfsOTJ0xA2PGj+dggwzGT5qMnzduwuqffsaQ4SNQvIT99vp/+bssUgAg+NqVzYD8z8uZmPOZ1giYvEpMVSDlT+sEDGzxgN4KCzQ/wMwZ03D+3FlhNtkQExBNgGb5my14CKuzcuUY3T5c2OJbVOZxy7IKmxL83ffeA7Xhkl2tA3UQLFW6DN56+x0OFmMgjnW58uWRNWtWrb8murSv/IzF+iUDg0VZ3LjXB+fD3ESZQ62PI/DpO1HC7JGhhPh4Q6eqq2Fh9JEDE9AVAZq/YuL4MYiKEvu9p6r/csXFjPknYMcvuGPTfjHTgVOVfMvWbcgsBybABNIhIFwAXA4L266IACH14jQZyMhFYqfgHNXuPmjMcjpMTD5EF9dxY0fi3r27JqflBExAKwI009+4MaNw+/YtoVmUV278JABEGaXf+bAF2UDD/0TYpEl/aOpfEbbYhj4JsFdiCAgXAOSWk5M0iF5FhMOnPLDuNzFPBuRP1syJGN0xnN4KDTRN8NhRI0BPXEINszEmYAaBeKVmapLy5B8WesWM1GknoVE1k7reAzUBpB3LtCPr9vjgVIi7aYnSiE0TtzRr0TKNo7ybCTCBlAQ0EQDBV67sAsQsFQzlb/SSbHjwRNxwjMrlooUtV6q493y7c+c2JowdjZiY6Of7+A0TsDSBxMRETJ8ySZMJq4a3vY98OcT1+n8a5YQJK8S1v9aoURO5ecY+S3/lLJwfZyeKgCYC4JlzScJqAWhY4IiFYpsC+jZ9gMIF4p+5KvD/lSuXMWXSBCQkJAi0yqaYgHEEqGMqzfJ3/PhR4xKYEOu7jyMgcsIfynrqal/cfyxG3FNnvIaNG5NZDkyACRhBQDMBEBIW9puS/z4lCNlojYD9xz2F2CIjnu4yZve+K2z6UrKZHM6cPsUTBSXD4FeLElj+4xIc/OOA8DwD88RjcMsHQu3+edoDy7ZlFmazdt168HXQ3tzCINqAIXZRHAHNBAC5KCc59VRek5QgZBs4JzuiY8TNxR2UNx7UnilywaDkgh45fAhzZk0HVccm7+NXJqAVAXryX75sCXbt3CE8Cw83GVO734OXh7CfsmGmzx7T/EAdAEU47Ovry9P0igDJNhyKgKYC4PK1y39DxnxRRG/cc8GkaqMP4wAAEABJREFUVeLaC8mvj8pHo0u9R/RWeDh08A+lOWA84uLihNtmg0wgmQCJzLlzZuKXnduTdwl7lRS9Pa5TOF4rKPY7TGJe5ERf9Rs2gpeXl7BysyG9EmC/RBLQVACQo7FJCf0AOZzeiwhUZSiqx3CyP+1rPcJngucHSLZNM7CNGzNS+DjsZPv86tgEqLf/1MkTcPDAfk1AdKrzCFUFLvRDTm7Y64NtB73prbBwYP9+0LBHYQbZEBNwAAKaC4Dr168/kODUF4L+EpOAPjOyg2YKFGQS9JQzvnO4Jp0CyccL589h1IihPESQYHAQRoBueONGj8DxY+I7/JGT1T6IROe6YmvHrt9xwZD5Yjv0kq+nT/2LPj17sgggGHYcuGhiCWguAMjd4LArC0VNDkT2LoS5gYYG0ntRgdYJ0KpTIPkYFnoFw4cOwv1wYZUhZJaDgxKg+SZGDh+iyVA/Qlq2SCzGKlX/9F5USEwCuk3NgchobS47LAJEnSm24ygEtPklvkpPdoLcXtmtXAKU/wK25TsyYfefYtv8gvLGY16/u6AlTgW4+IoJmpN92JCBCAsLfeUY72ACxhKgmf2GDxkEEpXGpjElXu7sCZjTV/zvgJb5PnZezIQ/aZWHRUBaZOxhP5dBNAFLCQAEh4UdkyHNEVmAPjP9ILIjEfn2VskYTOshdqYzspscHjy4j2GKCDhy+GDyLn5lAkYTOHniOAYP6AcSAUYnMiGip4dsEME5fBNNSJVx1BMX3SFypb/0cmQRkB4dPsYE/k/AYgKAskyS5P7K6z0lCNkeRzih62Q/UNWiEIP/GfnkrSiMbB/+3yfxL3GxsZg5fSpWr1oBGr4lPge2aI8EtmzagGcL+0RqUjxXFxkzetxFySCxPf6jYpzQbUoOJCZKmvidmlEWAalRse197L14AhYVAKGhoY8goZfIYvxzzgPT1viKNGmwRSsH9v7+oeG9Vv+2bdmE8WNHISpKmwu6Vn6zXcsSiFUE4/Spk7F2zSrNBKOzs4wp3e7hw3Lip7EeuiAbrt52sSw0JTcWAQoE3phAOgQsKgDIj5DQ0KXK6yElCNtm/+yLI6c9hNlLNtTq68egkPxZi9dT/57EoP59cePGdS3Ms00bJ0ArTA4dPAB//XlYs5LQRFjjO4fj83ejhOex87C30MW8THWQREDfXj15dICp4HQXnx3SgoDFBYBSCDnJSWquvAq72tBsYlTF+FDggkGKf4aNagGoNsDwQaN/tIjQkIH9ocUUrhq5zGYtQIDm8x/Uvw+uXQ3TLDcaAjuyXThqVBRfC3X7vgv6z86ume/GGj71779gEWAsLY7nSASsIQBw5cqVC7KE7iJB333gjE4TciBBg3bGUR3CQQuhiPT3ZVu0giBNHTxj2mRERES8fJg/OxAB+i4smDcHk8aP1fy7MKjFA9SuIv77JstAz2l+oH46ejh1LAL0cBbM94FTakPAKgKAinI5NHSOBHkrvRcVqBlAi0lGqIp0jCICGn7xVJSradr588hh9OvdHdQ0kGYkPmC3BM6dPYO+vXtg315aS0vbYvZq/BCNqz7RJJOxy7Li8CnxzXJqnGURoIYep7VHAlYTAARTdnFpobzeVYKwbfWuTFi8NbMwe8mGqKp0aOv7aF5Dmwtmcj70+vDhQ0PnwB+XLuZ1BAiIAwSa0nfFj0sxeuQwhN8TNlAmTXLdGjxE628ep3lczQH6/S3YlEWNCc3SsgjQDK2Ghtm0VgSsKgBCQkLuyrITiQCh5RuzJBv2HvMUajPZWL+mD9C+ljYXzuQ86JWGB+76ZQcG9u+tNJlcpl0c7JTA5ZAQDOjbCzt3bNOsl38yOmflFz+i7X3NvsPbD3pj1GLxU/0m+y/ilUWACIpswx4IKJcD6xbj8tXLWyFjjkgvEpOAHyblwKVrriLNPrdFT08Unu/Q8M3NGzcwZGA/LF28EJGRkRrmxKYtTYD6etB5HTq4P27evKF59jTD5Yyed1HvM22asv487YHuU/0UEaN5UVRnwCJANUKLGeCMtCNgdQFARYtOiKMOgRfovagQEeWEViNz4YEGIwPIR6oF6N/8AahpgD5rGZKSkvDr7l/Qs1tn/P7br8oFVtYyO7atMQE6n7t37TScTzqv9FnjLJHZOwlLBt/Bpxqtenk+zA1tx+REfILYyX4SsuSA7KyNkGcRoPW3ju3rnYAuBMDNmzej5CSnRgqseCUI267fdUE7DS5KyQ42q/YE9ETl6W6ZG/LTp0+xaME8DB7QF8HBl5Ld4FcbInDm9Cn079sTy5Ys0ryHfzKWXNkSsXrkbdA018n7RL7eDHdB8+G58FQR3SLtyq7uuN1qOu40Ha+5CIiJiRHpOtsSRoANaUlAFwKACnj52uV/JMhD6L3IcPS8O3pP90OSLNLq/23R5CmrRtxCTuUi+/+92r67cuUyhg0egHlzZoFWhdM2N7YuggBN6DN18gSMGTUc169dE2HSKBuF8sXjpzG3UNQ/zqj4pkZ6FOGEZsNygYbhmpo2o/j36gxEbL5iiCz14X8iQJvZBKkmoE/PHmARkNEZ4eP2RkA3AoDABoeFjQGkPRD8t/mANwbOya5UnQs2/J+5UoXisH7sLZQQPIf6f+ZTfaFOggf270X3Hzph5fJlePjgQarxeKd1CdCiPYsWzEWvHl3xz99/WdSZ90rHYM2oW8jrl6BJvrHxEtqMyoWQ6+Kr6B9XrIenb3713O9nImCCUhPAIuA5FAd4w0XUloCuBIBS1KTYxPg6yqvwbu9rdmfCiEXa9U7OnT0Ba0feAi0kpPhvsY2eWnZs34puP3QETR5z69ZNi+XNGaVN4MrlEEyfOgm9uv+A33/bg4R4oa1baWf83xGawnrJ4NvwzZT03x6xL1SjRh1tqYZNrGUgJuh13K/Z/RWzz0TAeBYBr5DhHUzAPAJ6EwC4fv36AyQ51wTkCPOKlHaqpdsyY8LyrGlHUHmEllKd3ecuWlhgroCXXU1ISDBMHtNbedKcNmUi6Ab0chz+rD0BauOnav5BA/rirz+PKLVOGrU9pVEUL48kTO9xDzSFNQ35SyOa6t1D52fH7j+9VNt52UBipuy4bWjzT/1JP7JUZW4OeBma3X7mgmlNQHcCgAocci3kNCSpsfJe+NVzzvosmPmT+NUDFV8NG80a2LfpA9DKat6e2jx9GTJK4x81Dfz915+gGxDdiOiGlEZU3i2IADGnxXpo3n5rMg/KG29oivryfW2Hi9LvZ8XOTILo/d+M7ORsuPknZvb7/85U3llCBNDaAVS7lkr2vIsJ2A0BXQoAohsSGroRkAZDg7/Jq3yxaHNmDSz/32S1DyKxZeJNUP+A/++17Du6+dMNiW5M1ngatWxpLZ8bVev//tuv6Nmti1LdPxnUOdPyXjzLkYb3bRh3C4ULaNvU8PNvPqDfz7Ncxf6/X7MbYgq+YZRRrUXAvydPgkWAUadCs0hsWHsCuhUAVPSQsCsjJEjr6L3oMGpJNqz8RfxTTEo//XMn4KfRt9C02pOUuy3+nm5MhvboHj9g7+97EBenTY9wixfMShlGRUVhy+aN+KFLB8OwTFrN0UqugKr5uzd8iFm97sLHS9sap3XKzV+r1f2evPctHldqYBJGgwhoMg6yc+rNBSYZSyUyi4BUoPAuuyKgawGgkJa9YqKaKK//KkH4Nnheds1FgKuLjAHNH2Bu37vw9dH2Ap0RoNu3bmHh/Llo16YFpk2ZiEMH/wDdzDJKx8eBiIinoFEXkyeOQ8d2rbB29Uo8fvTIqmjoaZ+G+LX77rHSYqatK7PXZUHvGX5I1GC1zajXKuFerf5mFSCy9Ee4wyLALHb6TsTeWYKA3gUA/r1zJ1K55lCnwHDRQGQZGDQ3O6av9RVt+hV7NDpgy6SbKF889pVjlt4RFxsL6icwe+Y0dGjbEhPGjQbVDDx9Yt2aCktzyCi/Bw/ug2bsowV6OrZrbZh34djRf0AL92SUVsvj1M+EevlvnnATZQpr+32i3v4klCeu0KbzbExAadz+fizgZP6lyNFFAPVBuXH9hvIb/s0wEmjyhAngYDyD6VOnYPPGDTh/7qzD1Y6a/6vT8gr3ku1Q5U+SpFqArMmA5qmrfTFkfnbNJgtKLk4evwSsHHEL/Zo+gKVmD0zOO61XGj1w8sRxQ81Ax/atMXL4EOzauQP3799PK4ld76dhlFS9T+sv/NCpvWHGvrNnTitPvom6KHdQ3njD2H7q5e/mKmvqE43z7zQ+J7To8EeOx+fwx+1W0yC7edBHVcFRRQAJ+fq1a+P7hvUxfMgQrFqxElu3bLb5YMkybFy/HlMnT1Yehtqi2pefG0SUtUW+qh+DCYltQgBQeYJDQ/cpl7s29F6LsHxHJnSdlEP4XOYv+0ptts1rPMGOKTfwwevRLx+26meak55U8I/LFqNr5/YYPLCvciHZBJrMxqqOaZz5lSuX8fPa1ejds6th3D5V74eEBFt8CF96xZQkoFm1J6BapDeKafvUT348jnBCkyG58MsR8UP9yD4N97vVZhYSvcXVvj0TAWMdok9AdFQ0Jk0Yjz49e4JmmQT/CSGQmJBoEFFtW7VE8KVLQmzq2YjNCACCeDksbJFyIexG77UI2w56o+WInIiK0R5L/lwJWDLoDiZ0CUfWzPp4ukzJlKoVaZnaNatWGHq5d+3SATSV7cYN63D82FFQ9XjK+LbyPjz8Ho4d/Rsb1v9sKE+Xju1AoyQ2bVwPWnlRj+Wgp/6Vw2+DFp/ycFNksMZO3gp3Qd3+efDPOfVP5qm5muTuhVutpyM+e77UDqvaF1n6Y9xpYv8iYPLECdi2ZYsqVvpNbH3PQq9cUa57XZXr3APrO6OhB9rf6QQ7HxwaOllpux8i2Oxzcwf/9UTDgdqtIvg8o//efP1hBHZNu4malSL/26PPl/B79wxT2a77aY3y5DEWdONs36aFYW771SuX4/Chg7h584ZunpppiB79iPfv+x1Uo0FNG21aNlNqNjpg8sTxWP/zWkN59CxkqFd/nyYPsX3KTc0W8nn523YhzA21+uRB8DXx0/tSXtRj/07T8YjNX4I+ahLsXQQc/OMA9vy6WxN2bPT/BJ48eYIpEyf+f4cdvrM5AUDn4PLV0KEypEn0XotwKsQddfvlBq0mqIX9l21SDcDEH+5hsVIjUDBf/MuHdfuZViekuQa2bd2MWTOmgmYhbNn8ewwd1B9LFi3Ab8pFiua/P3v2DMLCQkEigkYdUO2CmkJRU0VERATu3r2DsNArIPuUz/atWzBn1nT07d0d5MfA/r0xf+5sUJ8GatqIitK3yEpmotRyodbHEfh1xg20rPkYri5y8iFNX/8644F6/XPjzgNnzfK5V3cwooq/r5n9ZMP2KgJociJ7vykln0M9vJLYOrB/nx5c0cQHmxQAROJy2JXugLyA3msRrtx0xTe98uDIaW2qQVPzueLr0dihPO0NbvlAl80Cqfn88j4aYRAcfEl5QqUhgAoAABAASURBVNmFxYvmg5oNRo8YigF9e4GaEdq0bIomjeqhbatm6NalIwb0643RI4cp8SYaOt+sWvGjoT1+2ZJFhpv5pPFjMXzoIMNN/YdO7dCqeRND+natmxsWQjKkV+xTPqtW/gj6wdJqe4mJ+mtWeZlVap9fLxqLdWNvYUzHcPj5Wq4MOw55o+mwXHgapd0l4cFXnfD0rWqpFVuTfQYR8P0Yu+oTcOniBbuvltbky6DC6JFDh1Wk1ndS7X7tFih3SFgYdQpcrVVWD584o8nQXFi8NbNWWbxi19lZRuOqT/DbrBto/c1jaN3T+xUHLLCDagAiIyMNnZcMT/BnTivV8X8a1jLYvm0LNint8TT8jm7mx48fxcUL5w1L6NLIhJiYaAt4aPkscmZNNPQHoYmjtB7a93LpaI2MLhNzIC5eevmQsM+PK9TBwyrNhdkz1lBkmU9wh0SAkza1GpaeLOj8uXPGFt1G4+nP7QsX7Je5TQsA5auS5OuX/XsJ8lblvSZbYqKEkYuyoftUP8TEaXeBfNn5TF5J6NX4IXZNvwGaVpiqhV+Ow59tnwCd5851H2G3Ut1P/UEseZ5lpWVh3I9ZMXxhNk2HwNKTePh3va12sgwigDoG2oEIOH/uvNU4OmrGYaFhiIm2zwcPWxcAOHr0aHyCJNVWvpy/K0GzbdM+H9Ttlwc3w100yyM1w/lzJoAWFvp5zC28XyYmtSi8zwYJ0I2/U51H2Df3OkgAWHrhqLsPndFseC7M25BFU3oxQa8rT+CjAcm6lxqDCPh+LGjBIWjwZ6maAFc3y15/NECVrkk9HpQkCc4u9sndur9KiPkLDQ2NcY/yqqFY07Sx5sxlN3zdIw/+tGC/AKVMhq1skVgsG3Ib68fdwhfvRYFmgzMc4H82RYB69nes/Qh751xHl3qPkNnb8tND7/7TC191zYs/Tnhqyo5u/rdaToXs4qZpPsYajyxLzQHaioB+vXuBOuoZ65Op8YoXL2lqEo6vkkChwoXh6qrNqBiVrqlObhcCgCicvXc2wjsm+lNFrO2mz1qFB0+c8f3QXKB2U63ySM8utQ/P6HkXvyhNA3WqPIWleoin5xMfy5gA3fg7KDf+fcqN/4f6j5DFCutCRMdIoMV82o3NCerfkrHX5segav+b7eciycty/WeM8VZrEXDyxAloKQKKlyhuTDFtNI4+3S5WzH6Z240AoK8OrRvg5uVVDRLW0metAvULoHbT1qNyIvyRNp2LMvI9KG88RrW/b6hCpnnhvT0t/ySZkY98HKAFe4a2vo+D86+jq5Vu/HQeaGhrjR55sWZ3JvqoaaAOf7ebjdfNk//LhbVlEVC4SFHkyy9+AqWXGfHn/xP48KOP/v/Bzt7ZlQCgc3P27Nm4kNDQ+hIwmz5rGX77xwtVf8iLXUqVqpb5pGebeo/TvPB/KDeYIa3uo0RQXHrR+ZgFCNBIDmqmWT7sNnZOvYGGXzyFtQQaLeZDK/nV7pMbNLRV6+LTUL/wWn0BK7f5I4M/EgF3NRwdoFVNgIvSFt2zdz84qVg8KQM0Vjusx4y/ql4db5Qrp0fXhPhkdwLgPypJwWGh7QF5+H+fNXuhJoH2SpVq7xl+iNBwDHVGBaBOZY2+fIotE29iw/hbqPeZ9W46Gflqr8dz+CaC2vf3z70OaqZ5t5R1O21Sh9WGA3ODVvJLSFQksYbgaYa/uw2GW2Won7nFiihbBbYoAkqXKY1vvv3O3GJzOiMJ5MyZC23bdzAytm1Gs1cBYDgbIWFhgyCji/JBVoKm27rffAwdq2g2NU0zMsJ46UKxGNH2Po4svIbRHcJhicVjjHDLLqPQqo40THNOn7s4oNTCUPt+rmyWm8AnLahbDnjjK6V26u+z2k9kRXP732451aKT/KRVblP326oIaNO+PVq2aQP76Zxm6pnTNv5bb7+DaTNnwcvLS9uMrGzdrgUAsQ25GjpNhtxYea/5HLs37rmg0aDcGLM0q6aTqihlMWrz9JBR+5MI0OQy1GmQ2qC5icAodOlGoo6XH78Vhcld7+GvxVcNwzSrvB0FF2fNdWa6ftFBqoXqPiUHuk7OAS1n9aO8KNCqfjc7LrDI9L6UnxbBFkWAs7Mz6jdoiLkLFqJc+fIsBAR9MfLkzYsevXtjzPjxyJEzhyCr+jVj9wKA0F8OC1uhNAfUVN5HKUHTjdpcF2zKgq975sHxC+6a5mWK8UL54kG90KmJYO/s6+jb9AHKFY+FJJlixXHjuig39wplojG6fTiOLLqGeX3vonrFSJDI0gsVWr2vWre82LTf2yIuxefwx40uSzVd2MciBVEyMYiAxqM1mydAqz4BAYGBGD9pMrbu/AWz581H1x49DDUDVDtgS8GavrZValPGTpiADZu3YPmq1fiy6lfKN8IxNocQAHQqleaAHYoI+FR5f08Jmm8Xr7qhTr88oL4B9x9bZ6RAWoXMnysBLWo8wdpRt3Bw/jVQL/WKr0fr6maWlu+W3B+QJx6NvnyKucrN/uiya1g65A5qV4mwyhC+9ModGe2Escuygtr7LbWAVUxAacPNPz67/fRIj3j9U9y1QRFA3w3qHFi0WDFUq17DUDNAtQMcGhrFonbdenjzrbeROUsWQulQwWEEAJ1VRQQcUuppyytC4B/6rHWgqVapb8CnHfNh2fbMSNThSL2cSns19VKnlQiP/3jVIAq6N3yID8pGO5wgyOSVhM/fjcLwtvdBtSR7Zt4Ajaz45K0oWKsXf3rfUfp+rf/dB/T9mr8xi8W+X1GvVcLN9vOQ6O2bnns2ecyWRYBNAjc4zf+sRcChBABBDgkJuZYoSRUhYwks9Pck0gnDFmTD1z3ygqppLZStydlQNTc1C7T77jGWDL6DlILgw3LRILFgslGdJqB2fOosSeKHOkpum3wT/yy7ipm97qL+Z09BtSQ6dd3g1smL7qjVJw96TfcDTetr2GmBf0/e+xa3mk+G7KZ950ILFCfVLFgEpIqFd9ohAYcTAHQOQ0NDY0KuhjaTINMYD807B1KeFM6FuqFe/9zoMdXPahMIkR/GhpSCYOGAOzi04Br+XnLNMCVx/2YP8O1HEYZ5B/S+YqFvpiTQMrvUIZKaO2iY5L8rrxqGS9Jn2l8sIA7ONvBroJt9z2l+qNU3D05eslwfE5pDP/zrHrhXZyDgAGPQIwzNAaNsrk+Asb9tPcVjX6xHwAYuedrBCQ4LmwU5iaZ5uq1dLq9a3rjPB1WUZgHqLGjJFQZf9cT0PVkzJxoWJWpW/QnGdQoHdSo8pdxMf5l2A4sG3sHIdvcNnQ1JHNA4eGpH11ogUEe8vH4JhuGOtKIezbFPPfRp3YRjSrPGP0uvghZToid9euKnJ3+qATC99NZLEZ8gYe6GLKjSIR827PUBVf9byptEn2y41X4uHn/Y0FJZ6iKfiNc/w93G2ouA2JgYXZSXnXA8Ag4tAOh0h1y9etAlKbG88v6wEiy20XAtGi74Udv8WLI1M2LjJYvlLTojZ2cZhfLHo9Ib0aj76VPDlLckDmgmPGpHP7M6DH8pNQe/Km3qG8ffxIphtw0d6yZ2CTd0QOzZ+CHa13oManqgiXQ6131ksNGj4UP0Uo71afIQ/Zs/AE19PKv3Xawcfhvbp9zEoYXXcHZNGE6tDMP+edcNwx0nKDZplT3qoU/rJmS2wmI7IvlSvxFaifLzzvkw/sesiIqx7E821r8UrndfiehC9BMRWTLbsJUsArSq9Th54gT69u4NxxUBtvE9sFcvLXs10SnFC9eu3XT39qoMGXMt7eK9R84YsSgbPm6XHyt2ZgI96VnaB63zo6GG2ZSag8A88ShVKA7vlIoBdayr+WGEYZrcNt88RrcGD9FdueHTRDqdFQFAQxbbfvcYrZVjLWs+RrNqT1CnylN89k4U3n4tBkX940DTIGtdu6A1m7Ts042fnvQ/75QP3ZUmo6u3Lb8c6ZP3a+FGp4VI8M2VlpsOsZ9EwJ1Go6CdCDjOIsAhvkn6KyQLgP/OiWENgauhbSXILZVdFq+Tu/PAGYPnZccn7fOBFmxJSJQUN3hzNAK00BSNHPlMufFTW3/oLVeLI6Dle+/WH4J7tfvrdkEfS0OJeONzsAgQT50tWpcAC4CX+AeHhS10glzOUkMFX8oeNH97/9nZDX0Efv7NB3RDeDkOf7Y/AnSef9rjg0+VGz/NHRFmhRs/UU3M7IcbPyzF07dr0kcOKQiwCEgBg9/aBQEWAKmcxkthYecKhAW9J8sYrByOV4LFt+t3XNBnhh8qt8uHOeuy4OETfU0mZHEgdpohdQKlGp9POuZD35l+uGqFqv6UaJ0iH8Pl4Z2Uu/h9CgIsAlLAUP2WDVibAAuANM7AXuxNuHw1dJgE+R1APp1GNM133wp3wYQVWfFBq/yGG8S5K26a58kZaE/g8g1XjFyUDRVaFgDV+JDg0z7XjHOQEuORa0lPeJ/el3FkB43BIsBBT7wdFpsFQAYnVWkSOC65ur4pSRirRLXaXH40SoCqiKt3z4v6A3Jj52Fvbh5QTogtbVTNv/OwF74fkhvUq3/x1sx4HKG/n+AzEdBDEQF7bQmvRX1lEaAeN1uwPgH9XX2sz+QVD4KDg2ODQ0P7KDUBFSHh0isRLLzj77Me6Dg+x/PmgfBH3Dxg4VNgUnbUwXPqal9UbJNfOW85cehfD4uO4zfJ2f8iS4kJ/9UEsAj4D8krLywCXkHCO2yMAAsAE04YrSUQHRf3uiIEZijJrL72a3LzAFUjNx2aC9Rp0BJLwCpl5y0DAtExErYf9EbbMTlRqXUBTF/ri7sPbEuosQjI4CQrh1kEKBDM2jiRHgiwADDxLNy8eTNKEQKdFBFQRUl6TglW32jM+B8nPQ2dBt9pVgDtxuY03Hyog5nVnXMgB4g3VfF3npgDbzfzB73++pcX6PzYKgYpuSbg1O+2WgTN/TaIgIYjwfMEaI6aMxBMgAWAmUAVEfBbgbDAMrKEroqJR0rQxRYXL2H3n16Gm8/bTQsYJpHZe8wTPK+ANqeHeNNNvutk5aav8O44/pn4io6VtMnQClYNImBpL3izCEiTfkS5L3CHRUCafF4+wJ/1QYAFgIrzYBgpEBo6xTnerQiezSJotU6CqRUjKsYJNI1syxG58GaTAmiv1Ays2pUJ1++6pBad9xlJgPpcbD7gbRBXbys1LlTNv0X5TLyNNGFz0VgEZHzKWARkzIhj6IsACwAB5+PizYvhIVdD2yY5SeUUc7ocP0VrD+xSagYGzsmOym3zg2aaG74wG6h2wJ6eVhX+wrdopT2fOI1cnA1fdc2Ld5sXQDfliZ/EFXEVnqFODf5fBPymUw+t79YzETAC0GjFxJMnjtvBtMHWP0/swTMCLACecRDy/8qVKydDwkIrS7JURzEYpgTdbjQOfem2zKDagfLf+6PJkFyYtyELaIRBlFJzoFvHLeAYNZccO+9u6LhHQy7faOxv4LR4S2ZcCHOzgAfmZ5EpUya0bN3Fll+bAAAQAElEQVQGJUqWNN9IOimfiYDeSnMAi4C0MEWU+1JpDmARkBYf3q8fAiwANDgXwVev/BSbmFDiv5kEozTIQqhJasc++K8nxv2Y1TDHwOsN/fFFl3zoNd0Py3dkwslL7qA4QjPViTGaX4HKt/KXTIYJeb7umRel6/ujTr88oKF7JIhIEOjE3TTd8PDwQINGjbF89RrUb9gQYydMZBGQJi3tD1hCBPTrY5urCGpPn3MwlgALAGNJmRjv+vXr0YaZBBNcigHyfCV5nBJsYkuSgeBrrlj/uw+GzM+O73rnQZkG/qjZIy+oCWHZ9szYd8wTV2662szqhVQmGjZJN3Tyn+bbr6ZU51O5qHyD5mY3LMJ0OsTNZspEXyYXV1fU/OYbw42/RatW8PHxod3w9vbGOEuIgH/3GPLjf68S0FoEnDh+HCwCXuXOe4wnwALAeFZmxQy+EXw9JCysNVycC8uQZipGLL7SoJKn6o2egs9cdgN1Ihy2IBtajMiFTzvmQ6l6AYY+Bd8PyY0Bc7Jj/sYs+OWIF85ecQPdcC3VnEDLKFN+dIPfuM8HM37yNUyd3HhwbnzULj9K1glAxdb5DTUc5D+tuHc+zM1mZ1OUlDbmTz/7HEt/XI7OP3RF1qxZXznHXpYQAcv6wJtFwCvsk3cYRECD4dCqT4DtiYBkMvyqBwIsACx0FkJCQq5dDrvSMQFyQRmYrGSr+6YBxccMNxrjTqMKaHa71bsyYeyyrOgwLidqdM9ruOHSE3bx2gGGjnOfd8pnqFpvNTIXekz1w4hF2TBheVZMXJEVk1f5YooSpq3xNbS90w181s9ZDAsh0WJItB7C4HnZQcPtSHzU7pvHMJ3u+y0KGERIiRQ3eLJNtmjq5MOnPHDtjotdDYN8v0IFzF+0GH3690fuPHnSPUcWEQFLe7MISOcsRJSvijssAtIhxIesRYAFgIXJh4WF3bocFtpNcnUJfLa+gBxhYRcsnh3VHtDQuZAbrqDOdb8f9QQ9pS/Zmhlz1mfB7HVZMFN5YqebPgkAanunG/iklVlBN34KJAJW7MwEGm5HzQ/HL7gj5Lor7j50Bk3AY/FCWThDJ+WJv1Llypg1dx6GjxqNoKAgoz3QXAQkJSIXiYCT3ByQ1kl5LgIkbS65tlITkBYf3m8dAtp8G61TFpvKNTg4+B6tLxCbmBgAyMMV5x8rgTcm8AIBDw8PfPPtd1i2YiUGDx2GYsWLv3Dc2A/JIqBkydeMTWJSPIlEwDKlJoBFQJrcSATcbTAMYBEA/tMHASd9uOG4Xly/fv1BSFjYINnZKUB+1kfAcWFwyZ8TyJYtG6hT3+qffkbHLl2QJ2/e58fMfUMiYOyECWARYC5B9emevvkVHFcEqOfHFsQSYAEglqfZ1i5fvvxYkuStZhvghHZBICAwED1698bKtT8ZhvVlypxZaLksJQJ8Tv4q1G97MsYiwJ7Opm2XhQWAbZ8/9t4OCFD7/rvvvYdRY8dh4ZKl+LLqV3B1ddWsZJYQATmX9QGLgLRPoSOKgLRp8BFrEWABYC3ynK/DEwgqWBBt23fAmnXrMXLMWLzz7ruQJMkiXCwmAk7stkh5bDETFgG2eNbsy2cWAPZ1Prk0OieQJUsWfPtdLcyZvwALFi9B7bp1Qe391nDbIiLgx77wYRGQ5ul1HBGQJgI+YEUCLACsCJ+zdgwCLi4uqFCxIoaNGIm16zegQ+fOKFK0qC4KzyLA+qeBRYD1z4GjesACwFHPPJdbUwLuHh6o8MEHhg59dNOnmz+JABIDmmZshvHnIuA17YYI5jTUBOwywzvHSGLvIsAxzqLtlZIFgO2ds3Q99vf3R7sOHfH2O++CbkLpRuaDQgn4+eVAtRo1DJ35Nm7ZimEjRxk69FG1v9CMNDBmEAHjJ6CkpiKgn9IcwCIgrdNnEAH1hwIazhPQv28fxMbY5Gzk4D/xBFgAiGdqVYvePj6oVacORo8bh01bt2HC5Cmg1eGKFiumXFf4dIs+OVSV/33TZoY2/TXr1qFr9x6Gznxubm6is9LcHosAzRFnmMHTt6rhroYi4PixYyAREBdnybXJMiy2zUaQk5IQFhqK3/b8itOnTtmcuOI7gs1+9TJ2nIaSvVGuHFq2boPZ8+YbBAENNavXoKHhSU+P1dHQ8Z8kSQgMCjI85dM8/HTDp858TZo1002bvlp8BhEwYaLh+6HWVmrpDTMGUnPA8V9SO8z7FAKWEAFDBw9CQkIC+M88ApdDQtC7R3dUr/olmjf5HiOHDUOXjh1Q7csv0LpFc+zeZRvfbxYA5p1/m0xFS8TSULNWbdpg+qzZ2Lxtu6GGoHGTpij7+htwd3e3yXJp5TQ9xZcuUwYNGjUyDNPboFTr0zj9rspTPq3ER1X+WuVtTbteXl4Yq6EIgPLUlGu50hzAIiDN0/xMBAwBNGoOOHLoEEaPHAF6goXGf/ZkPjExET8uXYp2bVrjn7//RnR0NFL+JSnf7ZDgYIwZORID+vbF/fv3Ux7W3XsWALo7JZZziPoIUA1B0+bNMWnqVIMgmDF7Drp064aq1aoZnmpdNJyQxnIlzTgnKictsFP5o4/Qpl17kEDasn0HpkyfgRatWoMm6smUKVPGhuwkBosA65/Ip29VV5oDtBMBe3/7DRPHj4csy9YvrI14MHbUSCxZtBAJ8fEZenz40EG0b90aT58+zTCutSKwALAWeR3mSzfBEiVLokbNr9G9Zy9Du/a2nb9g0dJlhg5tNGkNdXIj0ZAzVy6LTVojEhU1i9AEPB998gmaNm+BIcNHYPGPy7H9l11YsGQpBg4Zijr16hmqwImHyLxtzRaLAOufMa1FwI7t2zB39iwNC2o/pvfv3Ys9v/5qUoHCw+9h+tQpJqWxZGQWAJakbYN5UT+BgMBAw5A2mrSmq1L9TR0LV639Cdt37TZMXUu93emp+etvv8X7FSqgcJEisEbPd/I1R44cKFasON57vwK+qlYd1LxBNRrDR43G0uUrDD7TBDwDBg1WjjVBxUqVQCMnnJ2dbfDsaO9ysgh4rVQpbTJTqky5OSB9tFqLgJ/WrMHBAwfSd8LBjz5+/BhTJk00i8Ke3btx8I8/zEqrdSIWAFoTtmP71EYeGBRkEAf01Nypyw+gG+3cBQuxfvMW7P59LzYr1ehr16033Hypw9zkadMNIxQGDR2Knn36GFa6o06KDRt/j29r1cKXX32FT6pUwedffonqNWviu9q1DW3wTZVmitZt2xrid+vZE9QJb/DQYRg3cZLhyZ3y2/nrHqz+eR1mzZuHEaNHg+JROqrRIGGSv0AB0Lz7dnxKNCkaiYAx4ydAcxFwbKcm/tuDUYMIqDcYWvUJGD9uLO7duwfRf/Zij9r7SQSYWx4SAeam1TIdCwAt6Tq4bbrZUsfD7H5+oJsvDZkrU7asYY6CDyt/hC++rIpvvv3OMEyxecuW6NCpM3r06o1+AwehV5+++KFbd7Tv2MnQBk9P8nXrNzDEpyf7Tz/7HJUqV0b5N98Etd1TjYMkWWYefUc8rRYRASv6w4dFQJpfr6dv18BdjUTA0ydPMHrEcHCnwNTxX7xwIfUDRu69eFFdeiOzMTkaCwCTkXECJuCYBFgEWP+8aykCTp44gRXLlwsspP2YuqTyBn7r5k1ddgZkAWA/31EuCRPQnIDlRMAOzctiqxk8EwGDAEn85Xvp4kW4cuUK+O9FAndu335xhxmf7t65Y0YqbZOI/wZp6y9bZwJMwMoELCMCBijNASwC0jrVT9+uqTQHiBcBNI594bx5aWVr0n57iixipKQMWXdIWADo7pSwQ0xA/wRYBFj/HGklAmj8Ok1ra/0SsgdaE2ABoDVhts8E7JRAsggoVbq0NiWkIYIrlJqAo9u1sW8HVkkE3KvdT3hJ5s+do9ImJ7cFAiwAbOEssY9MQKcESASMHjcemoqAlQPhwyIgzW/Ak/e+w6MPG6V53JwDVANANQHmpOU0tkOABYDtnCv2lAnokoBFRMCKgcj0zzZdll8PTt2v0RVRxd8X6sqPS5aabY8T2gYBFgC2cZ7YSyagawKaiwA5CTlXDmIRkNa3wMkJd74fg/gcAWnFMHn/hQvnceXyZZPTcQLbIcACwHbOFXvKBHRNgEQAzRioWXMAi4B0z3+SZybcbj4RspO4aa137tiRbp6pH+S9tkKABYCtnCn2kwnYAAFPT0+wCLDeiYrLXQhP3/1GmAO/7t4FWgJXmEE2pCsCLAB0dTrYGSZg+wRYBFj3HD74vA1kNw8hTjx6+BB/Hjliki2ObDsEWADYzrliT5mAzRD4vwgoo43P3ByQJtfEzH4QOSpg965f0syLD9g2ARYAtn3+2HsmoFsCz0QADRHUWAT8vVW3DKzl2KOPmyLJK4uQ7E8eP26CHY5qSwRYANjS2WJfmYCNEbCICFg1GJlYBLzwzUjy8EZEmY9e2GfuB1oG9/q1a+Ym53Q6JsACQMcnh11jAvZAwHIiYIs94BJWhqhSlYXZOnP6tFG2OJJtEWABYFvni71lAjZJwDIiYIhSE8AiIPkLElX0XWGdAc+eOZNsll/tiAALADs6mVwUJqBnAiwCLHt2ZFd3RBV7T0imZ06fMsIOR7E1AiwAbO2Msb9MwIYJWEwE/LXZhimJcz2qRAUhxkLDwpCUlCTEFhvRDwEWAPo5F+wJE3AIAskioHQZDUcHrB6KTCwCkJAtr5DvlKzc/B89epSuLT5oewRYANjeOWOPmYDNEyARQKsIsgjQ9lQmZM4hLIMHD+4Ls8WG9EGABYA+zgN7wQQcjoDlRMAmh2ObXOBEgQLg4YMHyWZTeeVdtkiABYAtnjX2mQnYCQHLiIBhSnOAY4qARO8skF3chHxbHtxnASAEpI6MsADQ0clgV5iAIxKwmAj4c6Mj4kWSV2Yh5X74MG0BICQDNmJxAiwALI6cM2QCTOBlAiQCaBVBTfsErFFqAhxQBDhFPXkZt1mfZdmsZJxIxwRYAOj45LBrTMCRCHh4eBiWEtZOBMjI6WAiwCnqMaSEOCFfIw/PtFYYFGKejViBAAsAK0DnLJkAE0idQLIIKFO2bOoR1O5VHmNJBGQ+4hjNAS6P76kl9jw91dI8/8Bv7IIACwC7OI1cCCZgPwRIBNAQQS1FQI61w+AIIsD5SbiwL4aHh2eqtnin7RJgAWC75449ZwJ2S8BDaQ6wjAjYYLcMqWCuD27Si5BA50SIITaiGwIsAHRzKtgRJsAEUhKgG472ImC4UhNgvyLA68KhlEhVvffx8U4lPe+yZQIsAGz57LHvTMDOCbAIMP8EU+c/z/OHzTfwUkr/gMCX9vBHWyfAAsDWzyD7zwTsnIDFRMDh9XZF0vPSX3CKjRJSpux+fsic+dX5BIQYZyNWI8ACwGroOWMmwASMJWAREfDTCGS2IxHgfep3Y/FmGK9gwUIZxuEItkeABYDtnTP2mAk4JIFkEVD29de1Kb8sI4ediAB68vf+9zdhnAoWSk0AHA4v2AAAEABJREFUCDPPhqxEgAWAlcBztkyACZhOgETAqLHjoL0IWGe6czpK4fv7MjhHPhLmUSEWAMJY6skQCwA9nQ32hQkwgQwJWEYEjFSaA2xTBDhHPECWvT9myNGUCMVLlnwlOu+wfQIsAGz/HHIJmIDDEbCYCDj0s82xzfrLPGGd/6jwVP2fL18+euuwISpafWdKN1cxqzKKPAksAETSZFtMgAlYjIBFRMDPo5DZhkSA691QZD4stuai0oeVUzmnjrPr9u3bePpE/YJKNJJCb9RYAOjtjLA/TIAJGE2ARcD/UTnFRiL34u6QEhP+v1PAuw8rVxZgxXZNXDh/TrXz7h4e8PbW30RKLABUn1o2wASYgDUJ/F8EvKGNGzQ6QO81AXIScv3YD263Lwtl4B8QAAovG3WkzydPnFBdXL/s2VXb0MIACwAtqLJNJsAELEqARMDosWNR9nXHFAHZt82A15n9wpl/WPkj4TZtyWBw8CVs27JFtct+OXKotqGFARYAWlBlm0yACVicAFWzWkIEZNm/0uJlSy9DavP33bM4vShmHXN1dUX1GjVSSesYuxISEjB+9BjQq9oS58mTV60JTdKzANAEKxtlAkzAGgQsIQL8NoxHzlWDQXPtW6OMyXlSW7/f+rHIsXZE8i6hr19UrQo9dlwTWsg0jEVFRmLcmNGgGoA0opi0+5133zUpvqUiswCwFGnOhwkwAYsQ0FwEKKXI9Ndm5JvWFC4PbyufLL85P72PvLNaI8uB1Zpk7uzsjHoNGqZq2953/vP332jRrCn27N4tpKhUk/LWO+8IsSXaCAsA0UTZHhNgAlYnYAkR4H7tHPJPrA+v84csWl7PkKOGfD0uH9cs30+qfIrcuXNrZp+q1cNCQw1P2PSUbc1w4cJ5/LJjB6ZNnoz2bVqjd4/uuHvnjrCyv/5GOXh6egqzJ9IQCwCRNNkWE2ACuiFgCRFA0+3mmdsBeWe3gUfov5qWnQRHnnmdkHdGS7g8vqdZXpKTE+o3apSGffN337h+HZMnTEDbVi3x1Refo3mT79GmRQurh/atWxuq+zdt3IAL58+bX8A0Ulb44IM0jlh/NwsA658D9oAJMAGNCCSLgNff0Gh0wH9+e178C/mmNgHdoN2vqx83/p9Zw4vbzUvIvagb8k9qAK9zfxj2afnv66+/gb+/v7AsZFnGhvXr0KpFc2zdshmXLl5EQny8MPt6NuTl5YVKlSvr1kUWALo9NewYE2ACIgiQCBg1Ziy0FgHkK92g809sgPwT6iPbjlnwCDsFyEl0yPig3DDdr55Gtp2zlZt+QxSYUBfeApf2Tc+RPHnzomWbNmlGMefA0EEDMWPqVMTGxJiT3KbT1KlXH1myZNFtGVgA6PbUsGNMgAmIImBJEUA+u984j6y75iPflO8ROPAT5Pqxr0EQZDm4Ft7/7gE1F7jeCwMJBLq5Zz74k+F4ruX9ETioCvJPbgya09/92llFQMhkUvMgSRJ69u4NDw8PYXlt27oFB/aLn59AmIMaGsqWLRtq162rYQ7qTbMAUM+QLTABJmADBCwtApKRUD8Bn2M7DYLA7+fRyL24B6i5wH/U1yCBQNX7OX4eZTjuc3Q7aDW/5LSWfK3x9dcZTKRkmjd37tzGnJkzTUtkR7G/b9pMqJjSAg0LAC2osk0mwAR0ScBaIkCXMFI4lTdvPrRu2y7FHvVvd2zbhqioKPWGbNBCUMGCqFqtmu49ZwGg+1PEDjIBJiCSAIuAF2lmypQJI8eMyfBp9cVUGX+6cP5CxpHsMEamzJkxbORI0FwKei8eCwC9nyH2jwkwAeEEWAQ8Q0qT1AwbOQpaLPgjYhW9Z17azn+66Q8ZNhxUo2ILXrMA0NNZkuU4te7QBBtqbXB6JuAIBJJFwBvlyjlCcV8poyRJ6N23H8qULfvKsVd3mLaHevw/efLEtER2ELtjly6ajjYRcX2XU9xnWADo6EunnIxbat15cP++WhOcngk4DAGDCBg7Dnqdq13LE9GydWt89MknmmRBXPPmy6eJbb0abdykCWrU/FpT9+4LuL6nvM8o7zX1l42bQCDR2fmmCdFTjfrg4UMkJZk47jhVS7yTCTgGATc3N6XNdpSuJ2wReSYkSUKrNm1MmuvfnPyLFy9uTjKbS0Pfn34DBqJp8xaa+34/PFx1HolOTs/vMywAVOMUZ+Dy5cuPFWuqus3Kys3/wQOuBVA48sYEjCbg4uKCgYOH4NPPPjc6jS1GpDb/AYMGa37zJzalypShF7sO2bNnx6Sp0/DJp59qXk5qUolXPYOinHDlypXn80izAND8tJmagfxcnZmaMjn+/XAWAMks+JUJGEvAyckJvfv1wzfffmdsEpuKlzlzZkyYPAWVP/7YRL/Ni1616lcoWKiQeYltINVbb7+DWfPmoUTJkhbx9r6Ap3/F0dtKeF5FzAJAoaGnTZYl1QLg1i3VXQn0hIR9YQIWIyBJEqgj1+Chw0DD4yyWscYZ5S9QADNmz0Gp0qU1zun/5l1cXdGrT1+bGA73f68zflesWHGDkBozfjz8/HJknEBQDBHXdeml+wsLAEEnR5QZ5fqjWgD89ecRUe6wHSbgkARoAZf5ixZr0kPekkBpZb/vatfGvIWLkC9/frOyVpOoSNGi6Nq9B6hToBo7ekhLCyQNHDIUM+fOhTVGjvz955+qMcgSXri/sABQjVSsARnqawAOHzzIHQHFnha25oAEcuTMiUlTpqJ5y5Y2+RRLN/wp06ajfcdOcHd3t9oZ/PKrr0BiqlRp2+sTULRYMTRr0RILlizF4h+Xo/JHH0GSJKuwPHzooOp8X76/sABQjVSsAQlJLyg0c6xTZ5FT//5rTlJOwwSYQAoC9ATdsPH3hhvY+xUqpDii37fUl6FWnboGn9VX+YspZ758+TBl2jRD1XnL1m1QsVIlQ41Erly5Ye2QJ29eQzs++fT1t9+C/OvbfwBW//QzZs+bj0bff4+goCAxIMy0cuniRdy797zvnplWgJfvLywAoLM/WRZSf3/wjwM6Kxi7wwRsl0BAYCCGjxqNqTNm4rVSpXRZEBrJ8GXVr7Bk+Qq069DBqk/9qQEiMUVV5/UbNsSQ4SOwbMVKrFy71uph+arVhv4R5FOnLj+A/Kvy2WegGqDUymGNfYeUWl0R+cov3V9YAIigKtBGyNWrhxVzd5Sgatv3+16oHzKiygVOzATsjgA9UU+bOQvDRoxE4SJFdFE+GodOT64/rlyFHr17I5/ytC3KMbZjfQI0r8tve34V4cgj/6sF96U0xAIgJQ19vE8C5C1qXQkPv4cN69apNcPpmQATSIVAhYoVMXfBQkM1O1W3Z82aNZVY2u6iaummzZtjxZq1oCfXnLlyaZshW7cKge3btuL6tWuq85aA7XuxNyGlIRYAKWno5L0MbISAv5UrliMiIkKAJTbBBJhAagRonDtVt69Ztx4jx4zFx59UQbZs2VKLKmRf4cJFDJ0Sl/y43NAxrXGTphrmJ8RlNqKCQExMDJYtXqzCQoqksrQpxSfDWxYABgz6+ufk6vqrUgug+s799MkTrFqxQl+FY2+YgB0SoFXg3n3vPfQfNAg/bdgIalemSYWqVa+BwKAgUPu3qcWmMeZvv/OuYda+fgMHGWzOXbgQ1CmxgL+/qeY4vg0S+GnNaoiY/18pehzcnHcqry9sLABewKGPD8HBwbFKLcArJ8sc7zas+xm3b9PkT+ak5jRMgAmYQ4B6ln/2+Rfo2qMHFi5Zil17fsPa9RsMzQajx41Dzz59DL3NW7VpY6i+p880xpxqEaij4cYtW7FGacKjuBTnkypVQDbN8cXcNJzOugSoGXfNqlVinJDxu3JfeWV5RhYAYvBqYWWjCKOxsbEY3L8/qCpJhD22wQSYgOkEaGgezRtPHQfpqf6LL6saepvXa9AQ1IGPPtMYc6pFoI6GmTJnNj0TTmE3BOLi4jB4wABER0cLKZPshFeq/8kwCwCioMOQJEnbFLfilaB6Cw6+hLGjRkKWlXoF1dbYABNgAvZPgEtoTQITxo7B+XPnRLkguyQkbE7NGAuA1KjoYF9oaOgjSFgsypX9+/ZhqajOJKKcYjtMgAkwASbwAoGVy5djz6+/vrBP1QcJP128fv1GajZYAKRGRSf7EmR5iOKKquWBlfTPtx+XLsG2rapHGD63x2+YABOwTwJcKusQ2PXLTixaMF9k5vFIcO6flkEWAGmR0cH+sLCwW4A8SaQrk8aPx+yZM3itAJFQ2RYTYAJMQAUBOSkJC+bNVZpqRwluqpXnhlwPCU7LNRYAaZHRyX4XD49xiiv3lCBs+3ntWvTr3RuRkZHCbLIhJsAE7IUAl8OSBKKiojBoQH8thmw/lVxdh6VXFhYA6dHRwbELFy48hSwNF+3K33/9iY5t2+DC+fOiTbM9JsAEmAATMIJA8KVL6Ny+HUTN9f9iltL44ODgdB8eWQC8SEyXn3xzZJujOBaiBKHb1atX0UERAcMGDxYy1aRQ59gYE2ACViHAmWpP4PatWxg1fBjatmqJK1euaJHhbe+YqAybj1kAaIFesM2jR4/GQ0KaHTnUZEdDA/ft/R3Nm3yPyRMngCafUGOP0zIBJsAEmEDqBB49fIiZ06ehSeNGhp7+dP1NPabKvRKG/HvnToZtvE4qs+HkFiIQEhq6VoK8VavsEhMTsXXzZtSrXRs/dOqIn9euwa2bN7XKju0yASagSwLslGgCd+7cxvp1P6P7D11Q57tvsf7nn5EQHy86m5T29hUIDVyYckda71kApEVGf/tluLo2VNw6qwTNNuqNeurffzF75kw0ql8PrZo3w8xp07Bm1Urs2b0bJ44fxzWl6eDp06eGhYZosSEOEcwighnw78BxvwN0PaQV+06eOG64Tq5ZtQr0pN+mZQs0qFMHdA2layc9aGl28VYMy8AV53i3Wnvx4qp/yqFUNxYAqWLR587g4OAnUlJiDQl4YCkPL4eEgNTrvDlzMGrEcIOKbapUX31d7SvU/KoqB2bA3wE7+g7wb9q8axpdD5s0aohuXboYrpPz5swGPelTJz9LXauVfJ46yUnVL968GK68N2pjAWAUJv1ECr52LSRJTqoDyAn68Yo9YQJMgAkwASsSSJJkqWHw1atnTPGBBYAptHQS9/LVq3sAp646cYfdYAJMwC4IcCFslYAso1/w1SsmT/PKAsBGz3hI2JUZSi2A0DkjbRQFu80EmAATcFgCMuTll6+GjjUHAAsAc6jpJI2vn18HxZXtSuCNCTABJqCKACe2RQLyr06uri3N9ZwFgLnkdJCO5gcICQutIUOapAN32AUmwASYABOwEAHluj+zQFjQl8HBwbHmZskCwFxy+kmXeDnsSndIaKa4ZPYXQUnLGxNgAg5LgAtuQwTiIaONct3vaOxwv7TKxgIgLTI2tj8kNHSJBPkjxe3bSuCNCTABJsAE7I6AHO7kJFUJuRo6T0TRWACIoKgTG8FhYYelBPPM5AoAAAIcSURBVJe3FHeOKYE3JsAEmIBRBDiSTRD4N1GS3rp05cp+Ud6yABBFUid2gm8EX49NTPgAEpbpxCV2gwkwASbABNQRWO0dE/1+qPKnzsyLqVkAvMjDLj5dv349WmkSaOIk4V1ZhjC1aBdwuBBMgAm8RIA/6pjAIchJH4SEhdY3ZnEfU8vBAsBUYjYU/1Jo6J+Xr4Z+KMtO1RW3TZohSonPGxNgAkyACViHwAVA/la58VcIuXr1oFYusADQiqyO7F6+enmr8kUqK0Nuobh1Qwm8MQEmwAQMBPifrgjcVppv2xYICywVEha2QWvPWABoTVg/9hMvh4Utik1MKKI0C/RR3LqoBN6YABNgAkzA6gTkYOWJf4DSzl9Yab6dq3Z4n7HFYQFgLCk7iUf9A5RmgbEhYaHFnCCXlCT0k2T8pRRPVgJvTIAJOBQBLqwVCRwFpIFIci4dEhZWRAkjtWjnRzp/Tukc40N2TuBSWNi54NDQ0cFXQ99xSUrML0tor9QO7FKKHa8E3pgAE2ACTEAYATlBecr/VYLcUUpwKRASFvpmSNiVESHXQk4Ly8JEQywATARmr9EvXLt283Jo6GylduBzydXFT/mSljd0HpTRRqklGKp8cWnhoe1KNcEJhcFdJShvlf+8MQEmYLME2HFhBOh6eE/5R9fH7cr1coFy3RxG7fmSLNWAnPSm7OzsFxIW9mlwWNhMGq4tLGcVhv4HAAD//yI7pQsAAAAGSURBVAMAIcaKNawR/SUAAAAASUVORK5CYII=;" vertex="1" parent="1">
          <mxGeometry x="743.5" y="295" width="45" height="45" as="geometry" />
        </mxCell>
        <mxCell id="QYXpbwsZUJlx9HDoSFY5-65" value="Ad - Hoc&lt;div&gt;SQL Queries&amp;nbsp;&lt;/div&gt;" style="text;html=1;align=center;verticalAlign=middle;whiteSpace=wrap;rounded=0;" vertex="1" parent="1">
          <mxGeometry x="730" y="350" width="90" height="30" as="geometry" />
        </mxCell>
        <mxCell id="QYXpbwsZUJlx9HDoSFY5-66" value="" style="shape=image;verticalLabelPosition=bottom;labelBackgroundColor=default;verticalAlign=top;aspect=fixed;imageAspect=0;image=data:image/png,iVBORw0KGgoAAAANSUhEUgAAAgAAAAIACAYAAAD0eNT6AAAQAElEQVR4Aey9B3wc1bU/fs6s6qzc6R3TQgk9Cc0grYwJLyEhLz+c2CvZcUjgwQsmjdSXIJJ/EpKQPCAVEoqtlUlMXkKAUAzaFZgaMC2UALbpHXftSFpp5/zPleUma6XZuXd2Z3fPfu7dmblzT7nfuzv3zC3nWiAfQUAQEAQEAUFAEKg4BMQAqLgqlwILAoKAICAICAIAYgDIr0AQEAQEAUFAEKhABMQAqMBKlyILAoKAICAIVDYCqvRiACgUJAoCgoAgIAgIAhWGgBgAFVbhUlxBQBAQBASBSkdgY/nFANiIg3wLAoKAICAICAIVhYAYABVV3VJYQUAQEAQEgUpHYFP5xQDYhIQcBQFBQBAQBASBCkJADIAKqmwpqiAgCAgCgkClI7Cl/GIAbMFCzgQBQUAQEAQEgYpBQAyAiqlqKaggIAgIAoJApSOwdfnFANgaDTkXBAQBQUAQEAQqBAExACqkoqWYgoAgIAgIApWOwLblFwNgWzzkShAQBAQBQUAQqAgExACoiGqWQgoCgoAgIAhUOgLDyy8GwHBE5FoQEAQEAUFAEKgABMQAqIBKliIKAoKAICAIVDoC25dfDIDtMZEUQUAQEAQEAUGg7BEQA6Dsq1gKKAgIAoKAIFDpCIxUfjEARkJF0gQBQUAQEAQEgTJHQAyAMq9gKZ4gIAgIAoJApSMwcvnFABgZF0kVBAQBQUAQEATKGgExAMq6eqVwgoAgIAgIApWOQK7yiwGQCxlJFwQEAS0Epi3esGNzx4am5kT6v2Pt6d82JZwUnz8eS6RXcHyfY99QXM1HlfZUUyJ9F+f5TSzhXBBLdM9QPLSUEGJBQBDIiYAYADmhkRuCgCCQDwLHL6Z61Wg3dXT/IpZIP12dsd4lspIE8GtAOA+BGvn8SOY5leMUjjVDcRIfVdoHEWA65zkfgK4EwDuZxztsPDwZ6+i+PLYofYaSAfIRBASBPBDInVUMgNzYyB1BQBDwgMD0Rc5J/Ma+sD7jrAJutJHwqwBwKEcTAdl4OBwILwQXbmYZbzcn0tc0Leo5BYjQhADhIQhUKgJiAFRqzUu5BQENBM64iuymDmc+v+k/47q0lN/YW5ldPcegw3juIfg8um5XrMNZzvL/6/QrqTZoocJfEChVBEbTWwyA0dCRe4KAILANAmctphoepz/fiTrLkegKvnkIx2KFqSz4d32TnZXN7c5XZXiA0ZAgCOSBgBgAeYAlWQWBSkagucP57PsZ59/c7/4bfgvfNURY7EZIv6jLOM+oeQIh0ktUEQSKjMDo4sUAGB0fuSsIVDwCjdd178Lj7jcR0Q3c+O8bVkAGdXPhZqXr9AXOXmHVU/QSBMKCgBgAYakJ0UMQCCEC6q3fqsan+Y3/kyFUb0SVlK5uhJ5obk+fOWIGSRQEKgSBsYopBsBYCMl9QaACEeCx/kis3blUvfVz8dWSPT6UVJhECH9rbk9fxWVRyw1LSnlRVhAoBAJiABQCZZEhCJQQAid1rJ3EY/13ANI3S0jtEVVlI+Cc9/ucTlWmETNIoiBQtgiMXTAxAMbGSHIIAhWDQHNH79QaqnqYx9Onl0uhEeGkGqq+N7bA2b1cyiTlEARMICAGgAkUhYcgUAYIxDp69ibKJgHwACi/z2EQofubF/QeWH5FkxIJAtsj4CVFDAAvKEkeQaDMEWhMOHuA63ZyMffmWK5hb4pkO6fLCoFyrV8pV54IiAGQJ2CSXRAoNwSaF6yfYiE3/gj7lVvZRijPHm6E/iFzAkZARpLKCAFvRREDwBtOkksQKFsEKBL5AxBWUtf4YdVu9c2yOqBsf9JSMI8IiAHgESjJJgiUIwLN7T3TuFyf4lhRQU0MXJVJ/7SiCi2FrRgEvBZUDACvSEk+QaAcEbDcLwRdrJoIwO7jLDhsxwgct0cEmvetgo/uF4EzDqgajB/dPwLN+1QN3lN5dh+HUMs0QesFgBc2i7MgkE/lImBVbtGl5IKAIEAEJwWBQnUEYd9JCCfvFYGPTq2CY3a1YCpf72QjRKsBavg+v4WDijUWp9UAqHsqzzG7RmDGflUwbc/III9qvh+EjswTCeHaGTc4e/K5BEGgTBDwXgwxALxjJTkFgXJEYBeThaqJwOCb/ox9I/BBfuOfWIcAHCDPjyKZVI+DPGZMjcChzKuuKk8m3rJPGnDpSm9ZJZcgUF4IiAFQXvUppREE8kQAs3kSjJhdNdgHTLZgOnfvq7f4iMEni+K1H/cexHiYYP9JFhjvECA4s6k9/bERCyaJgkCJIZCPugb/pvmIlbyCgCAQDgToBV09xtUgTOOu/oN3sKAqwCeK4n3Ijtbg0ECUhwzA4AcRrjx+MdUbZCmsBIHQIxDg3zX0ZRcFBYGKR4Abvtt0QNg5qhp/Cwa7+nUY5UE7gYcVTmGDY9cG1e+QB+HoWafafT3njJ5F7goCYUcgP/3EAMgPL8ktCJQVAgTWNVygHo55h70nWvDh3SP81o950+oSVPE4wLG7RWCvCeYeYYR00elXUq2ubkIvCJQKAub+PaVSYtFTEBAENiOQjNe/AkA/2Jzg8UQ1vIfvZPmZ3+dRwtjZlNlxxM6WSSNg994pztyxJUsOQSCcCOSrlZUvgeQXBASB8kIgGY8qhzh/8Foq9eZ/ZJEb/026bjICTA0HIMFFQKTYbhIhR0GgbBEQA6Bsq1YKJgh4RACRki3Rc/adaN2mutZzUal7h+8UgSO48S/qq/8wBVVrfdQuFhiaGLh/c6I3EN8Iw9SWS0HAMAL5sxMDIH/MhEIQKDsErnyIxn9wJ+v4GVMt4CPs1oAwsZZjHYLyzKca/el8b5+JqrkNX/GVcXLsLhEjSwTJcueEr4SikSBgHgHLPEvhKAgIAqWGAFl9agb8JNWQ7jvRAjXB7uS9I4Oe/JRnPtXtrzz2hblcanWA0l1bR4KzZEmgNorCoMAI+BEnBoAf1IRGECgzBAiwLCa/HTQFwYDHwAl1fU6szKpYiiMIbIeAGADbQSIJgkBlIXD5PzMf4hIfxrHkg+rBmDpJ/7GGiE0lD4YUoIIQ8FdU/X+KP7lCJQgIAmFBgGBWWFQxocc+EyzQ3UAIgZpBPoJAmSMgBkCZV7AUTxAYEwGkGWPmKaEMVfxU22O83mRFAji8cdH6HUqo2KJqBSPgt+j8V/FLKnSCgCBQagg0LtxwWKyj+/JYIv00x+7mRDqdejl76NPvZWF9Hzd7pVagHPrurmkAMFsrkrWO4qMEQaBsERADoGyrVgomCGxB4KzFVMON/W8sy3oSCC/kO4dyjHKTb2/IEKxcQ3DPK1n4FxsCxIl8r6TDpDqE2ohuL4B1UEmDIMpXCAL+i2n5JxVKQUAQKAUEVOO/qr/ndm7Xz2d9c/7n+T68xIbAQ29kodSNANX072BzaXUC0oE65EIrCIQdgZwPg7ArLvoJAoKANwRWZ5z/5Rbd87K29xyCZ7gnwBv38OaaWKf9eJMegPBWr2g2hIDOQfsfoiNcaAUBQSBYBNSYP7/Zn5uvlJfWEqihgXzpwpS/oUZTG4JdNDkIuSAQagTEAAh19YhygoAeAlYEv8AcIhzzCmw0wKvr3Lxowpa5oUYNBPjXihDG+acWSkGgEAjoyRADQA8/oRYEwo0A4al+FXzP8UsZDrpqS5kx/nVh80EMAP/wCWUJICAGQAlUkqgoCGggsJdfWqffL2U46KqQm3AdVUh6AHTgE9rgEdCVIAaALoJCLwiEGwHfI+EDLkGprwbQqhoE1KIXYkEg5AiIARDyChL1BAFNBLp16AdK2AIwoPsGHeyEVhAIFgF97mIA6GMoHASBMCOgZQBkBkr3Jbjf1dZdDIAw/7JFN20ExADQhlAYCAKhRkDLAEj3602kKyYy3Rlt3bWwK2bZRXb5I2CihGIAmEBReAgCYUUA4Q0d1bozOtTFpdXVnc2H14tbApEuCASLgBgAweIr3AWBoiKABC/qKLCmt3R9Aazp0dOdBxC0sNPBXWgFgdERMHNXDAAzOAoXQSCUCBCgViOm3AJTKEs2ulJK51U9o+cZ+64edmPzlxyCQHEREAOguPiLdEEgYAToeR0BmSzAul7VnOpwKTztWta5L6unN6H7QuE1F4mCwNgImMohBoApJIWPIBBCBKprBh5mtbT6wl/boEXO4gsfXlun1/izxi5l+hV2fCpBEChPBMQAKM96lVIJAoMI3DlzwmogeHrwwufX6+sAsiVkAwywrm9s0DQACJ7smjdprU/IhEwQCBABc6zFADCHpXASBMKJAMI9Oor1uwQv679R66iQF+3La11QOudFNDyzRfcOT5JrQaDcEBADoNxqVMojCAxDgBA6hyXlfbliTRbUm3XehAUmUO6LV7IBoCsWCe/W5SH0gkAQCJjkKQaASTSFlyAQQgQoY9/Jaml1Z/cOALywmvvWmVGYw/OrXFC6auq4ZnKNvUSTh5ALAqFHQAyA0FeRKCgI6CHQNQ97EeCvelwAVq5xQ70iYG0fsY6aY/8MEhH89caZWMIukLgQEsoUAbPFEgPALJ7CTRAIJwJIN+gq5nLb+ujbaiiAT3SZGaZXXf/L3syCCc0si/5kWD1hJwiEEgExAEJZLaKUIGAWgcnV0RQAaTkFUhql+b348bddIw2t4mciqkZ/2VsupPtNcIPnOmdHtedMGNFEmAgCwxAwfSkGgGlEhZ8gEEIEuEs7i4S/MKHaW90ET70TDiNANf5PskHyTlqdGSgdwS8B0RAzA/oIC0EgQATEAAgQXGEtCIQJgZo19vUI8JYJnV5Z58IT3PAWs6VUsv/Fhsir641NTnzXHbATJvARHoKAeQTMcxQDwDymwlEQCCUCt8/HPpfof00p9xo3vI/yuLsafzfF0ysfJfOfb2ThZTZEvNKMnQ9/oiZMjp1PcggC5YGAGADlUY9SCkHAEwJ1a6JX8gD+Ck+ZPWRSwwH3vJot6OoANdv/nleyYKzbX5UT6YV16frfqFOJgkAYEQhCJzEAgkBVeAoCIUVA9QJw1/lXTaqnJgbey0bA0+8Gu0JAuSNW6/yXsixDE/42w4CEX1t2LpqZRriZq5wIAuFGQAyAcNePaCcIGEcg1Rq9mZneztFYYKMCVq4lSL6chRVrXKNeA5UHwuXM8+6XBkAZAKSEGdN8kNGtnS3RWwfP5EsQCCUCwSglBkAwuApXQSDcCGTxi6zgKo5Gg/LC98x7Lty1MgtPcY/A6l7iEYf8Rag2fg3T/utdF+5mXs8yz75s/nzGpCB4z+0nhcWYWSWDIFBuCIgBUG41KuURBDwgkJxrv4EEX/CQ1VcWtRnPy9wjcB931y9ZkYVlb6meAYJ30wTdGYJMlg0DbuXV27w6V2nq3so1BGpioaJRXf0vrXUhozwQ+dJibCIEOKdrXsPbY+eUHIJA8RAISrIYAEEhWyC+MxZu2Kk54fy/WEf64lh79w2xRHpZUyK9ko+rOWaG4uqhtGWxRPei5kT6+03tzqcVbYHUFDEhYuXlXAAAEABJREFURKCzNXoTq/V7joGGPm7s39hA8Mx7WXjojezgMMEdbBTc8uIAqKjO1dCBuvc053mzm0DRBKoUM2f74zdDGPCVBEGg8hAQA6AE67xxYfpYbux/GUuk/zVgWW/zu9SN3M/aBoif5eIczW81+/JxEsfqoThpKO1oAJzFD75LEOkvipZ5PNXU0f0LxRPkU3EITKmxL+TfTbLSCs7/gbtpd/vLlVZuKW8pIhCczmIABIetUc4nXvPeuFhH99e5wX7WsuARfmh/hQUcxpHbdv72FxTtB5Hwq4on836mOdH9NSXLHzuhKjUEbpyJGTfT92nW+1mOFRLw+X7sn9nVhAMVUmAppiAwIgJiAIwIS3gST1u8bjJ3319SW2u/AoQ/Z80O5hhUOIQAL2NZL8fa020ndaxVvQhByRK+IUGga94kHmnHs0OiTvBqIL163+wJWtsjB6+kSBAENiIQ5LcYAEGiq8ObCJvau+f0Z6qe49f07zOrQjbGkwHh4hqqXt7c7lzY1kbyO+EKKNvAv7UI0P+UbfmGF4zg1OaOtFFfCMNFyLUgUAoIyIM9hLXU2N67f6zDWYqIC1i9nTgWK0wmpMvv2c+5J/an3v2KpYTIDRaBpg7nPAL4WLBSwsWdAH/c1JE+JlxaiTaCwHAEgr0WAyBYfPPmHks4n7Iw+wgTnsgxFAERToKB7GPNCeczoVBIlDCGQOOi9R/gHiY1tGSMZ4kwqkGCP8l8lxKpLVEzEATEAAgE1vyZtnE3e1NH9y8A6K9MPZFj2MJ4AvpTrN35OXCXcdiUE33yR+CYq6g6QpF2prQ5VmLYv7bOvqISCy5lLg0EgtZSDICgEfbAvzFFVfce4PwRCcM/Lon09aZET7tqPDwUTbKEGIEJUediIjg2xCoGrxrBPDZqZwUvSCQIAuFDQAyAIteJakgjbzg3AcG8IqviWTwixbnx+KvS3TORZAwVAtzoncAKfYujBKTfNt7Qs48AIQiEC4HgtREDIHiMc0sgwvFR5w9UmhOwPj4h2nN9Gw9d5C6g3AkjAjMWUhTQvZ51i3CUADDRyrp/FoNWfgqVhoAYAEWs8aZF6csQYG4RVdAUTbPv2b/nJ5pMhLzACGQt50oAPADkszUCH57Y4Hxv6wQ5FwSKiUAhZIsBUAiUR5DR1O7MLIkx/xF03zoJgS5q6nD+c+s0OQ8vAmqVCQF8Prwa5qXZc2xA/z0vilEyE8F3Yh09J4+SRW4JAmWFgBgARahOtaaex9GvLoLoIERyUeia5o7eqUEwF57mENi4+RP9zhzHonDqZak38o/u1GTcPjS7u/3/+PoBjiZCBMjtaF6wfooJZsJDEPCPQGEoxQAoDM5bpBAhDGSVg58JWxJL/mwi0cB1oMpW8kUp0wJw3QxYlhr337nESkhA8BQQXoZEM3pq7MnJlujMznjD3cBWgPLn70asOJdpHUcTYQ+oilxlgpHwEATCjoAVdgXLTT/uLlez/UPj5MccvnhyUyLdao6fcDKJAP/uzmN+p3MMQ3BZiW6OAAR9fHyf40qOjwHCXRx/zfF8RDfmWtmdkq3RI5Kt9kWdrQ13PTgTezjfNqFrVv3LCHjuNokaF0Tw6Vgi/UUNFkIqCGghUChiMQAKhTTLURv7IMBP+dR4qK9COH53C84+ohouObkGfv3RWrju43WDUZ2rtM/zveM4j8prXAFmiIg/m754dTn1bHCpSj80ta8/iH93Jr39kQ4q3MA+wG/x4zhisjVax8cdOe7H8ZhkPDqD4wUcf9cZH5fqmj1eGQdjiutssf/MRsN1Y2b0nuHy6Qs3BLnxlndNJKcgEBACYgAEBOxIbDOZqgs5fQeOxsIuDQhnH1kNvzqtFs47pgZO2TsC+060YHwNQoRrV0V1rtIa+d75nEflVTQ7R7lZAKOfnbN9tfONchRmWgiopW2WFUkwE0Pe/uhe5qW3jS5CknkYD261PR+QXjDE2HYt64bTr6RaQ/yEjSDgEYHCZeMmonDCKlnS6YlV47m5vcAUBjURgFmHVsFPmmrhlL0ioK7B40flVTSXMu1nDqmCaublkXTMbIhwYeNiahgzo2QoCAITos73+Y3bjLc/gveG3rKrtZS3rEAMgK6Z2E2As1m3DEcT4Yi+KelAeuxMKCc8BAFdBMQA0EXQI30f1p7DWY1s6ave3Num1cDp+1VBhK0K5usrRLj2P7Z/FXz7hBqYUIe+eIxANCXS16PKOsItSSokAkPe/r5tSiZZ8EVwrUM1+Tl179c9pMkjJ3kqHl3GvQDfzZkh3xuE85s60v+RL5nkFwT8IlBIOm4CCimugmURGll7vfd4C77Hjf8efDSF5v6TLLjEIE9CmmdKN+HjD4HBXe6Q1EY/Rvp3uBfhGm5c/86Na8yfRkNUCPffPh/VxL+hBPOHk1+M/pK5LuFoIiASXNd4XfcuJpgJD0EgTAiIAVCA2mhcmFZdsNoTitSb/0UnVA+O75tWe3I9wtc/Um2qJ+Cw6TekjzKto/DzjkBdrX05557KUT8QrKBa+8unLV43mZkdydF/IAqk+39rhdra0HX7SXnYfHfrdI3znaxqXCDLXDUQFFKPCBQ2m1VYcZUpzUJS45JahVfj9hd+qDqQxn+TYsoIUDKqrE0p/o+URdlhzT98WpSGvf0NYARb1fh6pr+6kRXT+3VgMOP/rNc2oWtew9uEoHqiaJsb/i9mxBalv+afXCgFgfAhoPdnDl95wqkR4qm6in36A1Vgsts/lz5qOOATB1Tlup1HOmmXOQ9hknUIgY1d1WTMyyQi/KRztv3gIHui2ODR/9faKdX1y/yT50fJQxa38ZDFlflRjZKb8EdNHeljRskhtwQBLQQKTSwGQMCIb3S/CloTp9RSvxlTTTTK3gr70f2rtIcC+LXr8MZF640uefSmfQXnIkLuqr6WETCF+yNru+0fMr/BgABaBgDT33PjTMwOMivQV+2q6DdZ1JMcTYQaBFrUKKtcTGApPEKAgBgAAVdC1oqozUX42edfkJqprzPbP1/JdRGAMw/UNjh45KNKlT1f8ZLfJwJNHY5Jb38OUbZ12bnYr9Q59Yb0bnw8mKPv4CIGPv4/XDk14dByXTUc5Qy/5+ua8ECr3zHXq+BLCSEqTwQKXyoxAALGnIgO0xGhvPYdvzu3yDpMfNCetGcElGwfpFtIXNLq+djCSM7GQoB7Wz7AVqZJb39fS7WOf36TXDer3f0PlM0W3ABQ+t89Z9xzhPAVdW4kEsxrSnRrz+sxooswEQQ0EBADQAM8T6RIB3rKlyPTkTtjXk5+crDJO7mWbY7DWXbehNsQ4EHbXMpFIAgob38Riqglf7YRAQS3JeP2sA1xsEmT9ztdrQ3PaPLwTZ6KR69GhP/zzWAYIQL+tvGGnn2GJculIOAbgWIQWsUQWlkyUcsAOGQHbomLBJiubNQ0fopU7JITa9rbnztAZwNX3tZAEEDz1td5nxOlhvPMm4cmQR/0f5HL8Zomm03kE6ys29GYIu2xsk0M5SgIFBoBMQCCR1xrQtZeEzB4DXNI2FM5L85xz0syP2y1yu5FRqXnMe3tDxHPV0votsY19qfe/fh6b44aATs1iI2Q3hefuMYiS20dbGoi4gn4hvM9I8oJkwpHoDjFFwMgeNy1/OLvYBfPANhJUzZrPi54eCtXwqC3P6CFjICRbiIiuKazxf4L89s2DGS1Zv8PMquOpAaPRf7qbK1figg/NqUG/8a/G+vokcmupgAVPgVFQAyA4OHWagTtKn7EBK/jiBK0ZRNolX1EpSRxMwK1dfYVgKDezjenaZyszGSckSfK6a//fzX52boVGroZJc3uZv+AGd7P0USIALkdzQvWTzHBTHhUJgLFKrUYAMEjX7kYIxh5MwX5bIdAU0f6k0CgPN1td89HwgBa2HL/2Ttu2I6WCAFReQDc7pbXBAS422veQuTrasKBqsigp8o1huTtQZGIMedLhnQSNoLAmAhUbuM0JjSmMmCPDidngEfSdRho0BqQnQHVgGjoIKTbI6C8/SHBH7e/4y+Fu8S3ePsbxqKxvVst5dTbCAeD9/8/TO0xL5fMsl9DQOU3Ycy8HjP8JxtlsgumR7Ak29YIFO9cDIDAsaft36rykPmeUzwD4F192XZTh/NKc6L7CjVOetZikh6BPOp+xKxsUAXp7W+4TIxEYsPT8r22LAzF+P9wvTtb7D8DwnXD0/1eI8H/Tl+4QctZkl/ZQicI+EFADAA/qOVBw29Xb+aRfbusr64rngHwmgHZCLAnAc4Hcu9ZlXHeaEqkfx9LdM9Qa9e3K6wkjIkAG1TqrfX0MTN6y7CNt7+RSCz98f/n7poV1foPjKSXqTS32p4PSC8Y4me7lnXD6VdSrSF+wqYCEChmEcUACBh9ItBad/zs+6ZWLOVf0GfMy1auhc4FwDsnRJ232Ri4PrYofUbjdVQH8hkTgab29QexQWXO2x/C17f29jdcAdVjQwCnDE/P55rpi+L9z6uOapdDApzN+TMcTYQj+qakf2qCkfAQBIJGwApagPAHLe9nT7ztQm8RbIA+lvnUO26Q1TeZG7O54MLNVrWzKpZI39LU3j1n49K2IMWWJu/GFFUhRtSSPyPe/hj7O5Oz7d+Phsaq/h61893E0fKMdQ+h+Ov/x9IxFY8u416A746Vz/N9wvnKsPWcXzJWMALFLboYAEHjj/iUjgjV+D/8BrfGOkx80D7weraQhodq1D6OiAtqa+13Yh3pvzUnulsar1uj1fj4KHZoSaw3nItZuQ9z1A8E72X76XMwzNvf9oxdXfe/bnVN/z3b8w1fSnJ29Bes1RKOJgKyYftHNVnTBDPhIQgEhYAYAEEhu4nvADyw6dTv8dYXByAb6Mv4tpopWUrmtqkFu6oHgjMJsN2qrnmHhwluj7WnvzBt8YYdC6ZByAQZ9/YHcM5wb38jFplQdwLg43fOnLB6RN5hS2RjyO2nuazWuxxNhJ2salzQ1kbyjDWBZpnyKHax5McZcA0k59pvAODmXdXAx+edNMEdKwd8UPojuW3FABRz9cFWWtcgwEcB4Q/VGeutWMJJNifS/x1b4Oy+VZ6yPt04JEKq69/ICgoiuKazNXrTWKANTWQ7aax8o91HwFCP/w/XXRlFhKB8K9Dwez6vZ9x7QPqrPmmFTBAIHAExAAKHGIDQ/YeumL8+PwDL1wTfDfDiahf+xrJ09Q2AnhtAauIn868hQq/HEulnuGegrXlBr9ZmSwHoaZRlwbz9DdO6d4fe4zhJDc3wwWcgt6QMAFXKVDx6GyBdqc6NRMIfNy10PmKElzApMwSKXxwxAApQB0TWjbpi+rMAVzzSD6t7uAnUZZaDfm0vwa8e7YeB4O2MHBrklXwIIFxMkezzm42BxIZD8uIQ8sxNZr39uYDWvBG9/Y2Eg+vqdv9nsrXR+0ZiHfa02lXRbyLAE2DmU40WJTb25JhhKFwEAVMIiAFgCslR+HTF6x/mfoAXR5DHxH8AABAASURBVMni6dY6bqAvezgYI0AZFj97qB+UEeBJmXBlOmTQGADrGWUMNHekf9DY0X1kuFTMTxs1gQzJnLc/lv7jZLz+Xj56CwRaBgAPNfxTLbHzJixcuW6fj33oumppoGNIs/0He3IMMRM25YFAGEohBkAhagGRkKxRl1x5VeP19S58754MPL/K9UoyZj41tHDx0gwo3mNmDn+GQ7jx+Z5F+DgbAy83J7qvmL7IOQmIR3fDr/tGDVnXSDUqV787bEzQ/l62Lj24AY4nRjMWUhQRtFYc8Bt0pydhIc1095xxz/EvZuTNkfzoTDCvKdGtjAo/1EIjCASCgBgAgcC6PdM+K3Mdp67jqB02ZAh++mAGbuKx+j4eGvDLUM32v+XFAfjx/RlQvQt++YSYbm8CnO+6tDTW4byqjIGmRT2nKAc3IdYZmjqc8wjgY4Z0VN7+4svOxX6v/LKYnsZ5azj6DhSxUr6JQ0KYikevZkPo/0ypg4C/bbyhZx9T/IRPKSMQDt3FAChQPdwXn7iGRf2Ko5GgxunVxMCvd/ZB58tZyMcQUHlTr2ThG8k+uPG5gVIZ89fFbQ9iYwBdt2tVxnmzuT19VSyELomb2gvr7W9EUNHS6v5nnk7d+3UP8bHkQx/0f5EAtLx5bgXCBCvrdiinTlulyakgUDQExAAoIPQZ7P8li3ufo7Gg3twXPNUPF9zRC79ZloEUGwMr1riwvo8GfQeot3x1rtKSfE/lUXmve7I/LEv9jGGRB6OduHv3HNjoklj5Gri+qT39icYiuyRW+yNYViQBAHqz75nBYCC4LTmGt7/BfMO+CEjXALhPjaMPY1uSl8pwR7RaWHmNvjam3hJOiLzpfH/LpZxVIgJhKbMYAAWsicGHCcH/BCFyo8dAF65jY+ASHs//0p19MO/W3sGozlXa9Xzv4TfcQnr4C6KopnlOQoC53NX7d6vaWR1LbHRJfHpi1XjTgsbiNyHqXEwEx46Vz+P9990BOhsQ+QXWIwVnG/K+qDeBEqnklv9x0XOGZLz+Xv59/DhnhjxvcB1/t7ljg66XxTylSnZBYHsExADYHpNAU6atsP/AD4CSXB41GjCqTPxWfSY/KBdyPjXcwYeSC/Ws8aBL4j6oe1u5JI51dLcONYp8K7gQa3dOYO7f4mgkcLP/ReXYJl9mVnWtapgi+dJtnR+ptBwAba17rvPsboOTKB/IdT/PdMsla8Fpi9dNzpNOspcFAuEphBgABa6LtjZ0sTryORab5lgmATdw1/XcVDz69854dO66tL0zIX2UC/cHIHiPj6UYBl0SA+FCa5NL4kT6i0G4JN64RpyU4RQxARSRN29/I8pC0u3+Xzu5xn5sRN4lnNjVhANuxIpzEdZy1A7c67TnQH/V1dqMhIEgoIGAGAAa4PklTX62bgUifsEvfdjo+GH2xc543cpNeqkZ56l4w53Jlug5J6+wd7EsnIZAyrva65vylNhxo0tigKurM9bbPExwX3O7c6Epl8S1dfYVgLCfIUxWZjLOV3zzImj2TasIEbpunIlZdVpusWtW/csI+EVT5WJD7dP8WzLGz5RewidYBMLEXQyAItVGZ9z+E79dXlYk8cbEIsBvO1vsP+diqHo87p5t39fZ0nBhMm7v5QIeP1TulbloQp6u/jMncg/H5RCh1/gB/gAPE3x9xsKeff3o3dyePhMI5vmhHYEmC4Stnr39DWMwrT29Kyd9gKPvQIAlv/xvtMLzb/0vgKCW9I6WLZ97l09fuOHgfAgkryBgCgH1MDPFS/jkiUCypf4bBHBVnmShys76H3fWYvK2ZhyRulrsh5Kt9kXJluh+ZLmHAcElXKBlHEsxsP0DyqD5+YDlrmRj4JlYe7qt2aNL4hkLN6jVCEYcRCnwEOHHjK3vceoai2LMR5WJDz4DZkvaAZCXUldl7QtAc4Mv2PKxXctafPxiqt+SJGfli0C4SiYGQDHrgxvEU5bb5wNgAkr3c/SqjPM9P+qnZo97JtkabWNj4FjEyH5I+GXmcz9Htiv4u/TC1i6JVyjHQzm9EBJh1rKu5SLuzNFEeGxtt/1DLUaEygDQYfFualbDszoMSoF2yRxMA5Hy6pcxpO9h9f3pnxjiJWwEAc8IiAHgGapgMqoucnf3+nkElLMbPRjJRrl+O7ZxFrtvpp3xupWdrfYVbAycxMbA/oB0EQI8xAxL1RiYSoCbvBAub044P2tMOMdxw8HFAmgy7+1vtpp7wXj5DgSgaQBQJ7BR61uBEiJkw/UxBPqOMZUJ5zd1pP/DGD9hFEoEwqaUGAAhqBE1wzgVj84igu+zOi7HUgsRbrDbN85m11ddGQPJeMNlnS3R4yGLewI3pATYBQClOrmMjQG6yAJ6ULkk5mGC3yLAz7k8RgIBXJRqHf+8DrPmjt6pTL8PR/+hDJf/jQZGZzz6S76/hKOJoEyn69QmUCaYCQ9BwAsCYgB4QakQefjvn2qN/hCJPsbiVnMstTC1rta+3LTSybn2G8kW+1epFrsJs9mdiWguy7iVo6nuV2ZV0LAHIJzHEm2O2oENiTtTcft3uoyIsnqz/1mBKrI6+VA5gf+zVa7bygV+m6OJsJNVgwvb2kieyybQDB2P8CkkP7SQ1Ulna8MdUBVRO7GpsfCQaTe6OgTw+VjC+dToufzf7Zw7flWqtWFhsiV6Rgb7d1HGADeAf2eOPRwrMbyf7afPATdE+oUn5QBIh83LS+bUv6TDoBRpl8wZ9y4hnM26E0f9QHDqvQekv6rPSDgIAmMjIAbA2BgVPIfyE3DycvtkFqzeFI3uHcA8Aw50dSG6MZVbZWUM8DDBmW6NvRMRfgaAFnPhujlWRECCL/rx9rcdOAweAGoZAGyIlZX7X8jjk4pHb+MhMOXnIg+qUbIS/qipI33MKDnkVgkiEEaVxQAIY62wTm1t6PKb7u+tmr79AeGPnFQqYQerGq/dNNmtEEp3zcTuVKu9ONnS8Bm3396REErdJTGM9eEG99rO1uhNY+Xzcr/phu5DON8uHP2HMvP/ny8Qtaui3+Q6eSJfuhz5axBoUeNiashxX5IFASMIiAFgBMbgmNw9c/I6dPHp4CQEwvl0Ncs9EM5jMO2ah738RraNS2J+U1YuV98dg7SUbqcBIz8ypTC6Ec3Z/0AZFyu2B0DVg9r9EF1XLQ101LV2JDzQ6nfM9SpoKyQM9BAIJ7UYAOGsl2204jdaNSdgmzSDF88h4M8B8SMI8CVTfJnXz5va1x9kip8fPmpZXCrecCe/KZ87pcbezSJXdXP/inmVqktiVn0wRImyL8QSTjLW7nxJ2yWxvv//55a2Rt8a1KyCv+6eM+45Lr7yZcEHA4FgXnOH81kDnISFIDAiAmIAjAhLyBKJPqKpkXoreZV5/HNwnJzgEh72/X9o0S48zHBIZ4v9jWTc/mdn3P4t57mdo4lgW1YkccxVVG2CmS4P5Z/+7tZxXVze+VzWQZfEqAwfgFJ1SRzhumwCpF9BhF6NJdIPNCe6vzYjT5fEZy2mCBA0gs4HoaLf/reGjn9ff0CE/9s6TeeciH7feEOP3vJMHQWE1ggCYWUiBkBYa2ZIr+YF66cAglqjPZSS/wGJPs0Ppr05fiTJ4+TJ1mhbqtX+v87ZDe9sww2Rqlz3c5y2bTon+AlEcOyEqPN9P7SB0nA5lUviTmX4lIdLYvU/Pp4AL8vXJfHqjHM0Yz2Ro/9QYev/xwIqm8l8gfO8wtFEmGBl3T+HxZA2USDhER4E1IMjPNqIJtsh4FZF1Ns/bnfDewKB6z7iNfvQsqZzveb3kO87TYt6TvGQr2hZKtklMel3/2era/rvKVrlhVBw17xJa5Es5R/AlOOqD09scL4XwqKKSp4QCG8mMQDCWzeDmqELHx488f+1Qq2fz4dcTaLjXgdTO55ZbIBcd3pi1fh8dChW3s6tXBIDWvvilv0J3GLppCl3KvcMbHJJvJKHCa7YZn8CTf//iPD4nTMnlKLjKk1YRyfvbK1fytj8ePRc3u9yb9p3mzs2NHmnkJyCwNgIiAEwNkbFzvEhPQXI89v/1nL6ep0L+drI+Dh3X+ybgbr/ZX4lFZLx+lc6W+3B/Qkgi3sB4QXcmJayS+J9WP9BY6Cpw3kl1tGtPDeepFUphCkt+jImzu5m/4CLZ8qhl+WSteC0xesmM08JJYRAmFUVAyDMtUOE/Cau1QOAZD3sp4j3n73jBiA01o1Jyktgh3OWH13CQDPokrjV/rVySVxdM7ATlbhLYgTYk+tXGXlaLolddCvL/W8eP8auJhyoiuAsJjHSQ6LqrD9T9QfmJ0EQMIKAGABGYAyGSezPfWry3w463LMIvgwAJTPZaj/Ax0s5mglEv53Wnt7VDLPicVFd3qkhl8Ruf2ZnQJwJgO0A0M2xkkKmOhu9r5IKnG9Zl8yyX0NAk3Nq/jOWSH8xXz0kf7EQCLdcMQBCXD+YdTW7/6G/r6b+SZ0irkvblzD9Mo4mwg7VCNcU0kugCaVH46EmfCXj9o3JFnuO208HcN51HCsk0MNL5mC6Qgrru5idLfZfAMHUnBqlx+XTF244WJ1IFAR0EBADQAe9gGmJXLUCwLcURHjywZnY45sBEypnOi5FlDMSU2+3RfMSyMUJNESqUXnnmxCokDAxJ5T1/x7royprXwCAWls2w5aP7VrW4uMXU/2WJDkLIwJh10kMgFDXEGr1AJALviYADoekq7VuOQJ8a3i632vmVXQvgX51z0XX3J4+U81zyHW/PNMxOm3xhh3Ls2xmS6V6SggpzlwzHE2Ew+r70z8xwUh4VC4CYgCEtO6HHH8oJy2+NUQk3+P/w4UqL4HccP9jeLrPaxsxsuisxVTjkz5UZDMWbtiJEH4fKqUKoQzS16sz1ts8Jn1fc7tzYWPC2aMQYktVRioeXQZI3zWmP+H82KL0Gcb4CSPDCISfnRgAIa2j8Q3O4ayaVhcfuvRP5mEmsDURcd3PMzMjXgKZz9GrMmXg3IQIs5Z1LZdnZ46VGNQz5ER+u73cAnqNjYFnYu3ptuYFvQdWIhhjlTk5O/oLg4Y0QhauKYeJtWPhJveDQUD9eYPhLFy1EEACre5/Fr7+pJUNpsYcmR2A8hIIgOeBuc+3Y+3OCebYFZ5TbJHzX9z1/zFDkh0C/BnzepZjqYZDAOFiimSfZ0PgMTYIvjtdJqxtqUs2pLP9pFwFm9mdEmHHaoTr29pInuVbUA7FWSkoIT+asNYSanoARHy0rQ1d08VLtth/4we8qRnNEe4SbT/xmvfGmdazEPya2tcfBASXGZOF8PVUi/3NZEv0UNfKqlne/8O8H+NYmgHhKFb8/3Mt69lYe/pJNga+ODS0xcmVG7rmNbxNCPMYAeJoIsy494D0V00wEh6VhYAYAGGtb9I0AAjMdf8Pw8ikl0BmPbWu1lYe6fi0dIJqyBAjau2/bURrgtuSs+3N8wi6Zo//NxsCP+J4TJVrTWVD6SKW8yBH40Yd8ww+IKjutIUpAAAQAElEQVQhrasnRJ37ZXc7gFQ8ehsAXWEMeMIfNXWkjzHGTxhpIlAa5GIAhLCeht6I1Rugb+2QzE0AHK6E8hJIgHM43chmJwTw+VjC+RTzK5nADZna5VB3mGZjeQnecwfobODu4Y0J234vmVP/UjLecBkbAyfAkEtiAFQueI3gD4X9fMjKuqnYAmf3wooNn7Ta1dFvIcATYOZTg0CLGhdTgxl2wqUSEBADIIS1XFtdpxoWrbqxqoLrAVCQcVe18nFuzksg0NWlMplpaN7CtxUOJiIinq+6hb3w2uSSONlix0rYJfE+GKFrvJS3nPPcPh/7LIzM5DKa8bFBeKDV71zJ/CQUGYFSEa/VyJRKIUtOz4je+n8u7+t3zYq+ycdAQyV6CdzYO0MLGdgIR+1ABNcMeorzwenOmRNWb+uSmObwG+XfmZWW8yemDzxwr89pzR3d0wMXFHIBd8XrXmQVzY3fE8xr7nA+yzwlCAJjIiAGwJgQFSEDodYGQKxxYOP/zHtzGPQSaGVbOMHhaCKE3ktgTY39v4Cwn4nCAsEKqrW/bIJX17xJa3mYoL2zJXqmW2PvRISfIaA/M28zb5fMyHQgsuaa5lmK/JIt0T8gwv+Z0p2Ifi/zLEyh6YdP6dCIARDOutJzAQxkzAHQWPCoyWr81vmNsfJ5vc+8ftG0aMOhXvMXMl9TR/qT/KA+25DMAYxga9dMNN5AK56pVntxqqXhs26/vSNY8AkkuJr1NrP0jBmZCXScGT6lzyWbyailga8YKskEK+v+WU1UNcRP2JQpAmIAhKxiT70hvRurpDdBCukR5lGw0Bm3f8vCbudoItRZZF0ftodX43Xdu3Aj+kcTBVQ82JD4SedsW83qV5eBxa552JucHb2lszV6LmYj0wIT5I+x+q3nTdm4aP0OzYn0x5sT3V9rbncubGpPf+y0xesm580oRASqBwfJamWVTE3s/PDEhjJwtMWAlFooJX3FAAhZbbkDoNv97/b29j5a0GIhUj+BejN+34RcIjh2QtT5vgleRngQoVWNytvfDkb4ATyyttv+oSFentmQlT3Zc+bCZMzLL75aORBLOO1WNvI6AdxCgJcpD4RsTN3an6l6N9bhdDYn0v89ZEQXpgQGpXS21i8lALWhlBGuRPCdWEdP2OrcSNmEiRkExAAwg6MxLoSo1f3PijynlunxsaBhaWv0LQA8B8x9vj00294cR5+cmjoc5f3wdJ/kw8kcomyrmj8x/Ebg10ixwGXkIYAbqKe9Zm9u7z4VIvQsALUAQu0IdBEginED+utsFpRL4vubuYdgxsKefUfIG9ok2n3QMFQrbEzoGCFyE6XeO2ICiMLxKC1JVmmpWwHaomYPAEJBJgCOVBPJMvQS2NS+/iAE+PlI5fWVprz9tY436qLZkx5EXAwMlQHAb+53eNG9MeEcR4C3cN7xHL0E9Vw7gWkuG7DclbFEellze/o7PHTwAS/ExczT1YQDbsRqYR3WctQOXOl7DvRXqfkf2ryEQfkhoP4o5VeqEi1RWxtZ/BZzrJb6VDwDQOnd1+tcyMeVHE2EonoJVPMQLCuS4ILYHPUDbevtT5+hdw6N7d1qYmWYNizq7q9xrx6rBKdfSbUWUSLHW/9Y5JvuH83mz48sN/IcGwNPN3ekf9DY0X3kppthO3bNqn8ZAf/LlF5E8OmmjrTJ3jlTqpUdn1IrkBgAIaqxpft3qzcUr285I2puRaBgKwBGUkANP1CZeAlU8xD44alnkG0CaQxvf5uyBXXESET37Z+A8MStXBKTjq7cIH9t6cxx743Fo29KeiY3/maWXW4UdijX6fcswsdj7enlTQnnp00LnY+w4Y0bb4fju7PF/jOX29SeG1xt8L/TR9iUacbCDTs1dTj/yYbRD2Pt3TewcfQIn7/McTXHzFBc3ZRID/akxBLdi5oT6e83tTufVrThQEu08IuAGAB+kQuAjhB1JwD2rFlvex5XDaAIgyyD8BLYeF33LoPMC/QVax/cpdCctz+Ac7x6+wuiiPwWrWsAPJdstR9IbnFJvCcbBBeAP5fEP0rFo2O+/QN/kPAzfAgmIOyHQN9Aix7iRvCV5kT3FU2Lek45azEZcfKkq7Rbbc/nlvsFXT5D9LZrWTeoHpXGheljYwnnMo7/HrCsd5BI+SD4H0D8LBtHyuDdm2kmcaweipPYOlJzKY4GwFls+V2CSH9h2rdjifRTTR3dv1A8oeI/pQeAGABhqjNX2wB4rCiTy0bAcF3avoSTl3E0EXYYnIVPxM8hE+xG5zHo7Q9JbfRjpCEggms6W6M3jS41uLuqQeOH9ilaEhCSW9Nv7ZKYu/J35XvnsAw1pj/azP43EfCsZEv0fzi/p8A8lVtsT3l1MiHAngQ4H123a1XGebO5PX1VLNE9Qw0D6fDVoVX+HMDFWcxjNEz5tudwRN9k5y3LgkcA6GscD/JMOXJGhg0+yEbaVxXPWCL9THOi+2uD/5+R80tqyBAQAyBMFaI7AZCoaBMAh8OoDBG3RL0EDu1OOHV4mXxdG/T250s+E63OOPzmBhNB50O4jQGwNSvVlc+N+h9SLdHT3f7MzjxWECeA3wDCXdxC3MnHXxPip6fU2Pty1/Zftqb1cF6MraJ3IgQeM8c7eRjoHe7+vr6pPf2JxuuozoO+RrMkW6OPcS/FdwwyVW/2Btltw+oQArysttZ+OdaebjupY22QsrYRHIaLUtRBDICQ1NrQw+VwHXXQskJjAKhyBOAl8OdN7et131qUajljLOF8igA+nzNDfjeyADhn8E0OivchJN3u/2wGM11eSqAc2qRaGhaxMfClZDw6o7Ml+lE+XpCK23+9cSZmvPDYJg9B9zbXhb+YhABzEeHvVnXPu02J7j/FOpyzGgu4615nPPpL1uFOKJ3PZDb6Lq5xq5+PtXfPC9v8itKBMXhNxQAIHmNPEiK1PUdxRjXmxge/IVwGgCpFp1kvgbZlRRJBdctunGdAnsamVdk8xJ8kedzcQ75gs5D28r8n7otPXBOskjm4W/AEhOZD4xDwM9ygLbYyzruxjvTfYh3drY3XrdHrXRmrfDzgnu2nz3G2kLlyZo1GCwg7AuK1TQnn3tifek1O5BxNapHulaZYMQBCUm8ugZ5fdIL3OuN1ppbfmUOFH15VrqseXu+YYMrj6cF4CSTCSDUqV7+mvP09ti5t/8BEmXV4nLWYapj+RI6+AwF2+ibWJXRhsS6LgOjrgeBMIFxoVde8z+Pf9zW3OxduNCLB+EdNIEUitXkSGWceMENEOAkGso81J5zgJnQGXIZyZS8GQEhqFsnVnez0SEiKsp0aS+aM4zcXVN70trvnM8G4l8CmDuc8frJ+zKc+w8mUt7/Zah7E8BuFvl7V36sMy6iOXIvclA69Dm3UsRdxvbykw6MAtGqy6Ik81HK5VY2v8zBSMtbufEm5LjYpu7O14Q4AusIkzwLyGk9Af2Jcfs49KFhAuQURVapCxAAIS82R5goAC0I1/j8c1mSL/Tf+1yt/+sNv+bmOAFK7qdnGykMc62bM2x83WBeliuHtbwQkidzmEZLzScpEKLo0HwKTeW85F50IuWpORv7zB0wq4p1XhBvpJv59/goi9FoskX6Ahwm+PsOQS+La1dFv8W81RMMi3oEZzIn09VhHz8KghvEGZciXZwTEAPAMVXAZmxesnwIIerPOKdwGgEKvt8/5Mh9NDVMY8RKoHkQRiqglf8a8/aXi9u+4nOEIBDE9RejhJXMwrcdDj/ru1nFdAPhZACiqHiw/38BtNRzPwwQ/H3RJ3J5+jA2C704fwSGPV8a3z8e+rJWdxfkdjiUaqGVC1Pmr+u+VaAGGqV26l2IAhKDuKBJRDoDUw8KvNoTZbKh7AFTBwuglkB9EFxOBcn6iVNSN77sDdDYgcieALit9+hkLKcrjr+q35Z/ZKMv//DPNn1L1IEUwchQgKH8KLpTiB+EoVvv/cy3rWTYEnuH4w+k3pFUaJ3sPanUN51bGNB9KNnx8QrTnGhkOKG79iQFQXPw3Stdd/w+wonPu+FUbmYX7O9Viq53OLjWnJV3td+JVU8JRk+O+ZUoXbva/qCZrmeKnyyeL6WnMQ00C5IPPYFk51//75Oib7K543YvJePRTbsTaj4i+wRbzQ8wsFMYW65FvOIQJ/sfNguoVWNGccH7WmHCO89ogJluifwCCx5lHCQdqberoMfgsKA4UpSxVDIAw1B7BR3TUIMKi+v/PV3d3d7uNaUz1WCgvgQu8PjhZ7mAYfDsGV/la5zHbwSStLyqyt78RlUdLs/sfnNpVdaH7banNclKtDT/vbIke31/j7szGgJodfytj0M+xFMNUArrIAnowlnDe4bgwtih9xmhd5E0d6f8AhNBuaAQePwj0jaYO5z89ZpdshhEQA8AwoHmzI+IXGdBaAcCVGNoVACPhMbjlKUXifK+bo4kwgx8iea0yGIg4vwLAA8DMZ2Um43zFDCtzXLhR0ZoAyD/MpWrM2ZxG5jktnTnuPTYGFvIb8Rk8DLbrVsZAqUwa3BYUhB0BqBVcuHlC1HlrkzEwtJxzMK9aXcC9TQv4gquIv0s8INE1zR29U0uzGKWtNbcdpV2AUte+eVGf2mRDb+15JPwTAIfXU1dr3XJ+epnrfgfw7CWQH6qfAoJ5w3XyeZ0Fwtb7z95xg0/6QMhOW7xuMjPWekMkpKIt/2Pd8w5qGGyTMZDB/l2UMcC/sb8zo16OpRimbDIGVmWct5s70gv4zf+TYLkdXBi9ZwYzCFGYSDRwXb69eCHSv2RVEQOgyFVHrqvV/c/q9ztV9SW5LEh5CeQH9D+4DCaCjRhZtPWb0khMN25hSr8f6Z6fNET4cbLVfsAPbZA0mf7qRuav9f92s0V0AMTK6wTluVAZAzxMcGZPjT0ZLPgEAKrVHuuhND+TiGAOv/nfBIh6GzuFsvx4Mg97tIRStVGUKvVbWg+IUi98OPR3tbr/uQxPPTgTe/hYegGRMgRfZMXf52giHM1vSt/LyYgIByzrer6/E0ftwI3/o2u77R9qMwqCAVFMk+3aHevsxzV5hIJc/T+Ss6O3JFvsOW6/vTMPup3JdbeQlVvDUQIjUF+FcPzuFpx9RDVccnIN/PqjtXDdx+sGozpXaZ/ne8dxHpWXScwHwp9PX7x6gnnGwjEXAlauG5JeIARQ0wEQlV73/9bILm2NvgWA54C5T04vgc0dzvks5nSOJoLjutmWMHj7G6kw3LOiZQAw/T03zsTsSLxLOa1rHvam4tG/d8ajc9ellTFAH0WCq7lM73KsuLBLA8LZR1bDr06rhfOOqYFT9o7AvhMtGF+DEOHWQUV1rtIa+d75nEflVTQ7R/lXAkY/O2f7aucb5Rgos9JnzlVc+oUo1RIMzfI9Wkt/i0zNptdSQ4eY38wC9xKovP0RwM909NyalnmFxtvf1nqp82nt6V35+AGOvgMV0/+/b63zI1TGWyrecGdna/TcKTX2+lg4ZQAAEABJREFUbmRZatjkV8zldY5lHWoiALMOrYKfNNXCKXtFQF2Dx4/Kq2guZdrPHFIF1czLI+mY2bhn5sLGAu60OKZCZZ7BKvPyhbp4E2zng6xgPUffAan0DQBV+CC9BCpDy3IjCZZjczQRbk+FydvfsBLVWIPd/1qvZ2RlQ7P+f1jxArlUvR2p2fX3JFui85Nxey8X8HgEVO6hVwYisIhM1Zt727QaOH2/Koigf0VU78DH9q+Cb59QAxPq0D+jbSmnRPp6TPYIbsvd4FU5sBIDoJi1qO8AaP205Q3/LmYRTMlWs+j5rXMO8zPS7UwAnx+c7c8MJ0Sdi/lwDEcT4X23nz4PyB3HJrgFwYNQq/ufVXo7NavhWT5WZuC67WqxH+pssb/BBsF+LtJRDMT/x7HkMdl7vAXf48Z/Dz5yeYyE/SdZcIlBnoQ0z4hiwmRMBMQAGBOiADPoGgCIj7a1oRughgVlHYSXwKZ259NcCGPLDQHwnDB5+4MRPmz8xEZIziOJUqE2cPIoiYmsXfGGJ9gQ+B7HQ10rezDz/B+Oj3EsqaDe/C86oRrUmL5pxSfXI3z9I9WmegIO8+Mi2XSZRudXHnet8ihGiZaCQMtPO3f/h85Lm25NrEvbl/A44KO6fIbod+CXub/wuZFRSu7kvDbZYv+N+YU2DDlU2UdLwZD4/9cqQ0DEyg9/siX6I47HVLnWVEC6iEU9yDHUhrgat7/wQ9WBNP5c9sGgjAAlo8oavNT6oizO0mIgxJ4QMFBVnuRIpmEIDG1lq94mht3J45Kg5CcADi+tmpiVxWwrp4dtt7OVQ/MUWLXwBnKzmm//AGhFKmr8H3x+lsypfykZb7iMjYETIIt7AeEFAJgCACPDWMzHWPj0B6rAZLd/LsXUcMAnDqjKdTuPdDo1j8wFz1ouAsUAKFJN1tXVqR3otPC3qsrPAFDVod6y+G37G+o8JDGU3v5GxAZJ1wB4uTNeV3YT30bEymBicq79RrLV/nWyxY7117i7AsEXeSjmDhZRdJfEaqnfjKkmGmUujYfw0f2rtIcCGLvDGxetLydvhx6QK3wWrQao8OqWj0QC1Or+ZyRev2tW9E0+lmXojNu/5YLdzjEM4VJ+uIfO2992wBCx3aQ3AZAZyNv/dsDml6D2J0i2Rv+Yaome7vZnduZhgjmAcBMAFMVhl5qprzPbn/XOK9RFAM48UNvgsJCqTs5LcMEyl48gMQCKVZeEWi6AEaHsxv+3qQoevK9y3c9x2jscixkem1Jj/6CYCniV3djefSjn3Zmj7+ACdfomFsLtEOiaN2ltMt7QnoxHP9VTY0+BArskVl77jt+dW+TtNAs24aQ9I6Bka0lxSf2etVgI8egIiAEwOj5B3tVyAUxAJbUDoB8gl8wZ9y4A5rXLH5j9OK6Vjd84E4vejeulWBiJ6Hb/0wANjmF7ESd58kRguEtiZQwQgNrVb3WerDxnP3JnBDUB0DOBoYy1bHMczrL12OFBevTBUJcTV6ucClMqZTn1hvRurOseHH0HhPJwADQWADymatJL4FjitrnPD+eL1HyEbRJDfGHp+/9/bqNr5hAXskxUUy6Jk7Ojt/AwwefWpe1dAOg0/r1dxcUz2uN1yA7cEjPTYgRd2dwJeGAx9K4kmWIAFKG2B1w8TlOsW0OZZZo8SoY84trz+QH5YoEVXhJmb3/DsThrMUW4AdEbM0WQ8f/hwBbgWq18SbY0LGFj4L9OXm7vZlk4DQh/yqKXc9QKe01ALXod4j3H68nm33MIJwHqIBI+WjEAilAnSKDV/c8qP3d7y5T1fKyIsGQOpgmseVzYQi2vUt7+5gK/grDMkgirM47aU2KSlrKEYgBoAahP3NaG7t2z7fuSrfa3knFbvQFrLYfdwdZrhHVKtJOmbNZ8nI58oR0bATEAxsYoiBxaEwCJ4KEglAozz1SLfT/rdynH4APi+WH39jccBAJqHp6W53W2uqb/njxpJHuQCGw0QGt1RNhV3IzqMNCg1ZZNEDoDQAOOUJKKAVDgamlrI8actPzSM4OynwA4UrW4u9ttnB6o8yM2rq7hN68bWU5pBdRc/ofw+J0zJwQ2Ga20wAyVtm6otCmkMgj8qAP5BIiAABwguCOxXrp/9wc4fTxH3wGrytMB0FiAdDXhgGtl53I+rW5Rps8VVmYyzldy3Qxr+ulXUi0QnKilH6HyYKfFQogDQSCtw9UZIB1yLVoDsoviNyF3ocvvjhgABa5TQtR1ANSzZr39dIHVDo04NSufH2nK/7ppnbIEOEftSmiacdD8enfoVZNKbS055Mr4vxaAgRFrGQDvORSYYmMxfldf9oaxZMh9PQTEANDDL39qV9sAeEzNGs5fcPlQDM3ON+0l8NKheQalB5TrxjSVzkQoulSTh5AHg8AbOmxfXVc8A+A1fdlaZdfBbSTackwTA6DQtYp6OwACVcb6/0JXS0nLI9AyAIjgn2qlRUljULbK08s6RXv2/UItnNley2c0ZSPCa9tzlRSTCIgBYBLNMXgdv5jqOcvhHH0HtKxAJ8H5VqyAhE0djvIOeLphkd9qSjh64+iGFfLCrnExNfCDUmtYCQHE/a8XsAucp3lB74EAuDtofJ58hyBTBBugj2U+9Y7e/EWX4BmNohsmLU92YgAUsF7tgZ4jWVw1R41Q2QZA46L1H+AG6+caAOYijSDQwhOvea+klh5F+tIncYFqOPoPliXj//7RM04Z6+g5OZZI/50i2eeYuZZR2jNA8OAb3Bozo0KGB17PQq+uWMQnC6lzJcoSA6CQtZ7V7f6H9yp5q9ZjrqLqCEXaucr0Jrwxgxxham2dfUWOe+FMRkur+58L5dSuqivvjaW4kGEPjSmqak44n2nuSD8C5Cp/DJ9gnY08n299cQCyei/jrIr3oGQpmd4pRsxJlHFDswPniBqWQaKRH1gZ4FCQIhC6Wg6AWMmKXP/P5R4ME6LOxTxefezgRVBfBPNiCedTQbE3zZeAdA2A+26fj32m9RJ+3hA4PbFqPA9pfcV6w1nOdfmnIH7f76QJ7lg54E0hA7luWzEA+qsP8PlSc8ZlALqCsxADoKCQo5YBgOW+BfAodRFrd07g29/iWIBAV09rT+9aAEFaIk5bvG4yMziKo/+AJN3//tHzTdl4XfcusfZ0Wx/UvYxEv2RGe3MMLPz1+QFYvib4boAXV7vwN5alWxACuFmXhzn68uUkBkCB6rZ5wfopLGpfjv5Dha4AGByXR2pn4Aq1tdkO1QjXABGyzNCGTH91Iyun9R9GEv//jGHBAjf6Rze1OwmrGl8FhItZsN7+DczAS+jPAlzxSD+s7uGm1QuBjzyrmPeVLGPAhJ3hwl99qCAkeSKg9fDIU1ZFZ6dIRM3U1mlQCFy3IocA6mrty/nHM5VjIcPpzR3O+YUUmLcs/e1/106usR/LW64Q5IcAG5JN7emPxTqcTm70lyFSnBlUcyxoWNdLcNnDwRgByrD4BfNe12fEwHgu1VofmtVOBa2kAgsTA6BQgOuu/wdY0Tl3/KpCqRsWOWo8nh8pny+GPiz3Z2rVQTFke5HJ1qTW+D/T33PjTOR3Qy/SJE++CDReR3WxRPqL3PA/w8N3t3KPklZ95St/pPyvr3fh4qUZo8MBqtv/4nszoHiPJDP/NLwa2ErKn04o8kVADIB8EfOb39VcAQBYcRaxGicFoKv9Qm6AzrbcSEKtPjDAyyiLoTkKal8J33xdlO5/3+CNQshG4w7NifT3rWrnFc6mfr8H8zE0QfUE/Pj+DNzEY/Vqvb5fxdRs/1teHICfPJABQ2/+/HeH9/r60tf41ck8XXlzFAOgUPWr2QOAVGEbAHG3KY+TXsvVswPHYoZj1OqDYiowkuwaa3D2P7/Ej3TXWxplszIB0BtUnnIpxz1NifTv2Wh8lXuPLmGinTiGMqhxejUx8OudfdD5chbyMQRU3tQrWfhGsg9ufG4AFC9ThSQLf1KK+3GYKn+h+YgBUADEmzt61fi1XkMWqSwDoCkYb39+azt8XgIJdbuT3+lqbRBPa35/EVvRxbZy3MMW2bl8S3n85EP4g+oNWPBUP1xwRy/8ZlkGUmwMrFjjwvo+GvQdkHVh8FylJfmeyqPyXvdkv4Glftviw0bTa5Sp/922qcW9KnfpYgAUpIZdNQFQR1J/tq/+cR0GpUTLXagf4AdpEN7+/MIQOi+B/LDUNAAoKeOsfn8OAI3KcU+H89nmABz3+NfKP6Xy2vfwGy5cx8bAJUsz8KU7+2Derb2DUZ2rtOv5nsqj8vqXlJvSQrikax725s4hd0wjIAaAaURH4EeutgHwVKX8MdR4e8De/kaoIU9JofESONSjtI8nrXNlkuV/uZAZNX0bxz1ENxBBsI6pRtWmrG4u6ZxtqyG/EBWq/FURA6AQdYx6DoD4be+hQqgZBhnjG5w2MvdQfZ8I/x+Xy8xMd4J5sQ7nLOZX1ECUbdZVAK1IUpdHJdGrCamxAjruqSRsgeC9foLPSY8UFPwjBkDAkKs3Whah5a3NAnqEeZR9UN7+kOCbpgqKgOelWu3/Y36XcjQTiH47NAPfDD8/XPTX/79SyXtK5AN5Y0f3kbGEs9AqsOOefHQs8bzELzhfWNoafSts5agEfcQACLiWJ9jOB1mE5qSg8jcATHv7Q4BrO1vsvzD2sC5tX8LHZRxNhOJ6CSRCflNq0ikIAnTq0Jc9LWM86Lgn4SQtwscBqJXLXHDHPSxzpODyG/MtZFmNAGjOsIXifPi3eGmqNXpzcaSLVEsgCBgBC7T8/7N266Ytb/g3H8s6DO3Cp1ZLaJeT3yhe6u1zvryJ0bJzsd+lyGf5upujiVA0L4GN7d2HcgF25ug/iP//EbE7/UqqbWrvnsPDPP8adNwDpGVojSjEbyJBHwC2I7gfTLZGP5GaXX9PMl7/HUC4Dkr1w7p3xu3vhlP9ytBKDIDg6/lDeiLw0bY2dPV4hJuau1g/BQTzDGmZRcKW4WuJu1rrlvPbhrHNhNjIKIqXQIxENGf/A2VclPH/rX5s0xZv2LE5kf5+32TnVURcwLeUkcWHUIR3AaGtv9bdM9liz+lsGffsZq0QaV23fS7/d27ZnFYyJ7jo5BftLwCXoWRULkNFxQAIulJJzwMgApW1B0A1uYq7WK82WA0/SbbaD4zEj982fsvpt3M0EYriJdDSH///t4y3bqz+pvb1BynHPdUZ6xU26C7h1BA57kHV63eO22/vnYxHL1k6c9x7rN92QfVurXPsT7P+ynDZ7n44E3DRunT958L8YhNO3MxrJQaAeUw3cxwc1wbQcwNKZewAiAitalRLf3bYDJrGCSI8yuP9P8jJgt82+gnO5vvvczQRCuol8KzFFOEH/Sk6ijN9xb/9Ny3qOSWWSP8dMfIs9wqdy3hqztFhDsYCplinM7h7/5BkS/QPXpb/KiMgFbfnAeFPjakRDCMXkL6VjNe3KJ2DESFc80FADIB80Mozb211ner+1zhU9CcAABAASURBVMLYqipfA2Bot73T84Q1V3bHdbNjPljU2y8hfCEXEx/p31YNig+6vElW9fccw0QTOfoOCFiREwDb2siKLUqfwQ3/A+i6XQzgJzhq/TeZ3lRwmdGtLuDxyRY71tkSvRXYWOU074Hzc8/Xt5DgU0y0mmPIAm7g/91/JuMNPwXWNWTKDVOnci7D8gcoT8QjqAwAnbK9ftes6Js6DMJKq7z9EcDPTOnHvC5KtY5/3gu/VDz6dwRQPQ9eso+Vx+IG5dqh3p6x8mred5t0GVTX9N+jyaOkyJXjnuZ256v37u+sBBfUbPPjQ1SAdfzWfllVBPdJtkTP6Gqxtf19dLZGb7KyeBQPqy0NSzn5v3kHonWk+t+FRSfRYyMCYgBsxCGYb9JzAIQIDwejWHG5KjeqlhtZwFrYHE2EJam4nZcP8Yhrz+eH5IsmhDOPAnkJRF0HQI/fOXNCCN8OGUHDQc0tiQ057iGkXzD7vTmGIrDx+RYQXJLB/n35rf2iJbPs10wqdvdc+9VkPHoKIM5kvq9yLEpQ5SSiuamW6Oml5HeiKGAVSagYAMECr9UDQFCe6/+tN5w2hl13fwRmMRjed/tpLj/s+EVj8NrT15I5mCaw5nFmc14CE47qfmWW5oNaosaNxok6nBGw7Mf/udE/OpZwOqwQOu5hg/5RRJyV3d3eK9kabbsvPnGNTn2OSsvd7Mm4faNbYx+KCD/kvMHJYuYjhNU10PuBVGvDwhHuSVJIEBADIKCKOPWG9G7Meg+OvoPlUtn1AChvfwyIseV43Kid1zWv4W3mmXdItdj3M5FBZyp09bT29K7M03jo3aH3OGaq12NCbnkaAETY3NE9ncf3bwGER7lnZzZjFRrHPWyZ3g0WfKIzHv1QZ9z+U1cTDrB+BQldM7G7Mx79vttv76bexlnoMxwLESYPROoaCiHIrIzK4iYGQED1PeCiemDrcHerMfOYDoOw0c5YSFFA93rWK8JROxDBNZ1D3v78MnN3t1VvhKmllspL4PVAhH71yUnnurrr/zPZ2uh9OfmX4A3VK7LJcQ9DfhcX4eMczWPPTPMOBJsd96RaoqcmZ0dvyZuHQYKuedir3saTLdHDyHIP494ktezRlHfMETXNuqjVYzUiU0k0ioAYAEbh3MIMCbS6/5nTc7e3TFnPx7IJWcu5EgAPADOflZmM8xVdVl38NuZa2bnMx+FoIswYWt1ggtcWHgRaBgAR/FO9DW5hWLpnJeu4JySQp2aPe0YNQbAxcCwPn6keq//g55XyyKdcZ3OvGKrJtAbmirglZwCEpIoKpoYYAMFBreUCmB/Y2jOCgyta/pyb29Nnclfo5/OnHJHCBbTmDff2N2JOD4lds8f/m3W7yENWT1mY12WNCzcc5imzh0wzuOcEUdehVOn7/4/9qXe/5kT3FdUZ62XGWL3BhshxDyxHwi9H0/a+yVEc93io7oJmUcNnbAjc3tka/TEfz+J4UrLF/kCyJToFANtB50N4kg650AaPgBgAAWDc1kaMK6k12765M4Oy2QFwxsINO3Gn+FW+wRhGyI3hj5Lx+nuHJWtdpuL277jv+B9aTLYQ11mWteCsxVSzJcn/2YDlnMzUerwsq2TH/6cvck7i8f3FMJB9ngDnMxY2x7CE+wFx5pQa+wOdrfYVt5yLpnqSil4+JLpfU4kjCrM8VlPLzeSVd8LtTOUVOugS33Ngt/L+N15HTtYqkwmARJi1LLXm3tTb2mNru+0f6mA7Ii0iRVxX9VC8M+L9/BOPXpVxvp8/2QgUhFrd/8zRqV1VV1ITStvYiFaOe5oT6Qddl9Sa9rO4HEbmjjAf3eAyg1vJxeP4TfmkZNy+8caZaGY1CTMOS3Ajru6ckaq6unqtntCwYFGueogBEEDNYhZ1l7g5sFv06QBUKzhLNR5OAB8zJNghys4Oyo3okjnj3uWeinMN6arYfNuIl0AkXQPgvtvnY59SKOxRvTE2tzsXbnLcw78d3cm0BouMGxDoSiuL+3LDf0Zqjl1SRlW+QKRmNaiNh7TmArCRVDLDAPniUw75xQAIohZRzwAggsfU5LQgVCskT9Pe/gDh6ymP3v78ljMVN+slEFz3OuWNzq8+py1eN5lpj+ToPyCFvvt/k+Oe2lr7FUK6nAsbQsc9mb07WxouVI52WL/yD9wrxoUccWMtTvcU2KA+0VNGyVQUBMQACAZ2vR4Aq/R3AAzC219ytv37YKprW64Rg14CEWDfPqxTDdq2QjxeZfqrGzmr1v8UCUNrADR2dB8ZSzgLw+i4BwgeV2vn16btvdWs+UAd93AlhzPozQPg3/9x6lkQzrJtrVVlnms9WCoTstFL3Xgd1XGOD3L0HSyyTK1L962DLiG+6ahZ2nqG0BYl3u8n+BxsfCOBoD9L5mAayPocyzEzrkswL9bhqDFsZplnIO3u/7WTa+xw+ZMg2uy4xyJk3aiVUanmGIbgEsCg4x5u9I9Wa+eDGnIKQ2HH0sGyLN15AA38LDhiLDlyvzgIWMURW75Sraqeo7l0Wg+ziIslbQDE2p0TkOCbjIORgIDnqV38jDDzyCTZaquuz0s9Zh87G9Fvp/nwEoigt/4fELrCMkFNHPeM/TMJW47q9+vVaqReHb0sF0M/D0CnfKVMKwaA4drjB7aeAyCC95bMqX/JsFoFY6cmcQGSWj9sZMY243mtrrc/v4Vfl7YvQYRH/dIPo1NeAq8BfvvdOn1w7DvhfKqpI/2jpkT3n2KJ9D+bEulX+biaYz/nVStK+OAvEGDKH6U5KuW4J9aRvrhvsvMqIqpNoA41x12b07v8G7u4v9bdM9liz+lsGacmvmkzLRcGQ5NHtTwGEronlAse5VYOMQAM1yj/2LWWvSBCSb/919Xaarx7qiFYV/b2OV82xCtvNqrrN4tZ1T3t5E08MsHpzR3O+Twc8OHmhPOzWKL7BR77fguA/ooE30HAzzDZhxBgTz5O4ljFUStQNlu08f+m9vUHsTHz++qM9QqPpyuXy6aWgmphMkT8HB/PcfvtvTtboj9YOnPce3wtYSQECO8bKdl7Wth7ALyXpNxyigFgvEZRywBgdUrWAGgOsbc/xtVXCMBL4K+5F+BhAroIAA+AYD/vdrU2PBOsiO25b3Lcgxh5ho2ZczlHPcewhPsBBx33fDDZEv1D1zzU6t4OS6EC1SNC92vy3625o9fUS4GmKkK+NQJiAGyNhuZ584L1U5jFvhx9BxdL0wFQKXj781spKbNeAv2q4YOOOrmxIx+EeZO0tZEljnvyhq0kCDLUfx8rqpwf8cFfcN2B0M4D8Fei8qASA8BgPbpVEfX2zy89vpmSNeCaGnP2rUTehDyuXRLe/vIu2BABomkvgUOMgz7gR5vbnQtV4xyUJDXnQ8kQxz1BIVx8vkPLH/+to4kFsjOgDn5B0VpBMa5Evtzy600ABFjROXf8qlLDTo1rE5SGtz+/2CovgQB4HpTWZxIhXX7vfulkY3vv/iZVn3GDs2es3fl5ba39mpLBvEPjuId1eQUJv1YLPXt0VpLjHi54UAEJVC+Ab/bhdQjku0hlQSgGgMlqdPV2bAMoveV/pr39sSFxUdDe/sDnJ9li/42NvGt9khePDPEUC7PLmtqdT+sqEWtPHx1LOB0DWVoBSF9nfhM4hiIgwqOIOMvd3d6/s9X+5e0tU9aHQrEyUMIF7XkAhxy/mMI0F6QMakW/CGIA6GO4hYPulq0EJTUB8JirqDpCEbXkz94CgtbZ7Wq8XYtDwMRDqxJWBiwmCPbjeSTjRvXW3sbj9XkJ4CGe5kT647GEkwSEZQA0m+m1fF0wvamgxqZvJstq7IxHP9QZt//U1YQDppgLn40IWFaVVg8Ac8G6vg178TFUodKVEQPA0C8g9qfe/ZjVDhx9hyxCSW0uMr7BaSOCY30XeFtC5e3vbOBWatvkcF3df/aOG4BQLQ004yWwsMVD9dZ+7/497cp4G0v0No57AG7hhr9pLJqC3SfoA8B2BFfN5v9kanb9PSCfwBDojNcpo/dNHQEENaX4n9EpcuhpxQAwVEWYdXXH/zPQX/+EIXUCZ9OUcE7kcUFj3v4A8JylrdG3oAQ+Q14Cf1ICquZQkWZPsJ3/O2sx1YyUQRz3jISKpDECOssBB6C29m3mEaIgqogBYOg3QK6r6/f+X13zSmNNspr5jUALGTpj3v7U+DrzK5mwLm3/ABFKb8XGJoQRzni/r+daIMJNSU3iuGcTFHIcAQH+z988QrLHJHqwayZ2e8ws2QqEgBgApoBGPQdA/BQume7/cvL257f6lZdAKLE5G8PLyqMt8Vii5ydNi3pOibWnb0aMPMu/w3M5Xz3HkARMEcHHk3H70KQ47ilqnfT29fydf/Pv+VEC0fqtH7ogaYQ3gBgABn4FQ+OpR+mxopKYABhLOJ8igM/rlXUzdRZ4PH1wXH1zUmmcNCeczzAO55eGtqNoifRNdN0u4B4BzhWW50E/EXYAwTHJFjuWao3+A9haYf0kFBGBjf9T8jHsR0snV9ffWETVRXQOBMLyh8+hXmkk83iq2v5X660J3fAbAI3Xde8CQFcbrJWfDI2nG2QZPKvmBb0HEtA1wUuqOAnrgPCyqgjul2q1W5Kt0ccqDoGQFzjZ2nAdPwPUfh8eNaUX+wk/E5YdKbcoLWcKATEAFAq6UXP5H4tfd9LKhuf5GN7Ar2RWNao18ForHTYVUI2fq3H0TdelcmxrI4siA39gfaMcJZhB4BVC/Got9O6VbLUvWjLLfs0MW+ESBALJloavAOB8ABhrk6xb+2voxFKZ3MvlqbggBoCJKtc2APDRtjZ0TagSFA/l7Y95n87RRHBcN9syOI5uglsBedx7gMNj5HhyAUWWrShlBOKQ455U3P5fcdxTOlXNQzO/QoumAsElrLWav7SajxmOyzleb5HblGyJnhHWXRZZRwmMgBgADIJ2INBaAYBAoR7/ryRvf6P9Fk5PrBrPD7wfjJbH770qC2H3cQhH7mzByXtF4LT9IvDxA6oGozpXaUfwPZVH5fUrJwR0ytC9GdA6pVMc94SgOvyr0Dm74Z1ka7SNG/rjOE7hWMvxAI7z7m4d1+Wfs1AWCgExADSRVkvimMXBHP0HCq8HQDXBsdK8/eWqyD6ou4jvGRkCYT6DIVoDg43+aVMjcMyuEdhrggUT6xBqIwhsEwxGda7S9uZ7Ko/Ke+QuFkTD4osPPH16COAqzEYO5gbik8l4/b2eqCSTIGAcAWG4CQFr04kc/SFQV1enPOFp4WhVhdcAmBB1LiaD3v7cfvo8lOCM7umLV08AwAvB0Ifbdzh0Rwti+1SBavQjefyCVN69xlvQxLSH7GCB4mVIrSDYvIsAF7tWdq9US/S/OufWvRCEEOEpCAgC+SOQx2Mnf+aVQEGAWt3/jNHrd82KvsnH0AXl7Y+V+hZHQwHP6ZrXUJLewKiv7nMANM4EEOrNfRp38+83yQJuHH2zVD0E+0+24PjWpuBMAAAQAElEQVQ9I1BX5ZtNUITPMeNz3H57786W6A+6Zo9/n68lCAJFR0AU2IKAteVUznwhQNoGQCjH/9XQBgJVtLe/zb8HIiR0/3vztcbJhFqEk7jxH89HDTbbkE7mIYNpe1XBOIM8txGQzwVikkgc9+QDmeQVBIqFgFUswWUkV68HAMM5AbCu1lZrfacaqqeVvX3Olw3xKjib2KKeDwHgAaD5UW/+x+1hDY7va7LajryeewCO371oPQFbHPfE7eaUOO7Zrn4kISwIiB5bIyAGwNZo5Hl+6g3p3ZhkD46+g+WSWkLjmz4Iwub29JlkztufC2jN2+hFLAhtg+eJBP9PV4oapz92t0ggjT8MfdQwwIdYhhoaGEoK+IAbuJfoSiuL+6fEcU/AWAt7QcA8AmIAaGCazeJHNMgVabYn07tMnYQlKm9/hKAc3ZhS6celPuObu/8/qQvGB3awQHX/6/IZi34SDwccODnwv/WQ456ePTpbGi68e6796lh6yX1BIAwIiA7bIhD4k2JbcWV3pdf9D/BcqN6MiVC8/W37G21e1L0zEB64bWp+V9EagKmTCvdXU7JUb0B+Wo6dGxEeRcDPurvb+6fEcc/YgFVojuaO7unNHekFsfb08lgineG4luPDTYn0JYP/pwrFJYzFLtxTKYyl19UJdR0AhWv5n3j72/4HQa51wvap+aUcwI0/5keilbuK/9UHTuEvLS6biV0+2+K4p8X+c1cTDnCaBEFgGwRmLNywEzf0t/F7xF1EMAcQ9uMM1RwncPww/we+Ty6ubOpwlBthTip0EHnDETD2lBjOuNyv29rIAiLlA8B/UUPkAKhx0foPEMDP/BdmW0rmdVGqdfzz26aW4hUdo6N1FQ/I7z6u8H+zPVlmlb7Y+8Vxj07tVw5tY8LZY8CyHuQSj+Uu3EaiK2Id3WqSMWeXUEwE9B8RxdS+iLKX7t/9ARY/nqPvgCFxACTe/nJXIQHtn/vu2Hd2jgJEivAvUzJ3iuLYCo6Sg8v+eqc47hkFIbmlEDhrMfHPjf7E595XDRFeGGvvnsc0BQsiaHsEivBo2l6JUkwhRN3xf2dgF/tfYSi7ePvLXQsWourGzJ1hjDs72nqN8BjsR729g6ZsBNxnVAFyUxBgBFb3pz/LhxM55hcQL21cTA35EUlukwiIAeAXTVfbAHg8DGOp4u1v9B8Aj2XuMnqO0e+adPgzuqTt706owe0T80jhYZzd8sguWSsUASI832fRd4r0p7VX2HiTLblGQkAMgJFQ8ZKGehMAgYrvAEi8/XmpaOBOfE/5RsxkqylQI94JPjGqaQCw+SBvZ8FXU0lLUM8QLoDv5dBsPIgBwAAWK4gB4AP54xdTPZMdztF3QLSK7gCots6+ggvgfdyOM+cK/Lb4Uil7+8tVLk7XagSrLW5GmUkxQpW+aC3jpxhlFpmFRaC6vnZ3lhjh6DdM80uYD53kHRkBMQBGxmXUVHug50jOoPVuF3GxqHsAxBLOp4DA1CScLBK2hMqnAVeQBE0EiH8hmiyEvLwRqBpAXTNzl+aOXiMvIeWNdDClEwPAB67kgu8ur0FxBO8tmVP/0uB5Eb6Utz8Autqg6J8kW+0HDPILE6seHWX6Xe4b0WGgQTugKxphg4Z4Ia0ABOp7Gl7hYmr90lx34CTmEWAQ1rkQEAMgFzKjprtaKwDYZi7e2z8Puom3v1Erd/jN7uEJ+Vw7/fnkNpu3u1/ruayUWa++JAoCuRC45Vx0+N6zHH0HCzD/FQS+pQnh1ghYW1/IuUcESngL4OYOR83YHctZh0cgwHHdbMuyc7GIzZxXVX3ne903JROu69NuhJmLv7ChV1v2Kn+ShaqSEECC+3XKSwiB9gDo6FbutGIA5FnDzQvWTwEEvTGrIq0AEG9/eVY2Z+femtf44Du872g3wr5lv6cpmzuLXvAtXAgrBgEXSMsAYKAOPm3xusl8lFBgBMQAyBNwtyqixv91Jr4QuO4jeYrVzt6YoirLjSxgRjZHE2FJKm7/zgSjMPMggud09HsnTTCgvOnrMPFBm2WZ72oaAGjRv32IFpIKQ8Cyqu7TLDL2D1QFNAygqVmZk4sBkGcFc8v/oTxJhmdf0Tl3fMG7Vq03nDZWRGvuAtNvCu+7/TQXkDv/NqWU6ZEQH9cpmmr83+zm1liHiQ/a1za42oYHuahl/PhQW0hKEIHOeN1KVvtNjv5DFsUA8I+eb0oxAPKFztV0AASFX/4n3v7yreQt+XEAtP01vLjKhUIuBiAedVi+WtvooGrKLt2ChJwJAqMioDcMgBTIPIBRNZabIAZAvj8CTQ+ASFDQFQDKUxcCLeRi6jjrYPKNgXtArk222H/beFX+38m59htcSq1Zzul+gJVrtBtkVsNbWM6yDKw+eGrJnHHvepMouSodASTUMwAIjj39SqqtdBwLXX4xAPJAfMhhxQ55kGyfNVJYA6Cu1lbbbupNWtxSipVl6u1vSwmHnSmvjwSo3RA+z70Aq/Vn5Q/TbvvL1T0EStb2d/JNwbvzpZD8lYuAa5HePACE2v4denSHV4dVgFyOhYA1Vga5vwUBlwaO23Ll66zfqap/whelD6Lm9vSZBPB5H6QjkbiA1rxK8vYXW7ghVp/peZx7UBpHAiSftCxXxKNvZqF3IB+q/PIq3o++lTUy3EBIN+QnXXJXMgI7VNv8XEMtx1Gu68owQIF/RGIA5AE4d39rWaiI8OSDM1HLs5xXdZW3P0L4g9f8HvL9OBmvv9dDvpLPcuoN6d1iifRisKxOADrIVIFUA/3gG1noCcAIULwfYt7qaEDfp1Px6DIDfIRFhSBw40xkG5f05ssQnmASLuE1NgJiAIyN0VY5UG8WfaHG/4lQvP1tVW0eT89aTJGmDmd+Nju49O8sj2R5ZdvQR7D01QFYY3A4QHX73/PKAKxn3nkpkyMzG44357glyYJATgRQ0yEQIJwI/OzKKUBuGEdADACPkB5zFanNf47ymD1HNirIBEDx9pcD/lGSmzrSx6zKOA8jkdohcfwoWbVvqbf0+1/LwgurXFDr9f0yJB5WeHG1Cw+8noW+rF8u29Pxg/zrTYm08hi5/U1JEQRyIIC68wAAJjfd0H1IDvZ5Jkt2LwiIAeAFJc4zwXY+yId6jr4DusEbAOLtL7/qOT2xajx391/JjZ7qvjwmP2r/udWywH+zAdD58gC8vC4/Q0AZDYpG0T73vmtkzH9YSWp4uOs3sYSz8IyryB52Ty4FgRERyFZHH+IbegNcZIk/AAaxUEEMAK9Iay7/YzHrTlrZ8DwfAwuqlyJCkXYWYOqhfXuqjL39xTqcs/qgTjm7uYAxM7JMkvnkFVRvwFPvuHDnygFQE/heWevCmh6CTBa4N3RjVOcqTTX6y97KDuZVNAaW+o2hK7WmbefBxvbe/cfIKLcFAeiaiWrjrCd1oOAGyYgBoKNDJdEy3pVUXK2yKhfAvhlwb+0jbW3o+mbggXB8g9NGBMd6yOoly/v9BGdDGXr7U8s5+a3/Nm5hFzMQu3Esehj0GLiB4Ml3XVjKwwN3rBiAW17cGNW5SlON/hucR+UtmMIIh1voPtbU7ny6YDJFUOkigHrLAfn5JSsBClj7YgB4B1tvAiAGu/4/1u6cwN3Y3/RenNFzIuB5S1ujb42eq7Tuqh6S5nbnQqKseksxtSNiaYHgS1sax3bgjc2J7ivUnhK+WAhRhSBg6TkEApjamHD20ANLqL0iIAaAB6ROvOa9cZztAxx1QmATAGcspCigez0rZ6Qbm63wazpb7L8wv7IJze090yZEnccJ6XIuVANHCfkhwPYlzrdeT9+tlpjmRyq5KwUBN+Mu1S2rhXC8Lg+h94aAGAAecKqtrlPr/7WwqrIgsB0AByLOrwDwADDwIYCXMhnnKwZYhYLFSR1rJ6k3V0K3ixU6lKMEHQQQT7Gq8dHmRY48pHVwLFParnkNb3PR1OZAfPAbXK15AH6lViKdVqNWKYCRhbrj/6/dNSuqt1tWDrCb29NnAsG8HLfzTXYRrc+Vhbc/Imxq755T41Y/T4DzGQj5rTMIhsLu5NK9sY5uY0NOhvQSNiFAABH03AITyjyAAtWjPBQ9AM3j4aoHwEPOkbMgwMMj39FLnbFww06EcJUely3U/Mf9UbIMvP01L+g9MNbRcxciLgCEHbeUUM4MIlAFhJc2tTuJwSEog4yFVWkj4ALozgM4cmjY1QcQQpIPAmIAeENLawIgApnv/uc33KxlXcvq78TRRHhsbbf9QxOMisVDbdwTa0+3kZV9CoCai6VHJclFpPiA5TwyfeGGgyup3FLW3AhY5Or1AABE6urqtXpdc2snd7ZGQAyArdEY4Ty2wNmdk1Xkg7+ARMYnADZ3OOcTwMf8abQdlUOUnb3sXOzf7k6JJMQS6dPrM87T/MZ/McdCbiv6Jr8JzwbARVC5n4Ndy3qgqT39icqFQEq+CYHOeIPyrbF607WfI7n+hgH8yKpkGjEAxqh9qgJdS9TtyfQa3VjFtLc/bjC/nmodH6iTojFg9n17Wnt611jCWcgMbuM4lWOhgosEV9dC78HJVvsGHjppAYJLCiU8hHImIsJNzbJUMIRVU2CVuFuI/wtawwA8tCkTAQtQbWIAjAEyP+S1xv+Z/bMmJ9Wpteymvf0lZ9u/Zz1LKmzauKca4d8A1Fpg5Ze5LnykszV67u0tU9YPyuaHXrI12kaEn+HrtRzDFtbzQ/XHrFSQuvHfBedbb/TcMW3xBpl7wWBXbLBIywBAgOPy9zlRsWj7LrgYAGNBh6A5/m/WAdCEqHMxERjz9uf20+eBG6+xYAjT/caF6WMLtXHPsHJzI4oXTqmxP9I1J/rosHuDl6lWezGgdSQbJdrroQcZGvji38t9Va51ZCoe/a5LkQ8BwVMG2I7CgpqrMtaypoWObu/ZKDLkVpgRILJ05wE04JvOEWEuYznoZpVDIYIqQ1sbWUCk1di6CMZWAMTanRO4rN/iaCQg4HlD63aN8AuaiZptzhhcalmgNh0p2MY9Q+W6tSqCh6Xi9pU3zsTsUNqIh2S8/pVkPHoKEc3lDGpdNB+KElYj4ZdPWWGfsmRO/UtKg67WuuXugP0RIrhGXQcVEWBPtTtcTJYKBgVxqPnWra5XBnKvjpJWnvMAdGRVKq0YAKPU/NL9u5X3v/GjZBnzVsQCIysABpfFIKmNfox4++MH9LWl5O0v1uGcNWA5LwCSWntuBIMxK48zEMBL3HX+sWRL9Iwls+zXOMlb4F6VVGvDwlroPYh5/ICJtCZFMX0+YTXX78VWTd/Uzlb7iuF7UHTNw95Ua/QLrNd/M9MMx6BCFRBeGkvIroJBARxWvrfPxz42MpUR4FtFQpJ5AL7R80YoBsAoOBGiVvc/s3YGdrH/xUftUFdrKxe2pia5reztc76srVQBGBRx455+bkR/0pC2D0vFo2qCoa/SqjkCqZboxW6NvTf/nr7KTNQMaT4EEp5hGRf29Tn7Zyb74AAAEABJREFUdLZEf3D3zMnrRpPCev2WXDyZDQHvhs1oDHPek10Fc0JTxjcQUWsYgP9/eTgEKmMgAyyaGACjgetqGwCPdzXhwGgivNzjN6hP8UP6817yesiT5beyVpMTEz3IzDvLWYupprk9/R2i7NNMXOCNe2gpWe5R3Ih+55Zz0WH52qFrJnan4vb/ck/CIVYEjuY6uIyZKuOQq5bP/AfGBy91AY9n3mys2FfmU7epOfbDAzXuMazE3f5V8ECJcLiF2UdkqaAHrMokC4LeRED+Te6qXgDKBI5QFkMMgNGqBfUmAIKB9f+N13XvAkBXj6Zmnvd+kmy1H8iTpqDZYx09J6/KOI8Two9YcD3HQoVV/NA5W43fp2aPeyYooXfPij7OdXARN9iHu1Z2JwD8T37buZiPypeAGjJSvtTXAIDqnlcGpDp/na8f5t/Un/j4/4EFn+Ax9l2YxweTLfa3u1psNS+Cb+Ufls4c994ONfZHWYefMDVDwN/BhKGlgukfs4FXsGGcYIoiXMdCoKpmQD1ntH5PrjvgqRdgLF3k/sgIiAEwMi6gvMrxrcM5+g6Ilt4EQCKMVOMfWYEdOJoIj61L2z8wwSgIHps27gFyU8z/EI6FCvyQwvb+Gvdg7ha/Fnj8vlCCu2aPf58b8L9xb8MP+BhPtkQ/zHE/jpM51nKs5qjO9+TjccnWhll8/F5ydvSWztkN75jSU01sZB24xwXOYJ7K4OBDIAEZ7G+v6kt3bjRuA5EhTEOAwJ0zJ6h5L8/qqGIByjwAHQDHoLXGuF+xt+syPUdz4as5+g7ZCGoZAM0dFeLtjw2dpqJt3EMvcns/I9liz1Fvwr4ru0wIU63Rf7gU+TAEvVRQdhUsk1/M6MVgY09rHgD3AnroARhdB7mbGwExAHJho939D+91zap/ORf7sdIrxdtfc/E27unhRu6S2tXRD3bGG4Id/x6rskN2v1BLBbnYu5PsKsgwlG9g41rLIRAjc3DzgvVT+CghAATEAMgBKpKr5wFQY/2/8oBluZEFrJrN0URYkgyZtz81xFK8jXswRZQ9KtkabVPLlUwAXG48uuYNLRVEOJfLpuYi8CGQMLhUUHYVDATbojNFqNI1AJCqI8r/Sc6yyA3/CIgBkBM71PJiRgS+NwDCNx3lU153CeKmkr3fT/C5Qo5rwxif2MINsfpMz+OAcDHHgm3cgwBvKec83N0fS5Xo3gdjQGv8dioevZq7YdUD2Hdvlhel+E1RdhX0AlSJ5emM16kJrWoCq3/NszIPwD94o1OKATACPkNdTvuOcMt7kkW+DIBYu3MCEihnN95ljZITAc9b2hp9a5QsBbs1bdPGPZbVCUAHFUwwwODGPTXQ+wHlnKeAcstCFBsBy1wrq3rElgRcILWr4EPcG/DpgOUI+4IiQGo1gH+JSKPMA/DPVigBxAAY4VfgVkXU2z+OcMtrElkDbt5esJSrW0D3ehYS4agduBfims4W+y/ajDQZtLWR1dSRPqcYG/dwJT5BLp7QufXGPZrlqURytVphSo39H0CgeqfcADEYz70BNzbLroIBQlxY1oSW3jAAwbGN11FdYbWuDGliAIxQz+hqrv8HWt45d/yqEViPmjQQcX4FgAeAgQ8BvJTJOF8xwEqLxfQb0kfdu7/zIPdqXMWMtNwqM30+IQ1I35pcYx+rnN3kQyh5R0ZALRVU8ybYsPwE5wh4qSDOt15P3y1LBRnpkg96DoEAobaqtmfEPVlKHpoiF8AqsvxwitddAQD5r/9vbk+fyW9X8wwB4iJan8vHI5whuZvZqN6MWLtzqZsF5djG1HyGzfzHOFEb9xycjDf8VDVaY+SV23kioJYKAlpHIULevVx5iZKlgnnBFdbMO1TbTwDgBtD4uOSKPwAN/HKRigEwHBki7jWGDw1PzueaOahGzzPJjIUbdmIa9YbsmWa0jPxg/lEyXn/vaHmCvBdblD6j33Ke4zdwNZfByHCGF31VrwfjmP/GPV6YS55tEODf1yvZjD2NAt5VkIXKUkEGoZTDoBGO5NtT5WDZ3ZEmAg7ekS8NBMQAGAZe7M99asMdLc97/FD0PgGQCLOWdS2rsRNHE+Gxtd32D00wypeH8tsdS6RvAxduZitqz3zpNfL3I9CVVGMfnor737hHQ35Fkm5eKkg0lwHo4RhUqALCS5vanYTqWQpKiPANFAG9eQAIJ7W1kbRXhqtIAB0GKA0MqAmAw1Lzuuzvq6l/0itFOXj7O+Yqqm5udy4kyqpyn+617CbyEcF9NLhxT8OFasMdEzyFR34IqJUV3PMyjalkqSCDIGF7BNhA1zMAACbdc2D3wVtzlnN9BMQAGIYhv7lqdf8zuycenIme3obKwdtfc3vPtAlR53FCupzL3sCxUGENEn75lBX2KUFu3FOowpS6HO55WYbZrJqoJUsFS70yA9A/ko0+yGzVxlZ88BnIknkAPqHLRSYGwHbIoFYPAIE3B0CNKaoqZW9/mzbuIXS7GMJDORYqMMSDG/cc1NlqX9HWhm6hBIuc0RFQK1+ScfujgPQtzhlkvchSQQa4lMKSOZhmfZ/k6DtwY7WVAeCbjRBuhQBjutVVhZ+qrmyG4EiO/gN5cwBUst7+iFA27vH/8yh7SkRSqy+IQJYKln1l51lApPvypNgmO/+mxCHQNojoX4gBsBWG4xsctf1v/VZJeZ9SxB1zAmCsRL39ycY9ef8cKpZAlgpWbNWPUnBNh0AAUxsTzh5KgEQzCIgBsBWOCLoOgGBd4wvjXtiK5Xang7OYS8zb3/GLqT7Wnm4jK/sUADVvV6hAE2TjnkDhDZB5Ml4vSwUDxLfUWLsZd6muzhbC8bo8hH4LAmIAbMGC2zY9A4AHpx8Za0y61Lz9DW7c059+AmTjnq1/KXLuEQFZKugRqArI1jWv4W0uptociA9+g3II5JdW6IYjIAbAtohoeazjHoSHt2W37VVzCXn722bjHsIDty1JoFcuElwtG/cEinHBmaulgkCgxnBlqWDB0Q+PQETQmgcAhOo3FJ4ClbgmYgAMVeCJ17w3jk8/wNF3IIScHgBLxdtfG3f0y8Y9vn8CQjgKAsnW6GOyVHAUgCrglgug6w/gyKFndQWgFXwRxQAYwri2uk6t/9fCo8rKYQAQlYS3P9m4Z+jHIIfAEJClgoFBWxKMLXL1egAAInV19VpLtUsCqAIpqdXgFUjHgoghS2/9Pyv56l2zom/ycbsQdm9/amJiTDbu2a7eJCEgBGSpYEDAhp9tZ7zhOdbyfY4+AwC5MgzgG7xhhGIADAGCgKoHYOjK12HE5X9h9/YnG/f4qmshMoCALBU0AGKpsWDjDwiUV0DfmvNQqzgE8o3etoRiAGzBQ2sCII3gACjM3v5k454tFS9nxUNAlgoWD/uiSbbI9zwApTMCHK+erepcoh4CYgAwfkPOJXbnU/8hEtmuByCM3v6Ut8Nm2bjHfz0LpXEEZKmgcUhDzZDI0p0HEOVn6xGhLmSJKCcGAFcUot76f2bhZnq6H+Pj5sBj6icgwTc3J2ieIOB5S1ujb+mwaZaNe3TgE9qAEZClggEDHBL2davrH2VVejnmGbZkt2QewBYwNM7EAGDwuKHWHf9/5v6zd9zArAaDmlQHIfL2Jxv3DFaLfJUAArJUsAQqSVPF2+djHxEoI8A3J0KSeQC+0dtCKAbARiy0lpXwj3mb7v/QePsj2bhnY/XKdykhIEsFS6m2/OmKiPflSzks/7Rh13LpA4GKNwCU4xsAOsYHdltILNhsADSHxNufbNyzpXrkrAQRQNlVsARrzbPKCHoTAVnQLmoiMx8laCBQ8QbAPQd2H8z4jefoOxBs3AI4DN7+ZOMe39UohCFEYNNSQVYtp5dNvqcfEE+xqvHR5kWObDajj+aYHPqwX60EcMfMuDnD9ieuOyBugbeHJa+UijcAMItay/8YbQd2iz4N3N2etaxr+XonjibCY2u77R/mw6hYG/ewjm8T0dxkix1LtY5/nq8lCALGEFBLBd1++2QiuMYY05EZ7U4u3Rvr6DY2eXdkMZJ6X3ziGkZBOQXig79gAco8AH/QbaayNp9V6gnqGgC0rKsJB5o7nPMJ4GOGYHSIsrOXnYv9XvhNa0/vGks4C8GyOqEIG/fUQu9BgzO4vSgreQQBHwh0zcNe7g34gjI0mbyHY1Chiv9Dlza1O4nBybxBSRG+wM9Lz/MARoKLEKQHYCRg8kgrawNg2uINO8YS3TO4cbygOZH+TVMifVcskX6K4wqOqzn2MVb/xdF34B/hI6a9/fEf4yIvb9JnLaZIU4czvxrh3wDU6rsQ/giXuS58pLM1eu7tLVPW+2MhVIJAfggoQ5NcbOL/yGv5UeaXG5HiA+g80Njeu39+lJLbKwKMsRoG8Jp9pHwHn7Z43eSRbkiaNwTKygA44yqymzrSn4x1dF/OjftT1RnrHQC8kxvHK/mBcT4CTAeAD3KcynESxxqOWsEieDxCkXZmYnM0EW5Pxe3fjcWocWH62FUZ52EkuoLzas1hYPp8wnpCvHBKjf2RrjlRraU8+QiVvILAJgRSc+yHB2rcY/g/ffemtECOCIdbmH2kqT39iUD4VzhThCqPBkBOoLB/oEqGAXLCM/aNkjcA2trImr7IOam5PX1VOuq8hQQ3AeGFAIMNPbf5fBZgILBO57HJYw2JeL+f4Gxg0zgXP9UtGWt3LrUseIjz6K1eYAZ5hlurIngYGyhX3jgTs3nSSnZBwBgCS2eOe49/hzMA6VvM1OUYVJiICDc1J7qvEPezZiHujNetZI6vc/QfsigGgH/0oGQNgMbrqC7WkT7v3v2dF12XlhLCOYxDId+EWZwK9Bn1bSbiOaN5++NxyZkDlvMCP/TUJKWIGZljcyGAlxjfjyVbomcsmWUH2vU6tjaSQxAYQoAN5WS84adsgH+KU9ZyDCogAc7HN5zb1bBiUEIqky89MFa5R7tPIA6BRsNnrHslZwCobn62xr8WqXZWAsFvuYCqO58PRQtGGmLuqrg22WL/baRSqPWuTYn07fy8+zPf341joUI/6/WThrR9WCoeva1QQkWOIJAPAqnW6M0uRZQ3zyfzocs3L/8XpldlrGVNCx0tx2H5yi3n/ISW1jAA18mHTr+SassZoyDLVlIGQGxR+gzu5n+GrfHLCGDXIIEpJG8uy0u9fc6Xh8vcauOep/iH/tHh94O8JoL7yHKP6myJfueWc9EJUpbwFgR0EehqrVvu9tvH8e/2Gl1eo9Hz/3BPtOi+mCwVHA2mPO7RGAbAGKwQavt36FHG3xgZ5fZICFgjJYYtLdbRs3esPX0zuHAz67YPx3IKWSRs2XovAVU4LvPJE6LOE4R0OV9HORYqrCKAs1Mt9smp2eOeKZRQkSMI6CKwaakgIJzPvYNqhY8uy1z0g0sFYwlnoeqRzJVJ0sdGgHazudcGN++jMjbF9jlccmUewPaweEoJvQGgZvUDuY/zn/oMTyUqsUyI8IRZuSYAABAASURBVONkq715HGzTxj1c5hQX5RCOhQrc7mN7f417cKolei3weEOhBIscQcAkAsl4VK2iOYF5vswxwECt3CP56PSFG5Q30QDllC/rriYcACQ1oXnEQnpKdGUioCecRsgUWgNAjes0J7qvQAI1Lq6W7I2gfsknPbbZ2x/Jxj0lX5tSgNAgkGyNPobZ7LGs0BKOQYaDXct6qKnd+XSQQsqct+4wwEltbRTatizMdRdK0JRzh77JTooA5zN4POzG3+UXHBry9te0aMOhsY70PYi4ABB2LGBRe9jA+u6UmuhhnfGGYNdUF7BQIkoQUAioXQWn1Nj/QdzLxtfEMagwnjvMbuTeyh8p51xBCSlXvrk3BvJc4klDe7p4JpCMGxEInQGg3Nr291Wp7u/y3pQD4eu9teNejbWn2zBrLQPAAm9viSk2QI7qbI3++MaZmAH5CAJliAD/trOpePS7RKCGEJX/+aBKyTYAfGdVX7qzeVH3zkEJKUe+kWz0QS7XAEf/gawT/RNXLmWoDICm9vUHVSM8xG/Bh5d5ldxOLrxal3Ge4bJezLGQy1jeJMLPJGXjnjL/iUnxtkYg1Rr9h0sRtfHXk1unGz9HPMV18RFZKugd2SVzMI0IT8CwTz6X3JCJAZAPYEN5GbehsyIfGhPOHogRNV63V5FVKYT4CfyDv5XHNvYthLAhGVlA+HUt9B6carUXD6XJQRCoGATUUsFo2j6B/3sLgyw0/6/35O6Ae3hY77wg5ZQTbwK95YBEsjGQn99DKAyAxuvWTLSI/sEFqITGn4sJaoayOhYk8gPpCXLxxGQ8eoFs3FMQyEVISBFQPi0649G5ge8qiFALBL9tkl0FPf4ShjsE8ki2JdtU9RK55VLOvCBgeckUZB4129+qrvkHv52We7d/kDDm4j24cc/kGvvY1Bz74VyZJF0QqDQE1K6CgNhIAIG6tuaeANlV0MOPq9+l+zxkGzWLhVDe88ZGLb2/m0U3APqmOJex6gV9I2Z5lRBk455KqGUpo28EknH7n1Y2exQzUEOPfAgoIKhdBZdxb4AsFcwB8eAeKAQrNt32dxSHQPniVlQDYPAPQfClfJXON39tBGD3cQiH7RiB4/aIQPM+VfDR/SNwxgFVg1GdqzR1T+VReRVNvnLCkJ/faGTjnjBUhOhQEgjIUsHwVBNaoOcPgPCk8JSmNDQpmgEQ6+jZm7vH/hgUTNXcH7TvJIST94rAaftVwTG7RmAqX+9kI0RrAGr4PvLguIrqXKWpeyqPyjuDaabtGQHFQ/EKSk+DfGXjHoNgCqvKQWCrpYJncqkD3VUQCb7zfsa5Q3YVZKSHBRc2GQDDbni/PKJxMTV4zy45i2YAgOv+iuGfyNFoqKuCwTf9GVMj8EF+459Yx628DwmKalI9DvJQvA5lXoq3D1YFIKGlsnFPAWAWEWWNQKo1ejNURZT3wECXCvKzZbrsKrj9T8kiV3ceQFWkP33c9pwlJRcCRTEAmjrSnwQE5Zgjl155p/OfCqZORIjts/FNP2KwZIrXftx7oIYJDppigeo1yFvBYAjWIOGXT14ebZSNe4IBWLhWFgLJz9atkF0Fi1PnnfGG54DgPR3p5MowQD74WflkNpH3jKvIRgK1wx2Y+qju+5P3jsBhO0Wgirv2TfEdzkcZAsoAOJmHBpTM4fcLeM1D/XC9a2UP7Gy1r2hrQ+49K6B0ESUIlDECXfOwl3sDvsBFPI8bJNlVkIEoSOAxYZbzEEffgRDEIVAe6BXcAHCiaeUcY588dBw1664NCKfsFYEJtThqPpM3J/CwgpKpZJvk65HXc2RZTcmW6Lyu2ePf90gj2QQBQSBPBPg/9nuw8GS2tgNdKghArWnbebCxvXf/PFUsv+wWaU0E5FbguMYUVZUfMMGUqKAGgFrzT4BfNVWUPcdbcOxukUDf+nPpqnoalOy9JxYMwh5+G7mkdrV9VGp2/T259JJ0QUAQMIdAcmipIALcaY7rCJwQZKkgw0Jk6c4DaMA3nSOYlQQPCBSs9VK69E1xPs/H3Thqh30mWHDULhbwH1Obl18GSvbhO1mwN+vil4c3OhzcuCfZGm27fT4G2SXpTR3JJQhUEAJqqWBn3D4dkL7FxQ5yuG1wV8HmRPcVlfoWW7e6/lHGuJej72DJPADP2Fmec2pmbGsji99gv67JZpBcdb1/cOeCqT4oM9fXoBHAuiidcuXRSJeNezTAE1JBwBgCPD6djDf8FCw4EwACXSpIgPPxDef2SlwqqF5wiEAZAeD3Q0gyD8AjeAVrRZce0H0K6zSVo1ZQk++K/eY/vADKCDhqlwg01Kiz4Xd9XbtIcLVs3OMLOyESBAJDIDk7eouVRdXF/EhgQpgxP0mmV2esx5oXORXk3pYLzgERdYcBpjEbCR4QKJgBQGC1etBn1Cxqgv+xu0ZAjb+PmrEIN6sYyWN4SELpaED8TZ2t0XNl4x4DSAoLQcAwAnfPtV+Npu1GRAh0V0FWew/KUqrSdhVE0JsIyLjt0tzRq/2yyXzKPnCzFXwZj19M9dz9/5+6kqZOtAo62z9ffdXqgH1Zx3zpts+PpzZeR3Xbp0uKICAIhAEB2VXQfC1s4tiH/WolgLvp2s/RdQfELbAH4ApiANT1OzNYlwkcfQflhU+twffNoECEB01BULrqiaNxkWpnuh4PoRYEBIGgEZBdBc0jfF984hrm+hxH38EClHkAHtCzPOTRzsJdOk26TPafFAHliEeXT9D0VTwGsN8kS1sMEfyHNhNhIAgIAoEjoJYKkpU9mgDuDlTYxqWCjzS1pz8RqJyiMN9WKGOpNQ9AHAJti2euK/2WKhfnrdMJY1tf5nteE0HYewLmS1a0/GpZoPYGQggnF60AIlgQEATyQkA55dqhxv4oNzw/ZkJuv/g7mDAREW5q6kj/6KzFFAlGRPG5ImrPAzjktMXrJhe/JOHWIHADYGgpy2E6MOw+Hkri7X9TGasY1T3G46ZLv8dDmhesn+KXWOgEAUGgsAhs2lUQLPgkSw50qSCW2a6CjNc2oSob0eoBYGbYP1AlwwAMxGiBm6rRbuvfq+rHo5mLVmu457jA1WQVzYbd9Q0ABMv6EMhHEBAESgoBtVQQqiKyq6BGrS2ZU/8Sk7/J0X/IyjyAscArQMtqHTSWEqPdr+FOLjW7frQ8Ybw3qQ6hlnXX0Y3Q+oAOvdAKAoJAcRCQXQXzwT1XXtLqBSAQh0C5kN2Ubm06CepoEWkZADvaWFR3v35xQSbcgXXng0bQw05DsJAKAoKAJgKbdhUkornMqodjUKEKCC9tancSMxZSNCghhebLL0BqOaBvsfwM/pAspx4dvsANABfgwNFVGP3upLrAVRxdAY27E7V1xwM0xAupICAIhACBgi4VtJz7S21XwVxVhK5eDwC/OdZW1faooZhcIio+PfDWla2wXXRQbqjVoS4ubUONrnzaQZeD0AsCgkDxEVBLBa1s9ih+Hga7qyDAERZml3FvwKeLX2o9DabU2k8C4AbQ+LjkykTAUfAL3ABg2Q0cfYdoNf9lfFMXl7BBf28AMQCKW4UiXRAwhoDaVXByjf0xZvgjjkEuFRyPSDeWxlJBRiJHUKsqAOmhHLe9JbsyEXA0oAphAIwbTYGx7lVbQf5PxpKud9+A7js2J7pbYu3powfdKeupI9SCgCBQZARUo5Zsif6PLBX0XBFa8wB4GOBEICrdt0jPMPnLWAIGQOnWXRVq615DgO38I15Wn3Gc5kT6zaZE+q7mRPcVbN2fM32Rc1I5Tfrx9xMWKkGg9BBQSwUt2VUQxqo5ItJaCcD8Jzfd0H0IHyWMgEAhDIARxEqSHwQIYFc2KaYT4HwkuMp1aemA5XQ3i2HgB06hEQSKioDaVdDtt09mA/+PASuyB7l0b6yj+5sByzHOvtqNqiGAAS3GZMk8gBwAFsIA6M4h21PyAJGnfGHMVCjdGSExDML4AxCdBIExEFBLBZPx6Bf5TbcClwqOAQ7fXjIH09yR+gSf+g7cyIkBkAM9xibHHXPJ63VYZQb4nVeHQRFp+93i6p7DMFgXS6Rf5F6Dmzj+uLmjO960aMOhRYRJRAsCFY+ALBXM/RNg40hrGIDfIWVr4BzwFsIA0OoBSPdzM5ZD+bAnd2dCqbvyT7g/a/ZJjt8mwgS61tNsFLwR60j/z4nXvKc1aTPsdSL6CQJhRSAZt/+pdhXkIYG7AtZRLRUs+q6CnsuI1gOe846cceqpN6R3G/lWZacGbgBwI/O2DsTdGR3q4tKWmO67AcEPa2vtx6Ynuj9YXOREuiBQmQioXQWnVNunc+mDXipYMrsK9us6BGIws7IckFHYPgRuALCAF7YX6z1lTa/rPXPIcq7pKUnd93cBk6d29IoXwpD9nkSdykBg01JBIjiDS7yGY1ABkeA7q/rSnc2LuncOSsjIfL2nLm2NvsUvJyu8U4yUUxwCjYQKt88jJZtLcxGf1+H2nkNc9zocikPLPR+wKkjv38EWaweXsgt9r58lQjWvoKkj/R+DUc0x4LRgVRbugkB5IZBqjf7DyuKRXKpHOAYXEE8hFx9tXuQcH5wQPc5ogZ4/AEKZBzBCFQRuACC5/x5BruekTBZgXa9qTj2ThCLjWta5L1t6em8CjzU/rmmR84lN116Oav5AUyJ9SazDeV3NK+C3i38MRjXHoMN5LdaRvrhxMTV44SV5BAFBAEAtFeypsU9BhIUB47EHZSnF/9HzApYzyD7fLxc0DQCAI+TZsz3qgRsA/TX0OIvl9oS/fYZX13P1+6QtFtlr67SKXCy1t5HLjXd8m4RRLtS8gZpa+0kE+D5nG2nCze7cldOGGefZ6Tekj+I8EgQBQcADAg/OxJ7OeFQtEzyP/0N9Hkj8ZUGoZf6/jSWchWdcRbY/JsFQWeRqrQRgraoi/enj+ChhKwSsrc4DOV06c9x7/KP6lw7zN9YDZEvIBhhgXd/YUPoGAJfA005aMxb27OsCJrnx33eseuY8e7pZuLtcdiwbq7xyXxAwhUCyJfp7sPBk/l++ZornyHyoNR11HgjuPzqy1NFSO+MNz/H9VRx9Bx7mkGGAYegFbgAMykNKDh59fvW7BC+X0Bv1y+tcUDr7LG5oyLix3nUsZdrayBqw3Bs5Xz4bF022MNvhd46Bktmc2HBIbFH6jKaO7tMaO7qPbLyO6lgHCYJAWSOQrNSlgmq6IoHWckBCEIdAw/4dBTEAiDA1TG7elyvWZEG9WedNWGCCATZWVq5xCyw1IHEEY27Fec9+PZ9i6cdwzDd8ONbRc2Y+RGrfAzXH4N79nVcJrGfAhZuR8A6L8HGr2umODXNwpIYaZBOlfBCWvKWAQKkvFfSNsUVaEwH5hea4xhRV+ZZfhoQFMQB6a23l2II78v0j2DsA8MJq1z+DAlH+e5ULStcCiQtWDOLTYwmwLJo1Vp7c993P5r637Z2mRRsOHbCcp/lP/H2+szvH4WE7B0c81PBYfcbZIIaQfpxrAAAQAElEQVTBcKjkutQR2LRUECz4JJdlLceggnr3/s77GeeOaYs37BiUEC98iSzdeQAN+KZzhBdZlZKnIAaAmsTCD+6/6IKq3qzDvCJgbR/BS2tIt5ihoUeCW8dSxiX48Fh5ct/Hj+S+t+VO7E+9+6FrLeWUfTjmG8QwyBcxyV8yCKhdBaEqoubqPBmk0vz8nl6VsZY1LXQ8/Wdz6+L/Tt3q+keZupej72C5shxwa/AKYgAoga5laS9j4cYGHn1bDQWEr5FVXf/L3syCCc0Q4YcAeCkA3MwMV/CxGF0fq3oz6T+w7FEDGwk7jZphtJsEu4x2e/Aejx9hNvsnPp/E0WQQw8AkmsKraAgkP1u3oqfGPp6fG9rP2NEKwUbAntwdcE+xlgrePh/7iEAZAaOpOeo9QpJ5AFshVDADIDWr7l6Wu5KjVkhnAB5/2+V2UYuNUWLV6C97y4V0vwm2+HznbPviZIv97WRL9JPJ1uj+/Odu4AIfg0CtUBjDgAjxnPvP3nEDjP3xP7SDMGbXpZonQATqDQcK9BHDoEBAixhzCKhe1lJYKqhbYkTUHQYQA2CrSiiYAQBsOrLcn3PUDm91Ezz1TjiMANX4P8kGyTtpdaZdNOBG/lewEavNzNSfmw2BxzpbGhLJ4A0D5b7oS6m4/dfNCox2guTf0RONTUvgfmY08QW8J4ZBAcEWUf4QSA4tFWTqVzkGGIqzVJCfj1oTARmQ3Zo7eqfyUQIjUDgDgIXVrrav48ObHLXDK+tceLLIRoBq8lXj/6o5R0XvRFz7eq/gBGAYPEmW1Zxqif7Wqw6APEzhOfO2GRGsm2HMD54wZpbiZhDDoLj4i/RhCKilgq6VPYb/m2ry9bC7Ri/z3FVQX3ZVzYBaCqg1JOq6A+IPYKgqCmoAqDEcJPzFkGztw6tsBDzK4+5q/F2bWZ4MlMx/vpEFg40/cLf7j5fMwXSeqmyX3YthQAg/ZsI/sBGzgLvYv48WnsAPjqNSs+vv4XTPoa+35yrO/C7H/ALBezXY88exiHjcMR//AmOxK+R9MQwKibbI2gaBcl0qeOfMCau5oMopEB/8BQtQhgGGoLOGjgU7OLX1v+NG5yVTAtVwwD2vZqGQqwPUbP97XsmCqW7/ISxeqVtVrxrToUvzh60Ng1Q8+l3uLjyH3/Y/l2qN/rBztv0gDBt68KLB4DwBxC9xXq5W/vYWiCz8r9tbpniZP6BtEHlTqWC5xDAoGNSVLShsSwVN1QY/aLTmAfDLjxgAQ5VRcANANUIsdP6QfCMHNTFw6WtZeOY9N1BnQeqt/+n3srCUG38zE/62FB8Jvqx6SLaklM4Z9xzcSIhfZo2zHMcKWQS4IOVxjgH3TvifYzCWJuG6L4ZBuOqjbLRJzo7eAmW0VJDfU3TnARxy2uJ1k8umgjUKwm2xBrVP0s6W6K3cCPzdJ/mIZC6bhSvWuJB8eQDU0aTXQMVrOfPufCkLK9cQsKgRddBIvLmzNXqTBn3RSblBv9IidzorknM9Mtf5E4BWjOv/N5zPU7AA/+YpY/lmEsOgfOu2YCUr/lJBc0Wtyka0egBYE+wfqJJeAAbC4liUgFlUvQBrTAtXXvie4Z6Au1Zm4al3s7C611+DrRr5NUz7r3dduJt5Pcs8+7y83+ZfoDVVkcEu9PwpQ0Zxd+u4rpOX20er+QTc2F/M8VoV+S3++y7g8dOW28ck4/VqOahnzbMDfdeyxfWeZ4LKySiGQeXUtZGSqt7XclgquGROvRpC1ptMnpV5AOpHVTQD4O659qtI8HlWQrW1fDAb1GY8L68luO/VLCxZkYVlb2W5Z4Dg3TRBd4Ygk2XDgCVz4zR4rtLUPfWGryYWKpqlTPvSWhcyqnvBrHqbuRHhF5fMsgPe3WuzuMBP2trQVfMJ+C3/BxzPVjHVGv1hV4v9kLqXrwJd8yZxLQ4aSFxb+VJXZH4xDCqy2r0XOlmEpYLetfOak7R6AQjEIZBCumgGgBI+2O2NdKU6DzL2cWP/xgaCZ3j8/qE3sjxMkIU72Ci45cUBUFGdJ1/Ogrr3NOd5s5tA0QSp0xDv36da7f8bOpdDDgQYo8XkfY5BDi4Vn5zLMJBNlCrwp5GM2/8s5aWChJbWPABEOCmWSBPHPo6rOa7g+FRTIn1XcyL9m1jCuSCW6J5R7P0Pgv5pFtUAUIWbUh39BvGLujqvpEiAXVNq7Asrqcw6ZU3F7SsR3VOZR845BnxPQv4IqGfA/gTwSY7fJsLE0CZKYhjkj2VJURRuqSBM5Ab3pqaO9I/OWkzKEAXdD7p6PQBbya/hc+VmXDkH+iAPWU7n/8H5AOrFFO+szljvxNrTT8Y6ui+PLUqfcfxiquf8ZRPUn7+ohblxJmb6rf5PsBJj7jzHecojIL1QU9P/aVX28ihQYUrRGR+XSsbtowjwJAL4AUst5l4JLL6sg3o2iGFQ1lUMwM+gLA8J/A+U2K6C7h72UwDoxVU5aH4QEA4HwgvBhZvrM87bzYn0NU2Lek4BtpY1eRedXP3Ji67EffGJayCLH2VFXuFY7oHLGJkx5NCi3MtqvnyIlGqx70+1RC/mB1ex9kowX67S4aieGWIYlE59edI0yKWCWyuAANOrMtayWIfz4a3T8z0f9wLwmzvxszRfSu384/nl4/Poul1chuWxRPq/Tr+SarW5FomB+jMXSfS2YpNz7TcwG5nBqcWoVBYbfOAfzmuIkVgyXl+2ZQwexe0lqNnNBdwrYXsFJEUhoJ4lYhgoJEo0bloqyM+pBUEWgY2APcGle2Md6fPylXPGVWQ3tztfTUcdtbHcYfnSG84/lfn9rm+ys1LpVIrDA+pPy2UIR+icW/cCbFyeUY7DAc9RxDq5M16nfrjhALzMtRDDIBQVrJ4xoxoGsYTzk+aO7nisPX10KT5EQ4GyISXUf4Z71z7H7M4Dgj4+aoYc5Ai1zP+3XPcLVaOeI9c2yU3tzqe54X+OkJQ7+Z23uVnci92UTnUZ5xk1T6C4quQn3cove/C5VU9ABvtPprKaGEj3VtcMnNQ1q/7l4BEUCWMhoB5y0mMwFkqB31fPnkHDAIC+RYQJQFjGY6zdbAgsb06kb4qJYRB4JeQSwMNrvwcLT+b7Rd9VcMYNzp7NifQdPPr3F9ZnL46hDNyzsa+aJ8C63jR9gRNaPbcGT/0Jt74OxbmaE7BDrd3MD4bLWSHukeLv0g2/mlITPfXOjZtYlG4pKkBzMQxCUckWGwL78Z/+k/z/F8OgiFWSjNvaSwU9qn+EhdlHmtrTajL4NiSqZ2ggS0/x7+G0bW6E+IJ1/aQboSea29NnhljNQdWswe8Qft04EzPJloavIMF/snrGPQYyz6DDOkCcyZb0fFWWoIUJ/+AQEMMgOGzz4GwBghgGeQBmImuxlgqetZhqYon07wZ7hgAmQul9JhHCX2Md3ZersoRVfSusim3SSzkLqorgEfznLx1f+Qg3RSJwCFvQN24qhxzLDwExDEJRpxY/G8QwCLAq+AXG51LBvJXiXn74zvsZ545VmfTdTP1fHEs5IBBe+H6f03lSx1rlayB0ZbFCp9EICilXucl49FNE8HG+vZJjOAPBCkL8tNL1rllRPV/V4SyhaOUBATEMPIAUfBZLDAOzIBdyqSAAToMy+SDCSTVUfW9sgbN72IpkhU2h0fRJtUb/0VNjH4aEauvZN0bLW+B77wLg/Cm19iEpj9vcgnwqDgExDEJR5ZYYBv7rIZ+lgv6llCXlYRCh+5sX9B4YptJZYVLGiy7qIdrZal9Ru9rejxDOZZrlHIsU8HmlAxsl+yRb7F9xV1mmSIqI2BJGQP2mZVVC0SvQEsPAWx2o32tBlgp6U6eUcu1NkeySMPUEWKWE3ta63j4f+1Lx6NXJuH0gknUy/3n/yPfXcQw4DLqfvB5ct/nk5fX8xh+9Wv0hAhYq7CsQAfW7EsOg6BVv8bNlPzWzW1YlbFsXyVF3Fdw2r1xtRmBv7gm4IyxzAqzNapXqCSJ1ttYvTcajX3T77V3UPAFC+iUCPAEALkcDAf+NQFfy2/7Houn6XfiHPy85Z1yyrQ1dA8yFhSCQFwJiGOQFV1CZLTEMAJKFWyoYVD0Wg+9h1W71zWFYHWAVo/RByeyah71qnkAq3vC1zpboUa6V3RmJZrAx8CX+s/6a410sW+0mpyYSruZz1WWf5aNaZqgm7T0DBLextX8VEX1DveW7/ZlJyRb74M6Whgu5x+G2W85Fh/NLEARCh4AYBqGoEoufMxXVYzDSUsFQ1ESIlVATA1dl0j8ttopWsRUIUr76YXa2NtzFxsBvkvHoBRxnJFuiR3Lcj+MUjrUcqzhO5rg7x8OSrdGP8fjWf6VaG36e5Lf8rnmT1gapo/AWBIJGQAyDoBH2xN8qZ8Pgxpk4uFSQX7aUM59QPTMn1CIct7sFLYdVw0XH18DPYrXwu9Nr4bqP1w1Gda7S1L0451F5FY2nWtXKhBcW21mQpaW/EAsCgkDJIiCGQSiqzhrNMIgl0n+PKZfIie6WWAnslcAvW7dCVeRYNgTUEGzRAI5WI5y6bwQuObkGfnVaLZx/TA3MmBqBD+5owS4NCOp+xAJQUZ2rNHXvNM6j8l7JNBdPqxnkoe4HVBAkhGuVq+OA+I/JliEYM49kEAQEgQpCQAyDUFS2pQwD1uQToPZKAGzn6817JYTZMFBLBZ0a+wQeSg10V0HGZrswqR5BvcVfPqMWWj9YDftOtLbL4yUBOdN+k6xBHorX7MOqYWKdSuUbZsOkAZeuNMvSOzd/6HjnLzkFAUGgTBDIZRhMqbHryXIPA8SZQHAJF1d5wHyWj2p+DR8kGETAAoT9mN9ww8BpTqTfbEqk72pOdF/R1JE+Z/oi56QZCynKeQsalDD1W+Gh1M8R0Vy+7uEYaIhw2zyD3/gvbaoB9RZfGzEnTvH6KPcMXNZcC586qApUr4E57syJ4MzmRPrjfFbwYBVcoggUBASBskKAx38zqdnjnknG7RuTrdG2ZEtU7YFxaE+NPY4NgmMQqBUALwWAm/l6BR9l9QyDYDrwG/eu3A5OJ8D5SHCV69LSActZz0MHy4vVY5BqbVgIiI1c1sB2FVTd923c1d/Cb/z1Vciiggk1bFQoA0ANDewcNSuHAK44fjHVB6N5bq5iAOTGRu4IAoKABgLqLZANgsc6WxoSyRb728mW6Cf5en82DBrYEBDDQAPbPEgtGLnHYHDbZfOGwfaasWH4T9fKHsN6qFVY22fQSDlmV2twnH/vCZYGl/xI92FZPzilBo7ZxajMqXZfzzn5aaKf22gJ9NURDoKAIFDuCIhhEIoatrhBHmkoIRDDQK3IcqtttbOrseGApr0jcMGxNRDkW3+umlIyL/hQDZzCOuTKk286IV10+pVUmy+dTn5Lh1hoBQFBQBAwhUAuw0DmGJhC2BMfK4dh4GmOwWgSIn1OnO8b6eZWjf+8I6rBMtsTz+p5D0r251mHRnNGwO69Uxw1Z8K7SAnG8wAADVNJREFUEpo5LU16IRcEBAFBIFAEZI5BoPB6Zs7j1P7nGBC/3yLM9yxslIyq23/u4dWj5CjcLWV/fI51MTUcgAQXAWNVqBKIAVAopEWOICAIGEUgV4+BzDEwCvNYzKwtPQb0LcqxXLGpw2ljRodw1Apqwt85RxX3zX94AVRPwDlHV4OhiYH7Nyd6TxouI6hrKyjGwlcQEAQEgWIgIIZBMVDfTqa1tWHAb8rf3y5Hnglq+d1/H1NdlDH/sVRVcwL++9hqI0sEyXLnjCXP1H3LFCPhIwgIAoJAmBHIZRjIHAMztRY0l49OrYJCzvbPtzxqdcCMfavyJds+P8FZhVoSKAbA9vBLiiAgCFQQAjLHIPyVrTz8nXmQgcY14KKeeVAEJuh7DJxQ1+fEAlZ1kL0YAIMwyJcgIAgIAtsiID0G2+Ix+lWwd/9jvypQHvmClaLPXQ0FnL5fRJsRIjZpM/HAQAwADyBJFkFAEBAENiEgPQabkCjMsaEGweBSu8CVju1TNbjZkI4gBGrWofdKKwaAV6QknyAgCAgCoyCQq8egElYljAKL9q3jd7dK4u1/U0HruAPg+D30mlYCOLxx0fodNvEM6qinZVBaCV9BQBAQBMoEATEM9CrypD25RdVjUXDqE/bQ1tmKZK2jglZcDICgERb+goAgIAiMgEAuw6D0ViWMUDhDSeNrEfaZWHrN1H6TLJjAumvBgHigFr0H4tJD1kOhJIsgIAgIAqWKQK45BmwY2GS5hwHiTCC4hMt3I8dnOWY5lmU4dAcELMGSKZ0/wLrrqM7DAAfp0HuhFQPAC0qSRxAQBASBIiOQyzDoKfK2y0HCst8k7a70INUblbcB3cUAGBVhuSkICAKCQIUjUM5DCbuOU+/SpVnBuzZo6k6wS9Allx6AoBEW/oKAICAIFAGBwvQYBFswQ/71g1UyB/ddonoGACGMy8HaWLIYAMagFEaCgCAgCIQfgVLqMYhWhx/PXBramrqz+SAGQC5wJV0QEAQEAUHAHAK5egxGm3xoTvrInOoi3AyOfCv0qfW6upP0AIS+kkVBQUAQEATKGYEwGgbljHchyyZDAIVEW2QJAoKAIFAmCNw4EzOp2eOeScbtG5Ot0bZkS3Qmx0O3XZUAGZ3i9gyQDnlRaXuymrojbAi6AGIABI2w8BcEBAFBoIIQ2HqOATeB7+gUPd2vQ11cWkdTd8ZODIDiVqFIFwQEAUFAEBgJAS9pPIL/npd8ufK863AzmOtmyNPfTuvpjiQ9ACGvYlFPEBAEBAFBIBcC3AS+m+uel/S3NjAHLxlDmOetbk3dEd4OulgyBBA0wsJfEBAEBIGyQ8BbgbiBedNbzpFzLV9Tul6Ol6/W1v35kVExl8r1Y46ZcBIEBAFBQBAQBDYhQID/2nTu5/js+wTkh7DINErnf7PuOmrw8IkYADoACq0gIAgIAoKAeQS8ckTMPuk170j51vcRvLTWHelWqNNWrHFhfUaZARpqIokBoAGfkAoCgoAgIAgUEYGqalfLAFCq3/eadle6YlPQeL++zi4MuI8HrbQMAQSNsPAXBAQBQaCsEPBemDtnTlgNQC96p9g+54Ovu9BXQjZAL+v60BuavRYET3bOHb9qezTMpogBYBZP4SYICAKCgCCwFQI8ln37Vpd5n6b7CVKvcKuaN2VxCDpfGgCls5507NSj90YtBoA3nCSXICAICAKCAADkC4KLcFu+NMPz37Z8ANSb9fD0sF0rz4V3rNQ3VsiiVCHKJgZAIVAWGYKAICAIVCgClInew0VPc/Qd1vYS/P35Ad/0hSL8G+u4jnXVlLeWMnZSk4cncjEAPMEkmQQBQUAQEAQA8segax72AuDfQPNzx8oBeHmd5ti6pg6jkb/Eut1l4O2fZdy4ETM+CziIARAwwMJeEBAEBIFKR4As/KMuBllu+3/zaD+obnZdXqbplU6/W9YPuvv/KL0sCxeqYyGiGACFQFlkCAKCgCBQBgj4LUJqVt29APhv0Py8kya4+rF+cDWX2GuqsQ25avR/z43/27qufzdyXX73rPr7N54G/y0GQPAYiwRBQBAQBCobAURCgt+bAGHZ2y5c/1R/KDwEKjvk+if74fF3uHvCQOEI4efAWBlg5YmFGACeYJJMgoAgIAhUOgJ65c8O1F/FHN7gqB26XsnCHx430+XuVxnVC6Ea/3te1Z/1P6TD63Wr7AVD5wU5iAFQEJhFiCAgCAgClY3Axolt+FNTKCgPgb9+JFOUOQFqzP+Kf2aM+icgxJ/fPh/7TOHjhY8YAF5QkjyCgCAgCFQ4AiaKX7u6/mruNn/NBC/FQw0HfP+eTEFXB6jZ/t/ryhjr9gf1IVhBmfqr1WkhoxgAhURbZAkCgoAgUMEIDL7hEn7FJARqYuAl92Yg8a9gVwgod8Rqnf8PlmbgXYfNGIOFYG4XbuwhMcjUAysxADyAJFkEAUFAEKhsBMyVPtVq/x9z0/YLwDw2BzUTf8lLWfhGMgO3rxgw6jVQeSC8jXl+/e4+UAaAWo64WbCZk7+mWqP/MMMqPy5iAOSHl+QWBAQBQUAQ0EQgEoEvMYt1HI0G5YXvhmcG4CtL+mAh9wgsX+P6Wi3Ab+SgaBUPxetPzHNdn0o1qq5ittoFvFCdFCOKAVAM1EWmICAICAIlhIBpVe+aFX0TAc81zXcTP7UZz93cI6C66y+4ow9+sywDd6zMwlPvuvBWtwvdGQL1Jq+iOldp6t4dK7Lw60czoGgUreKheG3ia/hIYMHnulrs1w3z9cxODADPUElGQUAQEAQEAVMIdLbYfwai/zXFLxef9dzYP/yGC4ue7ofLHsrAN3mY4Hw2Cubd2gsqqnOVpu4teqYf/vmmC4omFz9z6fjL5OzoLeb45c9JDID8MRMKQUAQEAQqCIHgirrOiX4TgJYGJyGsnOneden6bxdbOzEAil0DIl8QEAQEgQpFYNm52O9a7n9y8Z/lWCnh6QwOnKnKXuwCiwFQ7BoQ+YKAICAIhBiBoFXrmj3+fcjiDAJ4KWhZIeD/elUE/+O++MQ1IdAFxAAIQy2IDoKAICAIVDACybn2G1gVOZUhMOIqmPmEMbwSwUhsySzbmCMk3UKKAaCLoNALAoKAIFC2CBSuYMnP1q2IRODDLPFJjuUWnnEBT7orXvdimAomBkCYakN0EQQEAUGgghFQywPd/kwjAXaVDwx0L5fppGIu98uFpRgAuZCRdEFAEBAEKhyBYhS/a96ktXWr6z9KAL8phnyDMomQfrkuHZ2uymSQrzFWYgAYg1IYCQKCgCAgCJhAQO0ZkGqJfokQzgSAVRxLLaxDwJmpeMPXwjDbPxd4YgDkQkbSBQFBQBCoaASKX/hUPPp3Hjs/EgGK4ivfJwJ/ZZ0P62yx/+KTvmBkYgAUDGoRJAgIAoKAIJAvAmrsvLMl+nFEUqsEnsuXvoD5V3KPxceSLdFPK50LKNe3KDEAfEMnhIKAICAIlC8CYStZZ7zh7trV9lEI9HXW7U2OYQmvE+KFbr99KPdY3BYWpbzoIQaAF5QkjyAgCAgCgkDREVBzAzpbGn7BhsBUVuYcjss5FissJ4Rzp9TY+6Xi9pVd87C3WIr4lSsGgF/khE4QEAQEgbJFINwFU4ZAsiX6h5OX2wdZFk7jXoErWeP3OQYd1gFguxqOSMbtA1Px6NU3zsQMlOhHDIASrThRWxAQBASBSkegrQ3du2fb93W2NFzIvQJ7IMAZAHQ5H59gbFyOusEFgscB8BeE8DHu5t8l2WLP6eThCGArAEr8IwZAiVegqC8ICAKCgGkESpGf6hXobInemmxp+EpnS/So6pqBHdkYOA0ILwCEX3OZlgDBU3xcyVH54ldv7iqu5muVpjwQLlF52YD4Erfvp2I2u1OyNXo0N/pf57f920qxm5/LljOIAZATGrkhCAgCgoAgUKoI3DlzwupkS8OSZKv962Q8ekGyJXpasjV6BB/34ziZY+1QnMJHlXYkH09TeTtbor/p5Lf8zrnjS9EHgecqEwPAM1SSURAQBASBSkBAylgpCIgBUCk1LeUUBAQBQUAQEAS2QkAMgK3AkFNBQBAQBCodASl/5SAgBkDl1LWUVBAQBAQBQUAQ2IyAGACboZATQUAQEAQqHQEpfyUhIAZAJdW2lFUQEAQEAUFAEBhCQAyAISDkIAgIAoJApSMg5a8sBMQAqKz6ltIKAoKAICAICAKDCIgBMAiDfAkCgoAgUOkISPkrDQExACqtxqW8goAgIAgIAoIAIyAGAIMgQRAQBASBSkdAyl95CIgBUHl1LiUWBAQBQUAQEARADAD5EQgCgoAgUPEICACViIAYAJVY61JmQUAQEAQEgYpHQAyAiv8JCACCgCBQ6QhI+SsTATEAKrPepdSCgCAgCAgCFY6AGAAV/gOQ4gsCgkClIyDlr1QExACo1JqXcgsCgoAgIAhUNAJiAFR09UvhBQFBoNIRkPJXLgJiAFRu3UvJBQFBQBAQBCoYATEAKrjypeiCgCBQ6QhI+SsZATEAKrn2peyCgCAgCAgCFYuAGAAVW/VScEFAEKh0BKT8lY3A/w8AAP//1+1PQAAAAAZJREFUAwC8Y5yF63FdjAAAAABJRU5ErkJggg==;" vertex="1" parent="1">
          <mxGeometry x="738.75" y="410" width="63.5" height="63.5" as="geometry" />
        </mxCell>
        <mxCell id="QYXpbwsZUJlx9HDoSFY5-67" value="Machine Learning&amp;nbsp;" style="text;html=1;align=center;verticalAlign=middle;whiteSpace=wrap;rounded=0;" vertex="1" parent="1">
          <mxGeometry x="717.5" y="480" width="115" height="30" as="geometry" />
        </mxCell>
        <UserObject label="&lt;img src=&quot;https://tse2.mm.bing.net/th/id/OIP.ITTIKeFxn_2o0ZFbGhUPwAHaIE?cb=12&amp;amp;pid=ImgDet&amp;amp;w=60&amp;amp;h=60&amp;amp;c=7&amp;amp;rs=1&amp;amp;o=7&amp;amp;rm=3&quot; alt=&quot;Image on this site&quot;&gt;" id="QYXpbwsZUJlx9HDoSFY5-71">
          <mxCell style="text;whiteSpace=wrap;html=1;" vertex="1" parent="1">
            <mxGeometry x="160" y="60" width="30" height="30" as="geometry" />
          </mxCell>
        </UserObject>
      </root>
    </mxGraphModel>
  </diagram>
</mxfile>
